<svg height="38" viewBox="0 0 190 38" width="190" xmlns="http://www.w3.org/2000/svg"><path d="m207.4277 3708.8598c1.013-.744 1.765-2.11 1.765-2.858 0-.15-.039-.528-.34-.636-.975-.449-1.611-.977-1.611-2.135 0-1.199.973-2.177 2.134-2.177 1.24 0 2.215.978 2.215 2.135 0 3.923-4.163 5.671-4.163 5.671zm-104.829-16.4 5.725-13.851.165-.401 5.927 14.252zm24.26 12.036s-1.959.317-3.315-2.537c-.31-.577-.65-1.309-1.033-2.194 0 0-12.547-28.55-12.637-28.765-2.599 6.128-10.657 25.095-10.657 25.095-1.042 2.445-1.88 4.261-2.519 5.433-.949 1.868-2.172 2.958-3.698 2.958v.351h9.498v-.341c-2.819 0-4.198-1.356-2.924-4.561l2.341-5.836h13.179l2.03 4.888.394 1.124c.952 2.873.799 4.375-2.904 4.375l.008.351h12.244zm140.227-2.137c-1.882-1.937-2.842-4.605-2.842-7.946 0-3.273 1.051-6.13 3.118-8.481 2.058-2.349 4.698-3.539 7.841-3.539 1.958 0 3.672.517 5.085 1.531 1.403 1 2.11 2.112 2.11 3.283 0 .493-.173.956-.514 1.384-.339.422-.848.62-1.571.62-.526 0-.963-.17-1.361-.532-.395-.361-.687-.902-.878-1.61l-.284-1.163c-.223-.897-.61-1.543-1.155-1.921-.562-.363-1.299-.545-2.195-.545-1.876 0-3.483.838-4.77 2.492-1.283 1.639-1.929 3.837-1.929 6.536 0 2.474.714 4.728 2.118 6.693 1.413 1.986 3.35 2.991 5.753 2.991 1.705 0 3.247-.57 4.564-1.692.723-.619 1.541-1.613 2.436-2.918.13.078.258.156.387.237-.878 1.815-1.816 3.285-2.781 4.356-1.894 2.084-4.124 3.139-6.607 3.139-2.443 0-4.638-.981-6.525-2.915zm-20.727-16.014c1.459-1.334 2.609-2.26 3.435-2.751 1.224-.749 2.508-1.123 3.807-1.123 1.052 0 2.023.299 2.89.905 1.666 1.176 2.518 3.329 2.518 6.384v11.253c0 1.209.249 2.099.74 2.645.474.519 1.257.788 2.295.838v.341h-10.006v-.351c1.123-.175 1.96-.507 2.424-1.008.513-.536.758-1.626.758-3.349v-10.352c0-1.413-.268-2.6-.791-3.539-.54-.971-1.543-1.464-2.98-1.464-.979 0-1.972.336-2.977 1.005-.554.373-1.278 1.004-2.139 1.858l-.051.056v13.689c0 1.226.275 2.033.834 2.466.513.396 1.301.598 2.351.648v.341h-10.083v-.351c1.076-.156 1.843-.429 2.299-.866.495-.466.732-1.436.732-2.975v-12.289c0-1.077-.094-1.819-.306-2.273-.334-.687-1.019-1.036-2.044-1.036l-.457.029s-.207.023-.379.047v-.486c.25-.074 4.555-1.387 4.555-1.387s2.264-.717 2.264-.722v.042c0 .073.019.228.019.228v3.819zm-9.361-13.941v.555c-1.924.104-3.193.412-3.798.947-.632.566-.938 1.755-.938 3.643v22.129c0 1.991.311 3.189.948 3.681.601.468 1.864.767 3.788.915v.563h-14.155v-.563c1.925-.148 3.193-.447 3.786-.915.643-.492.957-1.69.957-3.681v-22.129c0-1.888-.314-3.077-.947-3.643-.599-.535-1.864-.843-3.796-.947v-.555zm-41.44 3.311c-.527-.541-.788-1.165-.788-1.923 0-.747.267-1.399.788-1.94.527-.535 1.179-.805 1.945-.805.763 0 1.394.259 1.933.792.538.546.798 1.18.798 1.953 0 .758-.26 1.382-.798 1.923-.539.54-1.17.796-1.933.796-.778 0-1.413-.256-1.945-.796zm-2.36 9.083c2.804-.874 4.795-1.548 5.899-1.994 0 0 .424-.14.659-.213.006.067.014.133.014.133v17.279c0 1.896.235 3.066.716 3.57.465.486 1.463.78 2.988.923v.341h-11.413v-.341c1.659-.172 2.725-.467 3.19-.907.49-.466.728-1.654.728-3.614v-11.619c0-1.077-.072-1.808-.224-2.237-.267-.743-.835-1.11-1.682-1.11l-.552.049s-.921.241-1.243.33v-.302c.195-.058.92-.288.92-.288zm-16.679-.143 1.287-.445 2.028-.724 2.517-1.035c-.037.011-.005.5-.005.5v4.609l.324-.474c.987-1.425 1.954-2.56 2.873-3.367.898-.779 1.83-1.176 2.786-1.176.758 0 1.353.227 1.83.698.469.469.698 1.044.698 1.762 0 .63-.18 1.164-.532 1.586-.346.424-.774.626-1.303.626-.537 0-1.102-.266-1.67-.792-.639-.603-1.145-.898-1.539-.898-.603 0-1.307.467-2.156 1.419-.82.94-1.235 1.916-1.235 2.915v10.786c0 1.401.336 2.392 1.023 2.949.636.532 1.688.79 3.122.779v.464h-11.641v-.495c1.435-.128 2.408-.383 2.906-.782.541-.426.796-1.288.796-2.62v-10.881c0-1.634-.15-2.768-.465-3.476-.324-.754-.927-1.133-1.788-1.133l-.668.065s-.379.06-.626.112v-.472c.2-.069 1.438-.5 1.438-.5zm-9.692 14.723c0 .987-.518 1.813-1.548 2.44-.997.615-2.052.926-3.148.926-.805 0-1.549-.244-2.203-.715-1.011-.731-1.525-1.883-1.525-3.426 0-1.889 1.201-3.607 3.567-5.082 1.209-.758 2.766-1.457 4.627-2.075l.23-.078zm6.329 3.267-1.001.175c-.746 0-1.242-.347-1.479-1.015-.142-.381-.211-1.033-.211-2.007v-9.726c0-2.088-.287-3.705-.868-4.793-1.072-1.958-3.16-2.961-6.204-2.961-2.631 0-4.646.604-6.008 1.806-1.348 1.197-2.027 2.342-2.027 3.414 0 .543.177 1.03.541 1.475.351.437.859.652 1.535.652.435 0 .809-.101 1.123-.297.543-.327.81-.895.81-1.737l-.111-.863-.111-1.01c0-.827.401-1.483 1.2-1.955.758-.435 1.573-.654 2.424-.654 1.784 0 2.981.574 3.558 1.716.334.678.5 1.827.5 3.513v2.174l-.112.043c-4.396 1.66-7.365 2.98-8.827 3.935-2.267 1.532-3.423 3.461-3.423 5.727 0 1.448.498 2.66 1.468 3.6.978.943 2.144 1.417 3.477 1.417 1.279 0 2.654-.424 4.086-1.266.857-.506 1.904-1.285 3.111-2.33l.276-.233.015.36c.051.918.314 1.711.781 2.368.464.64 1.193.951 2.239.951.894 0 1.794-.285 2.657-.862.583-.381 1.132-.878 1.598-1.362v-.88c-.385.226-1.017.625-1.017.625zm-22.078-19.658v.334c-1.721.124-3.16.486-4.23 1.089-1.091.62-3.208 2.396-6.288 5.29l-1.386 1.249 4.387 5.92c2.269 2.979 4.011 4.988 5.164 5.97 1.129.958 2.343 1.491 3.613 1.637v.361h-10.4v-.326c.218-.015.682-.042.682-.042l.81-.19c.284-.13.441-.357.441-.659l-.144-.595-.354-.563s-7.43-10.031-7.526-10.158c.089-.077 6.722-6.075 6.722-6.075l1.007-1.066.28-.77c0-.457-.231-.762-.674-.871 0 0-1.41-.164-1.812-.207v-.328zm-20.82-9.832 4.274-1.218 1.186-.351c.024-.033.043.159.043.159v29.992c0 1.191.446 2 1.329 2.402.475.227 1.27.347 2.37.372v.326h-11.266v-.341c1.482-.123 2.478-.37 2.976-.791.537-.443.798-1.34.798-2.748v-24.222c0-1.201-.207-1.95-.641-2.297-.418-.325-1.01-.492-1.768-.492l-.807.027s-.34.033-.558.054v-.334c.234-.064 2.064-.538 2.064-.538z" fill="#323333" fill-rule="evenodd" transform="translate(-93 -3671)"/></svg>