<svg enable-background="new 0 0 220 60" viewBox="0 0 220 60" xmlns="http://www.w3.org/2000/svg"><g fill="#2f2725"><path d="m214.3 12.1h-24.7c-.2 0-.4.2-.4.4s-.8 5.3-.8 5.4c0 .2.2.4.4.4h8.6c.2 0 .4.2.4.4l-4.1 28.7c0 .2.2.4.4.4h5.5c.2 0 .4-.2.4-.4l4.1-28.8c0-.2.2-.3.4-.3h8.8c.2 0 .4-.2.4-.4l.8-5.4c.2-.2 0-.4-.2-.4z"/><path d="m34.1 22.8c.2-5-2.6-11.1-11.2-11.1-7.2-.1-13.5 5.2-14.5 12.4l-1.6 11.8c-.7 5.2 1.7 12.4 11.1 12.4 6.7.2 12.7-4.5 14.3-11 .1-.2-.1-.5-.3-.5h-.1-5.6c-.2 0-.3.1-.4.3-.9 3-3.8 5.1-6.8 4.9-5.2 0-5.6-5.2-5.4-6.8l1.4-10.2c.2-1.7 1.4-6.8 7.3-6.8 3.7 0 5 2.7 5.4 4.8 0 .2.2.3.4.3h5.8c0-.1.2-.3.2-.5z"/><path d="m97.6 12.6c0-.2-.2-.4-.4-.4h-5.5c-.2 0-.4.2-.4.4l-3.4 23.6-8.5-23.8c-.1-.2-.2-.3-.4-.3h-6.5c-.2 0-.4.2-.4.4s-4.9 35-4.9 35c0 .2.2.4.4.4h5.4c.2 0 .4-.1.4-.4l3.5-24.4 8.8 24.6c.1.2.2.3.4.3h6.1c.2 0 .4-.2.4-.4z"/><path d="m184 12.6c0-.2-.2-.4-.4-.4h-5.5c-.2 0-.4.2-.4.4l-3.3 23.6-8.5-23.8c-.1-.2-.2-.3-.4-.3h-6.5c-.2 0-.4.2-.4.4s-4.9 35-4.9 35c0 .2.2.4.4.4h5.5c.2 0 .4-.2.4-.4l3.5-24.5 8.8 24.6c.1.2.2.3.4.3h6.1c.2 0 .4-.2.4-.4 0-.4 4.8-34.9 4.8-34.9z"/><path d="m53.6 11.7c-7.3-.1-13.6 5.2-14.6 12.4l-.7 5.9-.9 5.9c-.7 5.2 1.7 12.4 11.1 12.4 7.2.2 13.5-5.2 14.6-12.4l.8-5.9.8-5.9c.6-5.2-1.7-12.4-11.1-12.4zm3.8 18.3-.7 5.2c-.2 1.7-1.4 6.8-7.3 6.8-5.2 0-5.6-5.2-5.4-6.8l.7-5.2.7-5.2c.2-1.7 1.4-6.8 7.3-6.8 5.2 0 5.6 5.2 5.4 6.8z"/><path d="m152.3 12.1h-17.9c-.2 0-.4.2-.4.4l-4.9 35c0 .2.2.4.4.4h17.8c.2 0 .4-.2.4-.4 0-.3.8-5.3.8-5.4 0-.2-.2-.4-.4-.4h-11.4c-.2 0-.4-.2-.4-.4l1.1-7.8c0-.2.2-.4.4-.4h10.2c.2 0 .4-.2.4-.4l.8-5.4c0-.2-.2-.4-.4-.4h-9.8c-.2 0-.4-.2-.4-.4l1.1-7.7c0-.2.2-.4.4-.4h11.6c.2 0 .4-.2.4-.4 0-.3.7-5.2.8-5.4-.2-.3-.4-.5-.6-.5z"/><path d="m127.5 22.8c.2-5-2.6-11.1-11.2-11.1-7.2-.1-13.5 5.2-14.6 12.4l-1.7 11.8c-.7 5.2 1.7 12.4 11.1 12.4 6.7.2 12.7-4.5 14.3-11 .1-.2-.1-.5-.3-.5h-.1-5.6c-.2 0-.3.1-.4.3-.9 3-3.8 5.1-6.8 4.9-5.2 0-5.6-5.2-5.4-6.8l1.4-10.2c.2-1.7 1.4-6.8 7.3-6.8 3.7 0 5 2.7 5.4 4.8 0 .2.2.3.4.3h5.8c.2-.1.4-.3.4-.5z"/></g><path d="m0 0h220v60h-220z" fill="none"/></svg>