<svg height="60" viewBox="0 0 220.005 60" width="220.005" xmlns="http://www.w3.org/2000/svg"><path d="m0 0h220v60h-220z" fill="none"/><g transform="translate(.005 8.006)"><path d="m34.684 2.611a8.92 8.92 0 0 0 -15.225 5.964v8.461a.8.8 0 0 0 .8.8h7.726a8.819 8.819 0 0 0 6.7-2.6 8.937 8.937 0 0 0 0-12.625z" fill="#13202f"/><path d="m2.611 9.416a8.921 8.921 0 0 0 5.964 15.225h8.461a.8.8 0 0 0 .8-.8v-7.722a8.819 8.819 0 0 0 -2.6-6.7 8.937 8.937 0 0 0 -12.625 0z" fill="#f03748"/><path d="m9.414 41.459a8.921 8.921 0 0 0 15.225-5.964v-8.461a.8.8 0 0 0 -.8-.8h-7.722a8.818 8.818 0 0 0 -6.7 2.6 8.937 8.937 0 0 0 0 12.625z" fill="#f03748"/><path d="m41.455 34.66a8.919 8.919 0 0 0 -5.965-15.224h-8.461a.8.8 0 0 0 -.8.8v7.726a8.812 8.812 0 0 0 2.6 6.7 8.935 8.935 0 0 0 12.626 0z" fill="#f03748"/><g fill="#13202f"><path d="m135.171 29.846a7.468 7.468 0 0 1 -3.765 1.37c-1.466 0-2.724-.785-2.721-2.938l.012-6.346h6.457l-1.462-4.263h-5v-4.381h-4.617v4.381h-3.264v4.148l3.264.115-.011 6.71c-.009 4.467 2.213 6.887 6.552 6.9a11.485 11.485 0 0 0 5.877-1.8z"/><path d="m158.111 30.1 3.789-12.431h4.937l-5.964 17.569h-5.39l-3.866-11.663-3.873 11.663h-5.35l-5.994-17.569h5.011l3.822 12.35 3.95-12.35h4.969z"/><path d="m207.571 23.79h1.673l4.949-6.123h5.785l-6.923 8.1 6.945 9.471h-5.8l-5.032-7.321h-1.593v7.323h-4.729v-26.355h4.729z"/><path d="m89.165 17.37a5.911 5.911 0 0 0 -5.03 2.3v-10.77h-4.612v26.338h4.612v-10.17a3.515 3.515 0 0 1 3.7-3.345c2.153 0 3.414 1.375 3.411 3.867v9.659h4.7l.024-11.149a6.472 6.472 0 0 0 -6.805-6.73z"/><path d="m113.074 17.669v1.053a9.286 9.286 0 0 0 -4.828-1.352 9.084 9.084 0 1 0 0 18.169 9.294 9.294 0 0 0 4.828-1.352v1.052h4.613v-17.57zm-4.828 13.531a4.75 4.75 0 1 1 4.828-4.749 4.75 4.75 0 0 1 -4.828 4.749z"/><path d="m199.715 17.735a8.216 8.216 0 0 0 -1.748-.18 5.442 5.442 0 0 0 -4.871 2.339v-2.225h-4.669v17.569h4.673v-9.385a3.52 3.52 0 0 1 3.762-3.87 7.724 7.724 0 0 1 2.856.556v-4.8z"/><path d="m176.066 17.313a9.085 9.085 0 1 0 9.234 9.087 9.085 9.085 0 0 0 -9.234-9.087zm0 13.833a4.75 4.75 0 1 1 4.834-4.746 4.75 4.75 0 0 1 -4.834 4.746z"/><path d="m76.4 30.4-3.48-2.864a8.831 8.831 0 0 1 -6.793 3.164 8.644 8.644 0 1 1 0-17.289 8.83 8.83 0 0 1 6.745 3.112l3.528-2.829h.075a13.457 13.457 0 0 0 -10.352-4.809 13.177 13.177 0 1 0 0 26.354 13.454 13.454 0 0 0 10.367-4.839z"/></g></g></svg>