<svg xmlns="http://www.w3.org/2000/svg" viewBox="0 0 160 60"><defs><style>.a{fill:#533c34;}.b{fill:#1eac4b;}.c{fill:#fff;}.d{fill:#fff100;}.e{fill:#ed7faf;}.f{fill:none;}</style></defs><title>アートボード 3</title><path class="a" d="M32.669,4.879c-.014.115-.034.23-.045.345a1.782,1.782,0,0,0,.017.909c.055.109.158.108.26.052a1.91,1.91,0,0,0,.57-.971,5.189,5.189,0,0,0,.277-1.549,2.819,2.819,0,0,0-.178-.992c-.17-.4-.4-.6-.691-.6q-.907,0-1.439,1.925-.3,1.329-.6,2.66a9.547,9.547,0,0,1-1.6,2.859q-.138.156-.848.892a3.777,3.777,0,0,0-.737.937c-.107.213-1.267-.267-.676.531a2.171,2.171,0,0,1,.188.28,9.421,9.421,0,0,1,2.675-1.722,7.616,7.616,0,0,1,3.05-.828,7.823,7.823,0,0,1,3.863.99,3.506,3.506,0,0,1,2.12,3.074q0,1.585-2.662,2.637a14.5,14.5,0,0,1-4.072.933,3.2,3.2,0,0,1,.478,1.425q0,1.171-2.54,1.17-4.96,0-6.331-3.355s-.727.754-1.178.432c-.283-.2.029-1.088.029-1.088-.067.015-.6.112-1.606.295a9.086,9.086,0,0,1-1.549.2,5.056,5.056,0,0,1-2.618-.633A2.389,2.389,0,0,1,15.52,13.5a2.161,2.161,0,0,1,.854-1.785,7.315,7.315,0,0,1,1.864-.952,5.665,5.665,0,0,1-1.314-2.161,7.425,7.425,0,0,1-.459-2.54,3.621,3.621,0,0,1,.784-2.43,2.819,2.819,0,0,1,2.275-.922q2.007,0,4.075,3.293a12.626,12.626,0,0,1,2.086,5.18h.12s.229-1.08.245-1.144c.18-.732,1.257-1.077,1.547-1.881a13.771,13.771,0,0,0,.928-2.748,16.909,16.909,0,0,0,.038-2.274c0-.873-.419-2.833-.984-2.668-.369.107-.536.579-.633.924a7.368,7.368,0,0,0-.11,2.409c.026.333.181,1.009.4.835a2.673,2.673,0,0,0,.236-.831s.04-.3.126-.326c.12-.032.169.177.19.346.011.084.013.158.016.188a1.21,1.21,0,0,1-.259.8,1.323,1.323,0,0,1-.439.455c-.4.2-.537-1.115-.561-1.293a10.48,10.48,0,0,1-.157-1.423,4.554,4.554,0,0,1,.28-1.525Q27.021,0,27.6,0q.756,0,1.216,1.866a11.9,11.9,0,0,1,.3,2.538,7.049,7.049,0,0,1-.5,2.7,13.607,13.607,0,0,1-1.411,2.4,1.554,1.554,0,0,1,.318.517c.078.172.164.349.256.536,0,0,.716-.771.775-.849a10.678,10.678,0,0,0,.654-1.014A13.094,13.094,0,0,0,30.52,5.471Q31.708,1.6,32.88,1.6a1.191,1.191,0,0,1,1.011.754,2.829,2.829,0,0,1,.338,1.31,4.207,4.207,0,0,1-.495,1.725q-.578,1.171-1.17,1.17c-.466,0-.53-.773-.52-1.092.006-.189.2-1.322.512-1.16.118.062.135.319.128.428Q32.678,4.805,32.669,4.879Zm-6.058,5.356a.463.463,0,0,0-.1.337,1.423,1.423,0,0,0,.14.615.624.624,0,0,1,.117-.308c.082-.126.161-.188.24-.188C27.008,10.387,26.874,10.235,26.611,10.235Z"/><path class="a" d="M121.515,19.8a11.05,11.05,0,0,0-7.53,4.491,5.339,5.339,0,0,0-.942,2.546l-.269.274c-1.189,1.147-2.921,2.821-2.921,5.34v.015l-.258.277a4.5,4.5,0,0,0-.927,2.5c-.026-.171-.019-.333-.057-.505l-.039-.174-.059-.17c-.187-.538-.35-1.22-.523-1.943-.447-1.869-1.2-4.95-3.466-6.3a6.314,6.314,0,0,0-3.013-3.169,4.009,4.009,0,0,0-1.565-.435c-.027-.027-.114-.119-.114-.119a4.785,4.785,0,0,0-4.946-.9l-.126-.035a4.805,4.805,0,0,0-4.577,1.737l-.432.2a9.4,9.4,0,0,0-3.088,2.822,5.922,5.922,0,0,0-1.223,3.718c0,.274.013.526.024.754a3.26,3.26,0,0,0,.072.367c-.03.053-.044.1-.072.152a4.715,4.715,0,0,0-1.958-1.851l-.772-.343a6.831,6.831,0,0,0-4.63-4.392,6.428,6.428,0,0,0-4.561-3.22,5.879,5.879,0,0,0-2.661.251c-.228-.159-.442-.3-.627-.416l-.236-.15-.259-.1a7.181,7.181,0,0,0-7.12.955l-.761-.011a6.245,6.245,0,0,0-3.4,1.539,6.969,6.969,0,0,0-1.6,2.306s-.034.088-.075.193a5.43,5.43,0,0,0-2.774,3.838,6.187,6.187,0,0,0-1.991,3.429,7.055,7.055,0,0,0-.9-2.037l-.278-.417-.1-.05-.018-.013a12.047,12.047,0,0,0-2.454-5.011,6.364,6.364,0,0,0-1.407-2.348l-.121-.12-.133-.106c-1.067-.853-3.888-2.787-7.024-2.3a5.825,5.825,0,0,0-4.036,2.605l-.1.159-.085.17a4.089,4.089,0,0,0-.437,1.854,4.784,4.784,0,0,0,.085.877A11.28,11.28,0,0,0,32.85,31.2a4.253,4.253,0,0,0-1.677,3.275c0,.94-.3,1.37-1.244,2.591l-.647.845-.112.236a4.784,4.784,0,0,0-.514,2.15c-.061.059-.124.122-.124.122-.016.015-.032.034-.047.05a8.789,8.789,0,0,0-1.133-1.4,5.147,5.147,0,0,0,.753-2.585,5.471,5.471,0,0,0-.242-1.595l-.028-.092-.115-.287-.57-1.525c-.6-1.752-1.547-4.419-3.923-5.727-.035-.075-.075-.163-.1-.2a6.639,6.639,0,0,0-1.212-1.593A6.691,6.691,0,0,0,19,23.69a6.339,6.339,0,0,0-2.487-2.144,5.218,5.218,0,0,0-2.094-.448,5.049,5.049,0,0,0-2.184-.884,4.9,4.9,0,0,0-2.812.462,4.749,4.749,0,0,0-3.227,1.046A6.663,6.663,0,0,0,3.21,27a5.308,5.308,0,0,0,.248,1.533A9.721,9.721,0,0,0,2.4,32.89a9.426,9.426,0,0,0,.133,1.555l-.118.184a8.3,8.3,0,0,0-.588,1.645l-.081.3A7.9,7.9,0,0,0,1.4,38.606s.083.471.159.89a8.774,8.774,0,0,0-.763,5.571A8.1,8.1,0,0,0,0,48.491a7.9,7.9,0,0,0,.494,2.571,6.9,6.9,0,0,0-.076.992,4.036,4.036,0,0,0,.017.425c.376,2.159,1.739,5.01,4.344,5.963a4.444,4.444,0,0,0,2.95.032,5.679,5.679,0,0,0,5.518-1.153A8.427,8.427,0,0,0,17.3,55.892l.252-.147.412.039a8.1,8.1,0,0,0,1.732.08,4.984,4.984,0,0,0,2.886-1.231l.021-.016a10.076,10.076,0,0,1,1,.3,9.376,9.376,0,0,0,3.037.634c.09,0,.178-.024.268-.028a7.555,7.555,0,0,0,4.81,1.8l-.743-.091c2.781.7,4.792-.868,6.26-2.009l.5-.386a5.044,5.044,0,0,0,2.294-2.375,7.766,7.766,0,0,0,2.239-1.931l.193.194C44.315,52.6,47,55.3,50.157,55.093l.067.06.489.3a5.664,5.664,0,0,0,4.49.6,8.13,8.13,0,0,0,3.642.732,6.729,6.729,0,0,0,.985-.141,5.81,5.81,0,0,0,1.66.915,4.676,4.676,0,0,0,2.5.088,12.748,12.748,0,0,0,2.9.612,6.6,6.6,0,0,0,2.647-.268l1.077-.564a5.322,5.322,0,0,0,3.679.045,5.382,5.382,0,0,0,1.782-1.138,6.318,6.318,0,0,0,3.614-.876A6.587,6.587,0,0,0,82.049,52.9a6.361,6.361,0,0,0,1.816,2.391,7.645,7.645,0,0,0,5.575,1.445,5.732,5.732,0,0,0,4.282.552,6.253,6.253,0,0,0,5.265.049l.189.056c.985.313,3.035.934,4.8-.084a4.959,4.959,0,0,0,2.395-.128,5.275,5.275,0,0,0,.878-.345,4.8,4.8,0,0,0,3.114,1.523l.477.015a5.2,5.2,0,0,0,3.54-1.673s.328-.376.5-.579c3.042-.313,4.161-3.3,4.614-4.56l.087-.238a7.328,7.328,0,0,0,2.848-.026,24.293,24.293,0,0,0,3.254,5.192l-.343-.384.191.26a5.546,5.546,0,0,0,9.508.44c.14-.17.259-.381.393-.564a4.513,4.513,0,0,0,.912.833,4.938,4.938,0,0,0,3.04.8,4.591,4.591,0,0,0,2.244.377,4.84,4.84,0,0,0,1.435-.392,5.737,5.737,0,0,0,3.594-.135,4.83,4.83,0,0,0,4.706-.2l-.06.02a4.917,4.917,0,0,0,1.248-1.079l.542-.092.671-.128-.108.014a5.881,5.881,0,0,0,4.453-3.47A6.353,6.353,0,0,0,160,47.945a7.491,7.491,0,0,0-.615-3.021,10.649,10.649,0,0,0-.054-1.077,6.937,6.937,0,0,0-1.517-3.67c.046-.131.095-.264.124-.381l.373-.489a8.686,8.686,0,0,0,.971-4.068,7.677,7.677,0,0,0-.28-2.12,5.626,5.626,0,0,0-2.626-3.235l-.026-.012a7.974,7.974,0,0,0-4.249-7.044l-.547-.321-.51-.06-.584-.073a6.229,6.229,0,0,0-5.926-.518,7.1,7.1,0,0,0-2.927-.208,5.6,5.6,0,0,0-2.762,1.327l-.235.181-.136.049a4.222,4.222,0,0,0-2.578,2.2l-.051.036a11.782,11.782,0,0,0-2.019,1.605,4.512,4.512,0,0,0-1.3,3.146,4.58,4.58,0,0,0,.087.6,4.3,4.3,0,0,0-.824-.877,10.14,10.14,0,0,0-3.325-5.842l-1.488-2.3-.2-.2A6.277,6.277,0,0,0,121.515,19.8ZM110.169,32.152l-.183.174ZM49.918,54.879l.041.036Z"/><path class="b" d="M135.526,42.162a3.2,3.2,0,0,0-1.919,2.713,8.388,8.388,0,0,1-1.31-2.8c-.25-.919.274-1.336.011-2.262a14.219,14.219,0,0,1-1.821-6.061c-.179-2.03-1.3-1.388-1.716-2.256.261-2.284-1.128-4.026-2.692-5.479-.51-.778-.981-1.537-1.493-2.315-2.163-2.214-6.714.18-8.082,2.32a2.777,2.777,0,0,0-.388,2.05c-1.527,1.743-3.476,2.843-3.163,4.806a2.685,2.685,0,0,1-.893,1.682c-.8,1.08.01,1.756.214,2.941.073.424-.686,1.226-.826,1.652a12.927,12.927,0,0,0-.188,2.282c-.083.543-.481.845-.611,1.368a21.192,21.192,0,0,1-1.175,3,2.551,2.551,0,0,0-1.341,1.9,3.528,3.528,0,0,0-1.292-1.078c-.086-.187-.18-.375-.285-.569a6.871,6.871,0,0,0-2.208-5.732,1.885,1.885,0,0,0,.214-.89,1.928,1.928,0,0,1,.268-1.224,6.89,6.89,0,0,0,.7-1.039,2.854,2.854,0,0,0,.094-1.776c-.94-2.7-1.07-6.878-3.639-6.858a3.012,3.012,0,0,0-1.846-2.82.782.782,0,0,0-.626-.127c-.338.049-.494.278-.8.076-.269-.174-.505-.624-.781-.844-.546-.437-1.4-.875-2.057-.4-.3.215-.229.411-.589.38-.28-.025-.584-.236-.887-.273-.449-.055-1.487-.008-1.723.5-.377.8-.785.741-1.5,1.113a6.492,6.492,0,0,0-2.043,1.931,3.216,3.216,0,0,0-.6,2.488c.015.3.4.807.513.765-1.332,1.762-2.012,3.469-1.308,4.813-.672.707-2.577,2.12-2.237,3.324.132.467.291.4.021.827a6.752,6.752,0,0,0-.647,1.078,3.092,3.092,0,0,0-.207,1.107,3.535,3.535,0,0,0-.476-.439,3.461,3.461,0,0,0-.382-1.207,1.953,1.953,0,0,0-.586-1.021c1.463-1.551.538-3.188-.164-4.424.313-1.053.18-2.706-.924-3.262a7.232,7.232,0,0,1-1.736-.892c-.8-1.238-.881-3.772-4.353-3.795-.037,0-.465-1.054-.541-1.188a3.093,3.093,0,0,0-5.106-.8,5.486,5.486,0,0,0-1.778-1.6,4.1,4.1,0,0,0-4.791,1.211c-.041.051-1.384-.092-1.551-.071a3.194,3.194,0,0,0-1.742.777,4.076,4.076,0,0,0-.881,1.344c-.163.343-.311,1.191-.693,1.3-1.863.518-1.9,1.764-2.133,3.222a3.532,3.532,0,0,0-1.935,3.489c0,.09.007.178.014.266a4.621,4.621,0,0,0-1.233,1.742,2.134,2.134,0,0,0,.406,2.1c1.041,1.061-.6,3.075-.136,4.519a10.179,10.179,0,0,1,.549,1.137,2.7,2.7,0,0,0-.182.969c0,.059.012.116.015.173-.026-.415-.671-.992-.969-1.233-.384-.311-1.152-.424-1.443-.747-.263-.291.15-1.19.053-1.561a2.36,2.36,0,0,0-.4-.9c-.148-.183-.628-.394-.628-.65a7.241,7.241,0,0,0-.22-2.3c-.2-.592-1.331-1.459-1.331-1.965a6.567,6.567,0,0,0-.794-3.744c-.388-.388-.776-.388-.776-.776,0-1.941-1.164-3.492-2.327-5.044a2.942,2.942,0,0,0-.776-1.552c-1.94-1.552-5.044-2.716-6.595-.388-.388.776.388,1.552,0,2.328-1.164,1.552-2.328,3.1-2.328,5.044-.388.776-1.552,1.163-1.552,1.939,0,2.328-1.164,3.492-2.327,5.043-.388.776,0,1.164-.388,1.94-.568,1.42-1.732,1.169-2.362,3.872-.9.361-.663,1.343-.9,1.343a2.722,2.722,0,0,0-.272.027c.092-1.82-.553-2.6-1.4-2.88a4.528,4.528,0,0,0-1.47-2.667A20.51,20.51,0,0,0,23.5,39.89a1.086,1.086,0,0,1-.334-1.166c.173-.282.557-.245.818-.383a1.919,1.919,0,0,0,.656-.63,2.166,2.166,0,0,0,.292-1.933c-1.061-2.328-1.414-5.82-4.244-6.207a4.569,4.569,0,0,0-.271-1.1,3.632,3.632,0,0,0-.671-.856,3.42,3.42,0,0,0-2.594-1.151,4.736,4.736,0,0,0-1.968-2.158,1.859,1.859,0,0,0-1.2-.08c-.357.175-.286.336-.641.031a2.107,2.107,0,0,0-3.149-.485c-.335.272-.992-.5-2.141.382-1.7,1.3-2.085,2.739-1.551,3.854.016.036.366.772.391.769A6.565,6.565,0,0,0,5.832,35c.016.044-.6.846-.662.969A5.375,5.375,0,0,0,4.8,37.026a7.291,7.291,0,0,0-.339,1.636c0,.227.4,1.26.312,1.384a5.876,5.876,0,0,0-.707,5.43,5.006,5.006,0,0,0-.355,5.43,4.3,4.3,0,0,0-.254,1.053c.226,1.292,1.064,3.124,2.377,3.6,1.061.387,1.768-.777,2.83,0,1.06.387,2.475,0,3.536-1.552,1.415.775,2.829-.388,4.244-1.164.8-.439,2.124.037,3-.038.8-.068,1.04-.473,1.643-.882,1.716-1.163,3.784.558,5.557.558a3.316,3.316,0,0,0,1.33-.278,4.584,4.584,0,0,0,3.748,2.055c1.552.387,2.716-.776,4.268-1.94.776-.388,1.117-.5,1.746-2.328,1.551,0,2.552-2.111,3.715-3.275,1.281-1.784,5.595,6.378,9.087,5.215a2.947,2.947,0,0,1,1.552.775,2.561,2.561,0,0,0,2.327.388,1.584,1.584,0,0,0,.656-.859,4.629,4.629,0,0,0,3.675,1.479,6.9,6.9,0,0,0,2.03-.468c-.006,0,.634.755.7.813a2.941,2.941,0,0,0,.97.58c.741.241,1.331-.265,1.982-.068A12.3,12.3,0,0,0,67.1,55.2a3.751,3.751,0,0,0,1.435-.108c.372-.128.649-.447,1.029-.567a2.232,2.232,0,0,1,1.728-.092C73.692,55.6,74.763,53,74.763,53c4.423,1.455,5.125-3.046,5.125-3.046.016,0,.032,0,.049,0a2.661,2.661,0,0,0,2.445-1.614,3.52,3.52,0,0,0,2.3,2.349,2.852,2.852,0,0,0,1.159,2.249c1.045.881,2.568.811,4.431.686a2.654,2.654,0,0,0,3.68.1c1.981,1.966,3.39.883,4.775.434,1.117-.023,3.142,1.35,4.054.226.238-.292.085-.505.509-.569a2.766,2.766,0,0,0,2.2.433s1.255-.324,1.3-1.288a3.477,3.477,0,0,0,.586-.347,2.547,2.547,0,0,0,1.476.857,2.1,2.1,0,0,0,1.77,1.829c.054,0,.108.006.16,0a2.2,2.2,0,0,0,1.453-.793c.336-.332,1.016-1.395,1.5-1.475,3.13.656,2.387-3.835,4.586-5.325,3.751,1.761,4.942-.488,6.336-.324-.454,1.722,2.573,6.33,3.148,6.877.618.824,1.206,1.826,2.342,1.937a3.106,3.106,0,0,0,2.541-1.354,10.6,10.6,0,0,0,1.561-2.634,2.529,2.529,0,0,0,.814-.286,2.566,2.566,0,0,0,2.372,1.59s.222,1.8,2.612,1.173c.761.7,1.833.786,2.759-.437a2.778,2.778,0,0,0,3.5.306c1.192-.232,2.206,1.157,3.421.379.28-.018,1.073-1.3,1.356-1.318s1.964-.372,2.244-.411a2.723,2.723,0,0,0,2.169-2.5c.011,0,.022.006.033.006.784,0,1.42-1.24,1.42-2.771a3.929,3.929,0,0,0-.634-2.306,8.8,8.8,0,0,0-.018-1.47c-.153-1.448-.906-2.179-1.813-3.2-.162-.182-.6-.607-.588-.885.079-.352.835-.412.914-.765.189.053.22-.638.261-.735.14-.342.4-.45.572-.759a5.766,5.766,0,0,0,.429-3.849,2.575,2.575,0,0,0-1.271-1.468c-.217-.132-1.653-.692-1.607-.985a5.334,5.334,0,0,0-2.632-6.05c-.441-.072-.887-.127-1.332-.164a3.129,3.129,0,0,0-3.561-.6,2.016,2.016,0,0,0-.958.563,3.742,3.742,0,0,0-2.657-.586c-.891.127-1.41.975-2.22,1.293-.768.3-1.3.307-1.3,1.317a24.157,24.157,0,0,0-2.481,1.868,1.426,1.426,0,0,0-.379,1.483c.043.146.606,1.363.818,1.282a4.06,4.06,0,0,0-.23,5.217,5.663,5.663,0,0,0-1.12,2.242A4.291,4.291,0,0,0,135.526,42.162ZM12.434,31.425s4.952-.259,5.188.776a2.216,2.216,0,0,0,.346,1.014c.411.469,1.3.527,1.3,1.314s-.943,1.034-.943,1.034a38.707,38.707,0,0,0-4.009.517c-.943.259-.471.776-1.65.776a1.957,1.957,0,0,1-1.618-1.406,3.261,3.261,0,0,1,.2-2.215S11.019,31.425,12.434,31.425Zm6.589,11.89a4.349,4.349,0,0,0-.324.671c-.169.526.091,1.169-.135,1.664a2.248,2.248,0,0,1-2.593,1.033,2.3,2.3,0,0,0-1.415,0c-.943,1.035-3.065.777-3.536,0A12.487,12.487,0,0,1,9.841,44.1c-.236-.776,1.017-1.336,1.253-2.37s2.048-.734,2.048-.734a1.952,1.952,0,0,0,1.534-.347,3.786,3.786,0,0,1,3.449.325c.392.251,1.03.721,1.17,1.19A1.546,1.546,0,0,1,19.023,43.315ZM44.537,40.8c0,1.034-2.41.707-2.41.707-1.552,1.551-1.147-.577-2.7-.319-1.113.185-.793-1.22-.723-1.85a5.045,5.045,0,0,1,.164-1.346,9.418,9.418,0,0,0,.462-1.152c.34-1.116.388-.34.711-1.606a3.173,3.173,0,0,1,1.568-1.745c.963-.322,1.341.757,1.558,1.458.134.437.163.955.331,1.374.213.53.628.8.642,1.405a2.939,2.939,0,0,0,.272,1.344C44.73,39.956,44.537,39.763,44.537,40.8Zm49.44-7.235s1.349-1.635,2.54-1.566c.016-.016,3.039.3,2.908,1.306-.115.874.869,1.593.624,2.369a1.26,1.26,0,0,1-1.035.813,31.442,31.442,0,0,0-3.272-.207c-.809.062-.568.57-1.5.359-.625-.153-.9-.949-.957-1.514C93.223,34.514,93.671,34.043,93.977,33.562Zm6.373,10.511c-.725,1.034.032,1.423-.368,2.506a1.7,1.7,0,0,1-2.411.738,2.06,2.06,0,0,0-1.334-.238c-1.35-.074-2.909.141-3.334-.661a14.527,14.527,0,0,1-1.048-2.54c-.2-.7,1.135-1.725,1.362-2.691s1.729.069,1.729.084c0-.005.895.727,1.724-.442.633-.893,2.271.038,2.86.594C99.823,41.7,100.841,43.371,100.35,44.073Zm24.405-3.945c-.259.893-.367,1.577-1.524,1.421-1.01-.136-1.235.548-1.889.81-.9.36-2.68-.156-2.72-.894-.057-1.075-1.739-1.4-.614-2.531,1.156-1.156-.215-1.507.369-2.4,1.491-2.3.408-3.14,2.771-2.962.008-.006,2.729-.194,2.789,1.216.065,1.487-.531,1.294.388,2.328C125.3,38.208,125.12,38.869,124.755,40.128Zm17.148-5c.272-.941-.024-2,1.287-2.167,0-.174,5.228-.415,5.357.793.11.755.591,1.427.659,2.171.038.425-.758.959-1.086,1.1-.917.385-2.082-.169-3.065.068-.9.217-.464.662-1.571.68a1.833,1.833,0,0,1-1.789-.708C141.355,36.456,141.724,35.747,141.9,35.131Zm8.026,8.98c0,.019-.009.037-.015.056-.078.244-.31.46-.382.727a4.379,4.379,0,0,1-.265,1.242c-.332.59-1.271.671-1.864.694-.768.029-1.693-.506-2.39-.356-.579.125-.847.507-1.5.443a1.829,1.829,0,0,1-1.443-.791,15.721,15.721,0,0,1-1.11-1.867,2.291,2.291,0,0,1,1.281-2.919,1.726,1.726,0,0,1,1.63.08,1.836,1.836,0,0,0,1.658-.339C146.708,39.935,150.216,42.755,149.929,44.111Z"/><path class="a" d="M60.011,46.261,60,46.245s-.014-.012-.02-.018C59.987,46.239,60,46.25,60.011,46.261Z"/><polygon class="a" points="67.422 49.038 67.433 49.032 67.428 49.034 67.422 49.038"/><path class="a" d="M67.462,49.015l-.029.017Z"/><path class="a" d="M70.441,27.611h0c-1.938.026-3.546,2.061-3.993,2.685-.031.044-.062.095-.062.095a7.717,7.717,0,0,0-1.015,2.849,17.558,17.558,0,0,0-1.547-1.114,2.593,2.593,0,0,0-3.509.508,3.833,3.833,0,0,0-.694,2.258,5.012,5.012,0,0,0,.423,1.963,8.029,8.029,0,0,0,.9,1.452c-.9.314-3.187,1.244-4.037,2.886a3.033,3.033,0,0,0-.352,1.407v.035l.116.749c.21,1,1.217,2.587,5.655,2.242a9.953,9.953,0,0,0,1.051-.192l-.007.02a5.041,5.041,0,0,0-.163,1.258,3.332,3.332,0,0,0,2.143,3.342c.11.041,2.9,1.034,4.624-2.688h0c.02-.034.134-.247.277-.573a4.762,4.762,0,0,0,2.826,2.053,3.561,3.561,0,0,0,2.5-.393l-.009-.016a2.231,2.231,0,0,0,1.1-1.282l.126-.836A5.574,5.574,0,0,0,76.159,44c3.23.366,4.008-1.059,4.175-1.728l-.012,0c.032-.147.138-.629.138-.629v-.05c0-1.569-1.674-2.6-2.188-2.878a9.56,9.56,0,0,0-1.2-.563,3.053,3.053,0,0,0,1.116-2.272c0-.046-.042-.426-.042-.426-.2-1.546-1.746-2.232-3.19-2.232a5.927,5.927,0,0,0-1.5.216,8.371,8.371,0,0,0,.132-1.15,7.372,7.372,0,0,0-.707-3.271c-.017-.03-.114-.183-.114-.183A2.826,2.826,0,0,0,70.441,27.611Z"/><path class="c" d="M74.96,35.226c.312,0,1.182.119,1.2.489a.406.406,0,0,0,.014.086l0-.01c.007.031.144.759-1.228,1.331l-.026.012c-.026.013-2.434,1.193-3.982.636A5.089,5.089,0,0,1,74.96,35.226Zm-8.371,5.139,0,0Zm-.221-1.712h0ZM70,37.1l0,0Zm.343.263,0,0Zm-3.167,3.7,0,0Zm3.4-.505-.007.008Zm-2.475-9.1c.375-.518,1.5-1.819,2.373-1.831a.783.783,0,0,1,.654.358,5.367,5.367,0,0,1,.464,2.273,7.4,7.4,0,0,1-1.836,4.705h0a2.407,2.407,0,0,0-1.073-.262,2.044,2.044,0,0,0-.717.134h0a4.88,4.88,0,0,1-.449-.9,4.525,4.525,0,0,1-.3-1.609A5.532,5.532,0,0,1,68.1,31.454Zm-6.2,4.612a3.014,3.014,0,0,1-.26-1.179,1.826,1.826,0,0,1,.257-1,.611.611,0,0,1,.854-.06l.022.014a11.406,11.406,0,0,1,4.076,3.833,2.728,2.728,0,0,0-.212.32,2.986,2.986,0,0,1-2.3.434A4.5,4.5,0,0,1,61.9,36.066Zm4.833,4.522,0-.006Zm-4.567,3.031c-2.655.206-3.449-.405-3.531-.658l.006.029c0-.016-.011-.053-.016-.069a.985.985,0,0,1,.072-.8c.521-1.008,2.477-1.789,3.186-2a6.065,6.065,0,0,1,4.667.231C66.491,43.069,62.318,43.6,62.161,43.619Zm6.057,2.759c-.007.013-.014.026-.02.04-.941,2.128-2.127,1.756-2.177,1.739a1.366,1.366,0,0,1-.8-1.419,3.286,3.286,0,0,1,.083-.727c.9-3.1,2.67-4.1,3.415-4.4A5.314,5.314,0,0,1,68.99,43.3,6.854,6.854,0,0,1,68.218,46.378Zm5.743-2.23a5.4,5.4,0,0,1,.815,2.166.733.733,0,0,1-.029.22.235.235,0,0,1-.144.159.513.513,0,0,0-.066.034c-.142.089-1.428.81-2.809-1.3a13.385,13.385,0,0,1-1.671-4.25C70.831,41.266,72.551,41.74,73.961,44.148Zm4.458-2.467a.786.786,0,0,0-.04.109l.013-.043c0,.006-.34.552-2.483.207l-.029,0a7.014,7.014,0,0,1-4.346-2.192,7.064,7.064,0,0,1,5.772.713C77.878,40.784,78.572,41.391,78.419,41.681Z"/><path class="d" d="M70.321,39.078a1.89,1.89,0,0,1-1.741,1.644,1.474,1.474,0,0,1-1.448-1.5,1.735,1.735,0,0,1,1.545-1.693A1.682,1.682,0,0,1,70.321,39.078Z"/><path class="e" d="M18.029,5.074A4.906,4.906,0,0,0,17.9,7.657a5.906,5.906,0,0,0,.8,1.6,4.627,4.627,0,0,0,1.141,1.3,3.065,3.065,0,0,0,.893.384,4.908,4.908,0,0,1,1.123.478c.467.3,1.364,1.182.671,1.674-.845.6-1.735.116-2.488-.39-.423-.284-.882-.671-1.421-.524-.568.155-1.566.7-1.566,1.393,0,.674.454,1.155,1.387,1.471a8.077,8.077,0,0,0,2.506.341,4.4,4.4,0,0,0,2.037-.339,1.869,1.869,0,0,0,.477-.742c0,.007.48-1.093.48-1.093a7.021,7.021,0,0,1,.9-1.011,3.143,3.143,0,0,0,.6-.734,6.46,6.46,0,0,0-1.1-2.843A14.848,14.848,0,0,0,21.8,5.389a4.246,4.246,0,0,0-2.56-1.448C18.636,3.941,18.25,4.432,18.029,5.074Zm12.405,6.361a4.5,4.5,0,0,0-2.893,1.872,12.671,12.671,0,0,1-2.717,2.959,4.46,4.46,0,0,0,2.041,1.876,6.653,6.653,0,0,0,4.125.942c.611-.149.52-.524.52-1.057,0-.066,0-.242-.356-.423l-.9-.386c-.326-.14-1.163-.571-.952-1.011a1.486,1.486,0,0,1,1.235-.681c.466,0,.823.4,1.275.469a8.437,8.437,0,0,0,3.961-.551c1.34-.5,1.991-1.189,1.991-2.108,0-.712-.508-1.288-1.554-1.758a6.688,6.688,0,0,0-2.718-.588A11.375,11.375,0,0,0,30.434,11.435Z"/><rect class="f" width="160" height="60"/></svg>