<svg height="60" viewBox="0 0 220 60" width="220" xmlns="http://www.w3.org/2000/svg" xmlns:xlink="http://www.w3.org/1999/xlink"><clipPath id="a"><path d="m-.158 6h220v60h-220z"/></clipPath><clipPath id="b"><path d="m0 0h183.545v18.203h-183.545z"/></clipPath><g clip-path="url(#a)" transform="translate(.158 -6)"><g clip-path="url(#b)" transform="translate(18.053 27.183)"><g clip-path="url(#b)"><path d="m164.445 101.935h1.21a.214.214 0 0 0 .167-.1l5-8.181 2.718 9.36a.153.153 0 0 0 .141.107h5.246a.075.075 0 0 0 .078-.1l-5.532-17.516a.164.164 0 0 0 -.146-.107h-1.969a.22.22 0 0 0 -.171.1l-6.739 10.445-6.74-10.443a.224.224 0 0 0 -.172-.1h-1.969a.164.164 0 0 0 -.145.107l-5.531 17.516a.075.075 0 0 0 .078.1h5.244a.152.152 0 0 0 .142-.107l2.718-9.36 5 8.181a.212.212 0 0 0 .168.1z" fill="#005aac" transform="translate(-119.92 -85.163)"/><path d="m86.767 92.712a.114.114 0 0 0 -.11-.088h-14.942a1.432 1.432 0 1 0 0 2.864h8.88c-1.058 2.794-4.635 4.848-8.88 4.848-5.081 0-9.2-2.939-9.2-6.566s4.117-6.569 9.2-6.569a11 11 0 0 1 6.947 2.268.062.062 0 0 1 .017.015.106.106 0 0 0 .062.015h6.106a.112.112 0 0 0 .112-.11.1.1 0 0 0 -.026-.069c0-.007-.008-.007-.009-.012-2.6-2.772-7.54-4.638-13.209-4.638-8.37 0-15.155 4.074-15.155 9.1s6.785 9.1 15.155 9.1 15.152-4.073 15.152-9.1a5.665 5.665 0 0 0 -.1-1.053" fill="#005aac" transform="translate(-56.559 -84.664)"/><path d="m254.674 84.663c-8.368 0-15.152 4.074-15.152 9.1s6.784 9.1 15.152 9.1 15.156-4.073 15.156-9.1-6.786-9.1-15.156-9.1m0 15.667c-5.078 0-9.2-2.94-9.2-6.566s4.119-6.57 9.2-6.57 9.2 2.944 9.2 6.57-4.119 6.566-9.2 6.566" fill="#005aac" transform="translate(-180.777 -84.663)"/><g fill="#393c41"><path d="m532.891 123.806a.259.259 0 0 0 .261.282h3.165a.311.311 0 0 0 .3-.282l.544-7.247a.26.26 0 0 0 -.262-.282h-3.164a.311.311 0 0 0 -.305.282z" transform="translate(-379.953 -106.126)"/><path d="m589.383 116.276a.259.259 0 0 0 -.261.282l.549 7.248a.311.311 0 0 0 .3.282h3.165c.156 0 .452-.127.44-.282l-.728-7.248a.311.311 0 0 0 -.3-.282z" transform="translate(-418.129 -106.126)"/><path d="m555.323 91.724a.284.284 0 0 0 .283-.283v-3.041a.284.284 0 0 0 -.283-.283h-8.462a.283.283 0 0 1 -.283-.283v-2.151a.284.284 0 0 0 -.283-.283h-3.045a.284.284 0 0 0 -.283.283v2.147a.283.283 0 0 1 -.283.283h-8.4a.284.284 0 0 0 -.284.287v3.046a.284.284 0 0 0 .283.283h8.4a.283.283 0 0 1 .283.283v10.835a.284.284 0 0 0 .283.283h3.051a.284.284 0 0 0 .283-.283v-10.84a.283.283 0 0 1 .283-.283z" transform="translate(-380.705 -85.163)"/><path d="m348.411 100.951a.191.191 0 0 0 0 .269l2.284 2.284a.192.192 0 0 0 .27 0l8.28-8.28a.191.191 0 0 1 .27 0l10.813 10.833a.191.191 0 0 0 .269 0l2.284-2.284a.192.192 0 0 0 0-.269l-13.364-13.389a.191.191 0 0 0 -.269 0z" transform="translate(-254.667 -88.326)"/><path d="m443.538 106.258a.165.165 0 0 0 .167.189h3.508a.22.22 0 0 0 .213-.189l1.9-15.775a.165.165 0 0 0 -.168-.189h-3.509a.221.221 0 0 0 -.213.189z" transform="translate(-319.288 -88.485)"/><path d="m487.45 90.293a.165.165 0 0 0 -.168.189l1.914 15.776a.222.222 0 0 0 .214.189h3.509a.166.166 0 0 0 .168-.189l-1.915-15.776a.222.222 0 0 0 -.214-.189z" transform="translate(-348.987 -88.485)"/></g><rect fill="#3e6f99" height="4.735" rx=".881" transform="translate(176.667)" width="2.711"/><rect fill="#3e6f99" height="4.735" rx=".881" transform="translate(180.834)" width="2.711"/><path d="m411.949 90a2.668 2.668 0 1 0 -2.668-2.668 2.668 2.668 0 0 0 2.668 2.668" fill="#3e6f99" transform="translate(-296.031 -84.661)"/><path d="m509.789 84.663a2.668 2.668 0 1 0 2.668 2.668 2.668 2.668 0 0 0 -2.668-2.668" fill="#3e6f99" transform="translate(-362.457 -84.662)"/></g></g></g></svg>