<svg height="80" viewBox="0 0 220 80" width="220" xmlns="http://www.w3.org/2000/svg"><g fill="#ffad46"><path d="m67.527 8.288c0 2.891-1.709 5.235-3.817 5.235s-3.818-2.342-3.818-5.235 3.818-8.288 3.818-8.288 3.817 5.4 3.817 8.288z" transform="translate(-23.923 10)"/><path d="m40.869 14.536c1.446 2.5 1.141 5.388-.688 6.442s-4.477-.12-5.923-2.625-.841-9.087-.841-9.087 6.005 2.766 7.452 5.27z" transform="translate(-13.298 6.299)"/><path d="m17.956 34.95c2.5 1.446 3.68 4.1 2.626 5.923s-3.94 2.134-6.443.689-5.27-7.447-5.27-7.447 6.582-.615 9.087.835z" transform="translate(-3.542 -3.576)"/><path d="m8.288 60.689c2.891 0 5.235 1.709 5.235 3.817s-2.343 3.817-5.235 3.817-8.288-3.817-8.288-3.817 5.4-3.817 8.288-3.817z" transform="translate(0 -14.242)"/><path d="m14.536 86.778c2.5-1.446 5.388-1.137 6.442.688s-.12 4.478-2.625 5.923-9.087.841-9.087.841 2.766-6.006 5.27-7.452z" transform="translate(-3.701 -24.299)"/><path d="m92.7 17.956c-1.446 2.5-4.1 3.679-5.924 2.625s-2.134-3.938-.688-6.442 7.453-5.27 7.453-5.27.603 6.582-.841 9.087z" transform="translate(-34.022 6.458)"/></g><g fill="#ff9800"><rect height="4.29" rx=".499" width="2.784" x="119.853" y="42.765"/><path d="m201.065 63.574c-4.488-1.286-9.321-2.32-13.892-3.246v-6.684a.3.3 0 0 0 -.3-.3h-3.565a.3.3 0 0 0 -.3.3v21.541a.3.3 0 0 0 .3.3h3.565a.3.3 0 0 0 .3-.3v-10.778c4.5.942 9.234 2.094 13.73 3.335a.332.332 0 0 0 .08.01.3.3 0 0 0 .3-.3v-3.59a.3.3 0 0 0 -.218-.288z" transform="translate(-73.101 -11.308)"/><rect height="4.29" rx=".499" width="2.833" x="123.615" y="42.765"/><path d="m223.194 69.012a.3.3 0 0 0 .068-.24 67.893 67.893 0 0 0 -2.044-8.91.3.3 0 0 0 -.285-.208h-3.214a.3.3 0 0 0 -.24.12.3.3 0 0 0 -.046.265 68.016 68.016 0 0 1 1.948 8.818.3.3 0 0 0 .3.258h3.289a.3.3 0 0 0 .225-.1z" transform="translate(-86.846 -13.828)"/><path d="m229.94 68.5a.3.3 0 0 0 .3.261h3.34a.3.3 0 0 0 .3-.347 66.606 66.606 0 0 0 -1.97-8.882.3.3 0 0 0 -.285-.207h-3.239a.3.3 0 0 0 -.288.382 67.434 67.434 0 0 1 1.842 8.793z" transform="translate(-91.105 -13.696)"/><path d="m239.35 59.491h-3.49a.3.3 0 0 0 -.3.3v.324c-.053 8.626-3.034 12.6-10.63 14.17a.3.3 0 0 0 -.24.294v3.087a.3.3 0 0 0 .3.3.316.316 0 0 0 .047 0c9.822-1.567 14.466-7.228 14.613-17.82v-.352a.3.3 0 0 0 -.3-.303z" transform="translate(-89.751 -13.763)"/><path d="m276.318 63.574c-4.488-1.286-9.322-2.32-13.893-3.246v-6.684a.3.3 0 0 0 -.3-.3h-3.565a.3.3 0 0 0 -.3.3v21.541a.3.3 0 0 0 .3.3h3.567a.3.3 0 0 0 .3-.3v-10.778c4.5.943 9.236 2.094 13.731 3.335a.324.324 0 0 0 .08.01.3.3 0 0 0 .3-.3v-3.59a.3.3 0 0 0 -.22-.288z" transform="translate(-103.16 -11.308)"/><path d="m312.267 55.937h-18.73a.3.3 0 0 0 -.3.3v3.238a.3.3 0 0 0 .3.3h14.789v11.8h-14.813a.3.3 0 0 0 -.3.3v3.213a.3.3 0 0 0 .3.3l18.755.026a.3.3 0 0 0 .3-.3v-18.877a.3.3 0 0 0 -.301-.3z" transform="translate(-117.122 -12.344)"/><path d="m351.351 74.917a76.752 76.752 0 0 0 -5.851-13.611.3.3 0 0 0 -.262-.156h-3.766a.3.3 0 0 0 -.265.44 79.907 79.907 0 0 1 4.616 9.9h-12.423a112.235 112.235 0 0 0 6.129-16.769.3.3 0 0 0 -.289-.38h-3.716a.3.3 0 0 0 -.29.225 103.307 103.307 0 0 1 -6.329 17.287.3.3 0 0 0 -.032.136v2.988a.3.3 0 0 0 .3.3l21.893.025a.3.3 0 0 0 .285-.389z" transform="translate(-131.367 -11.708)"/><path d="m73.3 55.511h-7.517v-5.276h4.949a.306.306 0 0 0 .255-.476l-3.835-5.771a.309.309 0 0 0 -.256-.137h-5.928a.307.307 0 0 0 -.255.477l2.182 3.283h-13.453l5.946-7.095a.307.307 0 0 0 -.235-.5h-6.28a.307.307 0 0 0 -.235.11l-8.056 9.609a.176.176 0 0 0 -.014.022.3.3 0 0 0 -.032.057.571.571 0 0 0 -.02.089.24.24 0 0 0 0 .036.369.369 0 0 0 .004.061v.018c0 .006.007.011.009.019s0 .017.008.026.011.016.017.026a.275.275 0 0 0 .02.031.3.3 0 0 0 .039.04.24.24 0 0 0 .027.023.262.262 0 0 0 .055.028l.027.013a.324.324 0 0 0 .093.015h7.385v1.561c0 1.179-.06 2.335-.194 3.715h-7.19a.306.306 0 0 0 -.307.306v2.011a.306.306 0 0 0 .307.306h6.855c-.754 4.7-2.619 7.3-7.009 9.832a.307.307 0 0 0 -.132.378l.7 1.788a.308.308 0 0 0 .286.2.3.3 0 0 0 .091-.014 20.118 20.118 0 0 0 8.755-5.1c1.7-1.892 2.423-3.636 2.912-7.08h7.012v11.6a.307.307 0 0 0 .307.307h4.883a.306.306 0 0 0 .306-.307v-11.6h7.518a.306.306 0 0 0 .306-.306v-2.019a.306.306 0 0 0 -.306-.306zm-19.57-3.711v-1.566h6.557v5.275h-6.718a36.275 36.275 0 0 0 .161-3.709z" transform="translate(-16.181 -5.983)"/><path d="m160.782 60.824h-9.74v-7.546a.236.236 0 0 0 -.237-.236h-4.113a.236.236 0 0 0 -.237.236v7.546h-9.321a.237.237 0 0 0 -.237.24v1.676a.236.236 0 0 0 .237.236h9.321v10.27h-7.443a.237.237 0 0 0 -.228.172l-.474 1.675a.237.237 0 0 0 .228.3h20.839a.24.24 0 0 0 .237-.237v-1.675a.24.24 0 0 0 -.237-.237h-8.336v-10.27h9.74a.24.24 0 0 0 .237-.236v-1.674a.24.24 0 0 0 -.237-.24z" transform="translate(-54.683 -11.187)"/><path d="m97.909 53.944h6.846a.237.237 0 0 1 .237.237v1.676a.237.237 0 0 1 -.237.237h-6.846a.237.237 0 0 1 -.237-.237v-1.676a.237.237 0 0 1 .237-.237z" transform="translate(-39.014 -11.548)"/><path d="m97.91 71.375h6.846a.237.237 0 0 1 .237.237v1.675a.237.237 0 0 1 -.237.237h-6.846a.237.237 0 0 1 -.237-.237v-1.675a.237.237 0 0 1 .237-.237z" transform="translate(-39.015 -18.51)"/><path d="m105 84.9v-7.217a.237.237 0 0 0 -.237-.237h-6.851a.24.24 0 0 0 -.237.237v7.217a.24.24 0 0 0 .237.237h6.846a.237.237 0 0 0 .242-.237zm-3.063-5.429v3.64h-1.2v-3.64z" transform="translate(-39.016 -20.935)"/><path d="m110.793 55.273h15.027a.237.237 0 0 0 .237-.237v-1.55a.237.237 0 0 0 -.237-.236h-3.138v-1.35a.237.237 0 0 0 -.24-.236h-2.928a.237.237 0 0 0 -.237.236v1.348h-2.162v-1.348a.237.237 0 0 0 -.237-.236h-2.734a.236.236 0 0 0 -.236.236v1.348h-3.114a.237.237 0 0 0 -.237.236v1.554a.237.237 0 0 0 .237.237z" transform="translate(-44.161 -10.636)"/><path d="m104.182 62.333-.259.32a.235.235 0 0 0 -.028.047h-6.626a.24.24 0 0 0 -.237.236v1.676a.24.24 0 0 0 .237.24h6.846a.237.237 0 0 0 .237-.24v-1.573h1.548v5.872a.237.237 0 0 0 .237.236h13.647a.237.237 0 0 0 .237-.236v-1.4a.24.24 0 0 0 -.237-.237h-5.232v-.684h4.148a.24.24 0 0 0 .24-.237v-1.4a.24.24 0 0 0 -.24-.237h-4.147v-.686h4.147a.24.24 0 0 0 .24-.24v-1.4a.237.237 0 0 0 -.24-.237h-4.147v-.661h5.034a.237.237 0 0 0 .237-.237v-1.4a.236.236 0 0 0 -.237-.237h-4.93c.23-.2.476-.441.838-.8a.237.237 0 0 0 -.168-.4h-3.327a.236.236 0 0 0 -.232.192c-.066.338-.134.641-.223 1.016h-2.139l.637-.826a.237.237 0 0 0 -.187-.381h-3.421a.24.24 0 0 0 -.219.146 24.369 24.369 0 0 1 -1.173 2.4v-1.505a.24.24 0 0 0 -.24-.237h-8.495a.24.24 0 0 0 -.24.237v1.675a.24.24 0 0 0 .24.237h8.492c-.217.372-.43.703-.618.961zm7.361 4.253v.684h-2.506v-.684zm0-2.562v.683h-2.506v-.683zm-2.506-1.877v-.661h2.506v.661z" transform="translate(-38.374 -13.328)"/><path d="m121.742 85.1a.234.234 0 0 0 .128.038h4.574a.237.237 0 0 0 .129-.436l-4.444-2.858.08-.05a13.277 13.277 0 0 0 3.929-3.981.24.24 0 0 0 -.2-.366h-14.085a.24.24 0 0 0 -.237.237v1.552a.24.24 0 0 0 .237.237h8.4a11.243 11.243 0 0 1 -1.791 1.231c-.533.294-1.16.628-2.119 1.073a20.768 20.768 0 0 1 -5.092 1.532.235.235 0 0 0 -.2.288l.32 1.355a.24.24 0 0 0 .231.18h.018a25.816 25.816 0 0 0 7.066-1.514q.229-.092.454-.189z" transform="translate(-44.358 -20.935)"/></g><path d="m357.877 54.338a3 3 0 1 1 2.123-.876 3 3 0 0 1 -2.123.876zm.008-5.649a2.653 2.653 0 1 0 2.652 2.652 2.653 2.653 0 0 0 -2.652-2.652zm1.115 4.491-.89-1.554h-.932v1.556h-.47v-3.738h1.36a1.067 1.067 0 0 1 1.208 1.058 1.035 1.035 0 0 1 -.671 1.049l.931 1.629zm-.982-3.291h-.841v1.311h.848c.42 0 .755-.184.755-.688 0-.413-.369-.623-.765-.623z" fill="#4d4d4d" transform="translate(-141.757 -9.311)"/><path d="m0 0h220v80h-220z" fill="none"/></svg>