<?xml version="1.0" encoding="utf-8"?>
<!-- Generator: Adobe Illustrator 23.0.3, SVG Export Plug-In . SVG Version: 6.00 Build 0)  -->
<svg version="1.1" id="レイヤー_1" xmlns="http://www.w3.org/2000/svg" xmlns:xlink="http://www.w3.org/1999/xlink" x="0px"
	 y="0px" viewBox="0 0 220 60" style="enable-background:new 0 0 220 60;" xml:space="preserve">
<style type="text/css">
	.st0{fill:#2F2725;}
	.st1{fill:none;}
</style>
<title>アートボード 2</title>
<path class="st0" d="M214.3,12.1h-24.7c-0.2,0-0.4,0.2-0.4,0.4l0,0c0,0-0.8,5.3-0.8,5.4c0,0.2,0.2,0.4,0.4,0.4l0,0h8.6
	c0.2,0,0.4,0.2,0.4,0.4l0,0l0,0l-4.1,28.7c0,0.2,0.2,0.4,0.4,0.4l0,0h5.5c0.2,0,0.4-0.2,0.4-0.4l4.1-28.8c0-0.2,0.2-0.3,0.4-0.3h8.8
	c0.2,0,0.4-0.2,0.4-0.4l0,0l0.8-5.4C214.7,12.3,214.5,12.1,214.3,12.1L214.3,12.1z"/>
<path class="st0" d="M34.1,22.8c0.2-5-2.6-11.1-11.2-11.1c-7.2-0.1-13.5,5.2-14.5,12.4L6.8,35.9c-0.7,5.2,1.7,12.4,11.1,12.4
	c6.7,0.2,12.7-4.5,14.3-11c0.1-0.2-0.1-0.5-0.3-0.5h-0.1h-5.6c-0.2,0-0.3,0.1-0.4,0.3c-0.9,3-3.8,5.1-6.8,4.9
	c-5.2,0-5.6-5.2-5.4-6.8l1.4-10.2c0.2-1.7,1.4-6.8,7.3-6.8c3.7,0,5,2.7,5.4,4.8c0,0.2,0.2,0.3,0.4,0.3h5.8
	C33.9,23.2,34.1,23,34.1,22.8L34.1,22.8z"/>
<path class="st0" d="M97.6,12.6c0-0.2-0.2-0.4-0.4-0.4l0,0h-5.5c-0.2,0-0.4,0.2-0.4,0.4l0,0l-3.4,23.6l-8.5-23.8l0,0
	c-0.1-0.2-0.2-0.3-0.4-0.3h-6.5c-0.2,0-0.4,0.2-0.4,0.4s-4.9,35-4.9,35c0,0.2,0.2,0.4,0.4,0.4l0,0h5.4c0.2,0,0.4-0.1,0.4-0.4l0,0
	l3.5-24.4l8.8,24.6c0.1,0.2,0.2,0.3,0.4,0.3l0,0h6.1c0.2,0,0.4-0.2,0.4-0.4L97.6,12.6L97.6,12.6z"/>
<path class="st0" d="M184,12.6c0-0.2-0.2-0.4-0.4-0.4l0,0h-5.5c-0.2,0-0.4,0.2-0.4,0.4l0,0l-3.3,23.6l-8.5-23.8l0,0
	c-0.1-0.2-0.2-0.3-0.4-0.3H159c-0.2,0-0.4,0.2-0.4,0.4s-4.9,35-4.9,35c0,0.2,0.2,0.4,0.4,0.4l0,0h5.5c0.2,0,0.4-0.2,0.4-0.4l0,0
	l3.5-24.5l8.8,24.6c0.1,0.2,0.2,0.3,0.4,0.3l0,0h6.1c0.2,0,0.4-0.2,0.4-0.4C179.2,47.1,184,12.6,184,12.6L184,12.6z"/>
<path class="st0" d="M53.6,11.7c-7.3-0.1-13.6,5.2-14.6,12.4L38.3,30l0,0l-0.9,5.9c-0.7,5.2,1.7,12.4,11.1,12.4
	c7.2,0.2,13.5-5.2,14.6-12.4l0.8-5.9l0,0l0.8-5.9C65.3,18.9,63,11.7,53.6,11.7z M57.4,30l-0.7,5.2c-0.2,1.7-1.4,6.8-7.3,6.8
	c-5.2,0-5.6-5.2-5.4-6.8l0.7-5.2l0,0l0.7-5.2c0.2-1.7,1.4-6.8,7.3-6.8c5.2,0,5.6,5.2,5.4,6.8L57.4,30z"/>
<path class="st0" d="M152.3,12.1h-17.9c-0.2,0-0.4,0.2-0.4,0.4l0,0l-4.9,35c0,0.2,0.2,0.4,0.4,0.4l0,0h17.8c0.2,0,0.4-0.2,0.4-0.4
	c0-0.3,0.8-5.3,0.8-5.4c0-0.2-0.2-0.4-0.4-0.4l0,0h-11.4c-0.2,0-0.4-0.2-0.4-0.4l0,0l1.1-7.8l0,0c0-0.2,0.2-0.4,0.4-0.4H148
	c0.2,0,0.4-0.2,0.4-0.4l0.8-5.4c0-0.2-0.2-0.4-0.4-0.4l0,0h-9.8c-0.2,0-0.4-0.2-0.4-0.4l0,0l1.1-7.7l0,0c0-0.2,0.2-0.4,0.4-0.4h11.6
	c0.2,0,0.4-0.2,0.4-0.4c0-0.3,0.7-5.2,0.8-5.4C152.7,12.3,152.5,12.1,152.3,12.1z"/>
<path class="st0" d="M127.5,22.8c0.2-5-2.6-11.1-11.2-11.1c-7.2-0.1-13.5,5.2-14.6,12.4L100,35.9c-0.7,5.2,1.7,12.4,11.1,12.4
	c6.7,0.2,12.7-4.5,14.3-11c0.1-0.2-0.1-0.5-0.3-0.5H125h-5.6c-0.2,0-0.3,0.1-0.4,0.3c-0.9,3-3.8,5.1-6.8,4.9c-5.2,0-5.6-5.2-5.4-6.8
	l1.4-10.2c0.2-1.7,1.4-6.8,7.3-6.8c3.7,0,5,2.7,5.4,4.8c0,0.2,0.2,0.3,0.4,0.3h5.8C127.3,23.2,127.5,23,127.5,22.8L127.5,22.8z"/>
<rect y="0" class="st1" width="220" height="60"/>
</svg>
