<svg height="60" viewBox="0 0 152 60" width="152" xmlns="http://www.w3.org/2000/svg"><path d="m0 0h152v60h-152z" fill="none"/><path d="m181.344 5.946a12.056 12.056 0 0 1 -.3 3.369 9.079 9.079 0 0 1 -1.869 3.809 7.214 7.214 0 0 1 -1.27 1.164 5.581 5.581 0 0 1 -.988.582 5.8 5.8 0 0 1 -1.217.406 13.02 13.02 0 0 1 -2.469.353 10.613 10.613 0 0 1 -2.981-.265 6.107 6.107 0 0 1 -1.235-.459 5.087 5.087 0 0 1 -.67-.388 4.747 4.747 0 0 1 -.723-.582 4.3 4.3 0 0 1 -.952-1.358 5.609 5.609 0 0 1 -.476-2.4 9.182 9.182 0 0 1 .247-1.834 10.107 10.107 0 0 1 .9-2.434 10.1 10.1 0 0 1 2.575-3.21 11.6 11.6 0 0 1 2.91-1.746 16.241 16.241 0 0 1 6.543-1.041 28.5 28.5 0 0 0 -5.291 3.227 13.452 13.452 0 0 0 -3.7 4.339 6.9 6.9 0 0 0 -.6 1.693 3.235 3.235 0 0 0 .018 1.975 1.469 1.469 0 0 0 .459.529 2.876 2.876 0 0 0 .864.353 8.713 8.713 0 0 0 3.774-.088 3.18 3.18 0 0 0 1.728-1.076 8.893 8.893 0 0 0 1.411-2.487 20.232 20.232 0 0 0 .829-2.663c.229-.9.406-1.817.547-2.734a7.732 7.732 0 0 0 -.018-3.051 7.234 7.234 0 0 1 1.446 2.928 12.981 12.981 0 0 1 .508 3.089z" fill="#231815" transform="translate(-84.882 .104)"/><path d="m195.442.1a8.077 8.077 0 0 1 .018 3.051 24.174 24.174 0 0 1 -.547 2.734 20.225 20.225 0 0 1 -.829 2.663 8.893 8.893 0 0 1 -1.411 2.487 3.18 3.18 0 0 1 -1.728 1.076 8.449 8.449 0 0 1 -3.774.088 3.3 3.3 0 0 1 -.864-.353 1.469 1.469 0 0 1 -.459-.529 3.235 3.235 0 0 1 -.018-1.975 8.416 8.416 0 0 1 .6-1.693 13.452 13.452 0 0 1 3.7-4.339 29.533 29.533 0 0 1 5.312-3.21z" fill="#fff" transform="translate(-100.938 -.064)"/><path d="m34.588 10.238a5.129 5.129 0 0 1 -.476 2.4 4.705 4.705 0 0 1 -1.675 1.94 4.156 4.156 0 0 1 -.67.388 7.2 7.2 0 0 1 -1.217.459 11.235 11.235 0 0 1 -2.981.247 13.2 13.2 0 0 1 -2.487-.353 8.951 8.951 0 0 1 -1.217-.406 8.041 8.041 0 0 1 -.988-.582 6.644 6.644 0 0 1 -1.27-1.164 9.183 9.183 0 0 1 -1.869-3.809 12.756 12.756 0 0 1 -.3-3.369 14.109 14.109 0 0 1 .511-3.089 7.714 7.714 0 0 1 1.451-2.927 8.078 8.078 0 0 0 -.018 3.051c.141.917.317 1.834.547 2.734a24.361 24.361 0 0 0 .86 2.642 8.893 8.893 0 0 0 1.411 2.49 3.18 3.18 0 0 0 1.728 1.076 8.457 8.457 0 0 0 3.774.088 2.97 2.97 0 0 0 .847-.353 1.469 1.469 0 0 0 .459-.529 3.123 3.123 0 0 0 0-1.975 7.455 7.455 0 0 0 -.6-1.693 13.671 13.671 0 0 0 -3.7-4.339 28.97 28.97 0 0 0 -5.295-3.227 16.411 16.411 0 0 1 6.543 1.041 10.823 10.823 0 0 1 2.91 1.746 10.1 10.1 0 0 1 2.575 3.21 11.855 11.855 0 0 1 .9 2.434 8.64 8.64 0 0 1 .247 1.869z" fill="#231815" transform="translate(36.001 .08)"/><path d="m39.646 9.342a3.252 3.252 0 0 1 0 1.975 1.337 1.337 0 0 1 -.459.529 2.97 2.97 0 0 1 -.847.353 8.7 8.7 0 0 1 -3.774-.088 3.18 3.18 0 0 1 -1.728-1.076 8.893 8.893 0 0 1 -1.411-2.487 21.289 21.289 0 0 1 -.864-2.663c-.229-.9-.406-1.817-.547-2.734a8.476 8.476 0 0 1 .036-3.051 28.97 28.97 0 0 1 5.291 3.227 13.452 13.452 0 0 1 3.7 4.339 7.9 7.9 0 0 1 .603 1.676z" fill="#fff" transform="translate(27.38 -.064)"/><path d="m56.477 47.849c.635-1.235 2.169-8.977-3.421-14.9a8.533 8.533 0 0 0 -8.148-7.478c-.176 0-.353 0-.529.018a10.27 10.27 0 0 0 -16.367.159 7.457 7.457 0 0 0 -1.658-.176 8.551 8.551 0 0 0 -8.166 7.5c-3.721 2.963-5.026 12.451-3.58 14.9h41.869z" fill="#fff" transform="translate(40.443 -17.69)"/><path d="m56.56 37.571a16.081 16.081 0 0 0 -1.869-4.515 14.54 14.54 0 0 0 -1.27-1.869 9.011 9.011 0 0 0 -.794-.847l-.212-.194-.106-.088-.053-.053-.141-.088-.582-.423c-.141-.053-.123-.212-.159-.335l-.071-.406-.071-.353-.035-.194a3.431 3.431 0 0 0 -.088-.353c-.088-.282-.176-.547-.282-.811a7.92 7.92 0 0 0 -1.111-1.9 7.609 7.609 0 0 0 -2.451-2.046 6.648 6.648 0 0 0 -1.623-.6 6.794 6.794 0 0 0 -.864-.141l-.353-.018-.511-.018h-.264c-.035 0-.088.018-.123-.018l-.088-.106-.335-.441-.282-.37-.141-.159-.282-.3c-.194-.194-.388-.37-.6-.547a8.072 8.072 0 0 0 -1.305-.882 9.153 9.153 0 0 0 -2.575-.988 10.081 10.081 0 0 0 -2.61-.247 8.8 8.8 0 0 0 -5.167 1.975 7.941 7.941 0 0 0 -1.148 1.164c-.194.229-.388.529-.582.794l-.282.423c-.018.053-.053.053-.088.035l-.123-.018-.229-.053a12.078 12.078 0 0 0 -1.393-.229 6.456 6.456 0 0 0 -4.568 1.534 7.857 7.857 0 0 0 -1.958 2.54 9.624 9.624 0 0 0 -.459 1.182c-.053.176-.106.353-.141.494l-.053.229-.088.441-.071.406c-.035.123-.018.282-.159.335l-.582.423-.141.106-.053.053-.106.088c-.071.071-.141.123-.212.194a7.008 7.008 0 0 0 -.776.847 13.411 13.411 0 0 0 -1.27 1.869 16.253 16.253 0 0 0 -1.852 4.515 11.715 11.715 0 0 1 .071-5.361 9.64 9.64 0 0 1 1.094-2.647 10.012 10.012 0 0 1 .97-1.305c.088-.106.194-.212.3-.317l.265-.247.035-.035c0-.018-.018.035 0-.035l.071-.3a6.976 6.976 0 0 1 .194-.688 14.044 14.044 0 0 1 .635-1.623 10.4 10.4 0 0 1 2.681-3.492 8.865 8.865 0 0 1 6.367-2.152 5.191 5.191 0 0 1 .529.053c.018 0 0 .018.018-.018a9.935 9.935 0 0 1 1.552-1.552 11.548 11.548 0 0 1 9.947-2.257 12.749 12.749 0 0 1 3.245 1.252 11.09 11.09 0 0 1 1.693 1.164 10.61 10.61 0 0 1 .811.741c.123.123.265.265.388.406l.194.229.176.018a8.689 8.689 0 0 1 1.182.194 9.122 9.122 0 0 1 2.222.829 10.413 10.413 0 0 1 3.333 2.8 11.094 11.094 0 0 1 1.519 2.635c.141.37.282.758.388 1.146.035.176.088.335.123.494l.035.194c.018.018-.018 0 .035.035l.265.247c.106.106.212.212.3.317a8.632 8.632 0 0 1 .97 1.305 9.64 9.64 0 0 1 1.093 2.645 11.639 11.639 0 0 1 .053 5.291" transform="translate(40.854 -12.597)"/><path d="m13.1 170.9a56.118 56.118 0 0 0 12.063 10.229l-3.351 4.971h26.032l-3.351-4.974a50.627 50.627 0 0 0 11.94-10.226z" transform="translate(41.21 -140.741)"/><path d="m0 153.6a24.319 24.319 0 0 0 2.31 3.051h43.333c.829-.97 1.64-1.958 2.434-3.051z" fill="#c5271e" transform="translate(52 -126.492)"/><g fill="#231815"><path d="m24.3 283.688c3.457-2.4 4.709-5.115 4.709-5.309a.047.047 0 0 0 -.053-.053c-.141 0-1.728.653-2.081.653-.511 0-1.446-.653-1.446-1.358a.355.355 0 0 1 .053-.194 7.989 7.989 0 0 0 1.305.141 14.613 14.613 0 0 0 2.681-.423 8.139 8.139 0 0 1 1.005-.423c.3 0 1.076.617 1.076.882 0 .106-.035.123-.335.37a3.61 3.61 0 0 0 -.653.617c-.106.141-.617 1.235-.723 1.358.441.159.564.37.564.617 0 .123-.106.617-.123.741-.018.194-.035.388-.035.582 0 .476.106 2.839.106 3.016 0 .335-.071.917-.529.917-.547 0-1.005-.917-1.005-1.376 0-.141.176-1.005.194-1.164a11.106 11.106 0 0 0 .088-1.323 4.085 4.085 0 0 0 -.088-1.041 10.333 10.333 0 0 1 -4.621 2.875zm3.245-9.453a3.724 3.724 0 0 1 .455-.035c.9 0 2.522.459 2.522 1.552a.663.663 0 0 1 -.653.653c-.406 0-.582-.265-1.041-.935a4.813 4.813 0 0 0 -1.305-1.111zm3.122 5.8c2.116.124 3.421 1.464 3.421 2.028a.742.742 0 0 1 -.705.758c-.423 0-.617-.476-1.023-1.041a14.179 14.179 0 0 0 -1.764-1.64z" transform="translate(31.986 -225.822)"/><path d="m93.884 298.99c0 .529-.653.529-.952.529s-1.64-.106-1.922-.106a14.945 14.945 0 0 0 -2.5.3c-.159.018-.794.229-.935.229a1.92 1.92 0 0 1 -1.27-1.5.723.723 0 0 1 .018-.194 6.156 6.156 0 0 0 1.393.176c.829 0 2.152-.176 3.809-.317.141-.776.37-3.192.37-3.686 0-.141-.053-.159-.141-.159a31.558 31.558 0 0 0 -3.21.617 6.457 6.457 0 0 1 -.776.229c-.212 0-1.534-.864-1.411-1.693a17.328 17.328 0 0 0 1.922.106 13.575 13.575 0 0 0 3.474-.423c.423-.265.494-.3.617-.3.317 0 1.693.917 1.693 1.376 0 .176-.088.247-.3.459a1.725 1.725 0 0 0 -.547 1.005c-.123.459-.406 2.152-.494 2.469.403.093 1.162.337 1.162.883z" transform="translate(-19.08 -241.142)"/><path d="m134.7 292.559a20.251 20.251 0 0 0 4.533-4.85 13.605 13.605 0 0 0 -2.011-1.6l.053-.123a8.716 8.716 0 0 1 2.487.794 11.522 11.522 0 0 0 1.287-3 1.35 1.35 0 0 0 -.194-.688.6.6 0 0 1 .3-.088 2 2 0 0 1 1.728 1.6c0 .176-.071.212-.3.388a1.844 1.844 0 0 0 -.547.617c-.494.864-1.111 1.94-1.111 1.94.388.317 1.517 1.252 1.517 2.257a.689.689 0 0 1 -.635.741h-.088c-.511 0-.776-.441-.988-.794a10.79 10.79 0 0 0 -.6-.952 16.835 16.835 0 0 1 -5.379 3.862z" transform="translate(-58.944 -233.07)"/><path d="m192.653 287.745a3.1 3.1 0 0 1 .97-.159c1.023 0 1.746.582 1.746 1.305a.726.726 0 0 1 -.617.794c-.229 0-.317-.106-.653-.564a4.668 4.668 0 0 0 -1.5-1.252zm9.771-1.693c-1.287 3.316-5.714 6.49-6.755 7.249a4.491 4.491 0 0 0 -.529.459c-.176.159-.247.194-.388.194-.212 0-.388-.071-.97-1.041a1.783 1.783 0 0 1 -.353-.935.344.344 0 0 1 .018-.141 4.3 4.3 0 0 0 .935.247 10.69 10.69 0 0 0 3-1.6 28.256 28.256 0 0 0 4.938-4.462zm-8.342-.723a3.152 3.152 0 0 1 1.2-.229c1.093 0 1.711.582 1.711 1.27a.677.677 0 0 1 -.529.741c-.194 0-.265-.071-.847-.723a3.8 3.8 0 0 0 -1.517-.935v-.123z" transform="translate(-106.632 -234.8)"/></g></svg>