<svg xmlns="http://www.w3.org/2000/svg" width="164" height="36" viewBox="0 0 164 36">
  <g fill="none" fill-rule="evenodd">
    <path fill="#181616" d="M59.54745,18.00195 L54.00045,18.00195 L54.00045,12.00045 L59.44545,12.00045 C62.06295,12.00045 63.66345,12.65445 63.66345,15.00045 L63.69495,15.00045 C63.69495,17.04045 62.16495,18.00195 59.54745,18.00195 M59.88795,6.00045 L48.00045,6.00045 L48.00045,30.00045 L54.00045,30.00045 L54.00045,24.00045 L59.37795,24.00045 C64.71495,24.00045 68.99895,20.50845 68.99895,15.00045 C68.99895,10.13745 65.56545,6.00045 59.88795,6.00045"/>
    <polygon fill="#181616" points="81 6 75 6 75 30 90 30 90 24 81 24"/>
    <path fill="#181616" d="M150.78195,24 L147.00045,24 L147.00045,12 L150.78195,12 C155.06595,12 157.95645,13.7835 157.95645,18 C157.95645,22.2165 155.06595,24 150.78195,24 M150.78195,6 L141.00045,6 L141.00045,30 L150.78195,30 C158.26245,30 163.50045,24.6975 163.50045,18 C163.50045,11.3025 158.26245,6 150.78195,6"/>
    <polygon fill="#181616" points="126 30 132 30 132 6 126 6"/>
    <path fill="#181616" d="M105.375,21 L108,13.9995 L110.625,21 L105.375,21 Z M114,30 L120,30 L111,6 L105,6 L96,30 L102,30 L103.125,27 L112.875,27 L114,30 Z"/>
    <polygon fill="#BF0023" points="32 12 20 0 0 20 12 32" opacity=".8" style="mix-blend-mode:multiply"/>
    <polygon fill="#BF0023" points="16 12 8.001 4 0 12 16 28 24 20" opacity=".8" style="mix-blend-mode:multiply"/>
    <polygon fill="#BF0023" points="16 20 8.001 12 0 20 16 36 24 27.999" opacity=".8" style="mix-blend-mode:multiply"/>
    <path fill="#BF0023" d="M31.99995,12 C26.96445,9.4815 21.03645,9.315 15.99945,11.8335 C10.96395,14.352 5.03595,14.5185 0.00045,12 L0.00045,19.9995 L15.99945,36 L24.00045,28.0005 L31.99995,12 Z" opacity=".8" style="mix-blend-mode:multiply"/>
  </g>
</svg>
