<?xml version="1.0" encoding="UTF-8"?>
<svg width="190px" height="38px" viewBox="0 0 190 38" version="1.1" xmlns="http://www.w3.org/2000/svg" xmlns:xlink="http://www.w3.org/1999/xlink">
    <!-- Generator: Sketch 55.1 (78136) - https://sketchapp.com -->
    <title>Akari, Inc</title>
    <g id="Page" stroke="none" stroke-width="1" fill="none" fill-rule="evenodd">
        <g id="SP" transform="translate(-93.000000, -3671.000000)" fill="#323333">
            <path d="M207.4277,3708.8598 C208.4407,3708.1158 209.1927,3706.7498 209.1927,3706.0018 C209.1927,3705.8518 209.1537,3705.4738 208.8527,3705.3658 C207.8777,3704.9168 207.2417,3704.3888 207.2417,3703.2308 C207.2417,3702.0318 208.2147,3701.0538 209.3757,3701.0538 C210.6157,3701.0538 211.5907,3702.0318 211.5907,3703.1888 C211.5907,3707.1118 207.4277,3708.8598 207.4277,3708.8598 L207.4277,3708.8598 Z M102.5987,3692.4598 L108.3237,3678.6088 L108.4887,3678.2078 L114.4157,3692.4598 L102.5987,3692.4598 Z M126.8587,3704.4958 C126.8587,3704.4958 124.8997,3704.8128 123.5437,3701.9588 C123.2337,3701.3818 122.8937,3700.6498 122.5107,3699.7648 C122.5107,3699.7648 109.9637,3671.2148 109.8737,3670.9998 C107.2747,3677.1278 99.2167,3696.0948 99.2167,3696.0948 C98.1747,3698.5398 97.3367,3700.3558 96.6977,3701.5278 C95.7487,3703.3958 94.5257,3704.4858 92.9997,3704.4858 L92.9997,3704.8368 L102.4977,3704.8368 L102.4977,3704.4958 C99.6787,3704.4958 98.2997,3703.1398 99.5737,3699.9348 L101.9147,3694.0988 L115.0937,3694.0988 L117.1237,3698.9868 L117.5177,3700.1108 C118.4697,3702.9838 118.3167,3704.4858 114.6137,3704.4858 L114.6217,3704.8368 L126.8657,3704.8368 L126.8587,3704.4958 Z M267.0857,3702.3588 C265.2037,3700.4218 264.2437,3697.7538 264.2437,3694.4128 C264.2437,3691.1398 265.2947,3688.2828 267.3617,3685.9318 C269.4197,3683.5828 272.0597,3682.3928 275.2027,3682.3928 C277.1607,3682.3928 278.8747,3682.9098 280.2877,3683.9238 C281.6907,3684.9238 282.3977,3686.0358 282.3977,3687.2068 C282.3977,3687.6998 282.2247,3688.1628 281.8837,3688.5908 C281.5447,3689.0128 281.0357,3689.2108 280.3127,3689.2108 C279.7867,3689.2108 279.3497,3689.0408 278.9517,3688.6788 C278.5567,3688.3178 278.2647,3687.7768 278.0737,3687.0688 L277.7897,3685.9058 C277.5667,3685.0088 277.1797,3684.3628 276.6347,3683.9848 C276.0727,3683.6218 275.3357,3683.4398 274.4397,3683.4398 C272.5637,3683.4398 270.9567,3684.2778 269.6697,3685.9318 C268.3867,3687.5708 267.7407,3689.7688 267.7407,3692.4678 C267.7407,3694.9418 268.4547,3697.1958 269.8587,3699.1608 C271.2717,3701.1468 273.2087,3702.1518 275.6117,3702.1518 C277.3167,3702.1518 278.8587,3701.5818 280.1757,3700.4598 C280.8987,3699.8408 281.7167,3698.8468 282.6117,3697.5418 C282.7417,3697.6198 282.8697,3697.6978 282.9987,3697.7788 C282.1207,3699.5938 281.1827,3701.0638 280.2177,3702.1348 C278.3237,3704.2188 276.0937,3705.2738 273.6107,3705.2738 C271.1677,3705.2738 268.9727,3704.2928 267.0857,3702.3588 L267.0857,3702.3588 Z M246.3587,3686.3448 C247.8177,3685.0108 248.9677,3684.0848 249.7937,3683.5938 C251.0177,3682.8448 252.3017,3682.4708 253.6007,3682.4708 C254.6527,3682.4708 255.6237,3682.7698 256.4907,3683.3758 C258.1567,3684.5518 259.0087,3686.7048 259.0087,3689.7598 L259.0087,3701.0128 C259.0087,3702.2218 259.2577,3703.1118 259.7487,3703.6578 C260.2227,3704.1768 261.0057,3704.4458 262.0437,3704.4958 L262.0437,3704.8368 L252.0377,3704.8368 L252.0377,3704.4858 C253.1607,3704.3108 253.9977,3703.9788 254.4617,3703.4778 C254.9747,3702.9418 255.2197,3701.8518 255.2197,3700.1288 L255.2197,3689.7768 C255.2197,3688.3638 254.9517,3687.1768 254.4287,3686.2378 C253.8887,3685.2668 252.8857,3684.7738 251.4487,3684.7738 C250.4697,3684.7738 249.4767,3685.1098 248.4717,3685.7788 C247.9177,3686.1518 247.1937,3686.7828 246.3327,3687.6368 L246.2817,3687.6928 L246.2817,3701.3818 C246.2817,3702.6078 246.5567,3703.4148 247.1157,3703.8478 C247.6287,3704.2438 248.4167,3704.4458 249.4667,3704.4958 L249.4667,3704.8368 L239.3837,3704.8368 L239.3837,3704.4858 C240.4597,3704.3298 241.2267,3704.0568 241.6827,3703.6198 C242.1777,3703.1538 242.4147,3702.1838 242.4147,3700.6448 L242.4147,3688.3558 C242.4147,3687.2788 242.3207,3686.5368 242.1087,3686.0828 C241.7747,3685.3958 241.0897,3685.0468 240.0647,3685.0468 L239.6077,3685.0758 C239.6077,3685.0758 239.4007,3685.0988 239.2287,3685.1228 L239.2287,3684.6368 C239.4787,3684.5628 243.7837,3683.2498 243.7837,3683.2498 C243.7837,3683.2498 246.0477,3682.5328 246.0477,3682.5278 L246.0477,3682.5698 C246.0477,3682.6428 246.0667,3682.7978 246.0667,3682.7978 L246.0667,3686.6168 L246.3587,3686.3448 Z M236.9977,3672.4038 L236.9977,3672.9588 C235.0737,3673.0628 233.8047,3673.3708 233.1997,3673.9058 C232.5677,3674.4718 232.2617,3675.6608 232.2617,3677.5488 L232.2617,3699.6778 C232.2617,3701.6688 232.5727,3702.8668 233.2097,3703.3588 C233.8107,3703.8268 235.0737,3704.1258 236.9977,3704.2738 L236.9977,3704.8368 L222.8427,3704.8368 L222.8427,3704.2738 C224.7677,3704.1258 226.0357,3703.8268 226.6287,3703.3588 C227.2717,3702.8668 227.5857,3701.6688 227.5857,3699.6778 L227.5857,3677.5488 C227.5857,3675.6608 227.2717,3674.4718 226.6387,3673.9058 C226.0397,3673.3708 224.7747,3673.0628 222.8427,3672.9588 L222.8427,3672.4038 L236.9977,3672.4038 Z M195.5577,3675.7148 C195.0307,3675.1738 194.7697,3674.5498 194.7697,3673.7918 C194.7697,3673.0448 195.0367,3672.3928 195.5577,3671.8518 C196.0847,3671.3168 196.7367,3671.0468 197.5027,3671.0468 C198.2657,3671.0468 198.8967,3671.3058 199.4357,3671.8388 C199.9737,3672.3848 200.2337,3673.0188 200.2337,3673.7918 C200.2337,3674.5498 199.9737,3675.1738 199.4357,3675.7148 C198.8967,3676.2548 198.2657,3676.5108 197.5027,3676.5108 C196.7247,3676.5108 196.0897,3676.2548 195.5577,3675.7148 L195.5577,3675.7148 Z M193.1977,3684.7978 C196.0017,3683.9238 197.9927,3683.2498 199.0967,3682.8038 C199.0967,3682.8038 199.5207,3682.6638 199.7557,3682.5908 C199.7617,3682.6578 199.7697,3682.7238 199.7697,3682.7238 L199.7697,3700.0028 C199.7697,3701.8988 200.0047,3703.0688 200.4857,3703.5728 C200.9507,3704.0588 201.9487,3704.3528 203.4737,3704.4958 L203.4737,3704.8368 L192.0607,3704.8368 L192.0607,3704.4958 C193.7197,3704.3238 194.7857,3704.0288 195.2507,3703.5888 C195.7407,3703.1228 195.9787,3701.9348 195.9787,3699.9748 L195.9787,3688.3558 C195.9787,3687.2788 195.9067,3686.5478 195.7547,3686.1188 C195.4877,3685.3758 194.9197,3685.0088 194.0727,3685.0088 L193.5207,3685.0578 C193.5207,3685.0578 192.5997,3685.2988 192.2777,3685.3878 L192.2777,3685.0858 C192.4727,3685.0278 193.1977,3684.7978 193.1977,3684.7978 L193.1977,3684.7978 Z M176.5187,3684.6548 L177.8057,3684.2098 L179.8337,3683.4858 L182.3507,3682.4508 C182.3137,3682.4618 182.3457,3682.9508 182.3457,3682.9508 L182.3457,3687.5598 L182.6697,3687.0858 C183.6567,3685.6608 184.6237,3684.5258 185.5427,3683.7188 C186.4407,3682.9398 187.3727,3682.5428 188.3287,3682.5428 C189.0867,3682.5428 189.6817,3682.7698 190.1587,3683.2408 C190.6277,3683.7098 190.8567,3684.2848 190.8567,3685.0028 C190.8567,3685.6328 190.6767,3686.1668 190.3247,3686.5888 C189.9787,3687.0128 189.5507,3687.2148 189.0217,3687.2148 C188.4847,3687.2148 187.9197,3686.9488 187.3517,3686.4228 C186.7127,3685.8198 186.2067,3685.5248 185.8127,3685.5248 C185.2097,3685.5248 184.5057,3685.9918 183.6567,3686.9438 C182.8367,3687.8838 182.4217,3688.8598 182.4217,3689.8588 L182.4217,3700.6448 C182.4217,3702.0458 182.7577,3703.0368 183.4447,3703.5938 C184.0807,3704.1258 185.1327,3704.3838 186.5667,3704.3728 L186.5667,3704.8368 L174.9257,3704.8368 L174.9257,3704.3418 C176.3607,3704.2138 177.3337,3703.9588 177.8317,3703.5598 C178.3727,3703.1338 178.6277,3702.2718 178.6277,3700.9398 L178.6277,3690.0588 C178.6277,3688.4248 178.4777,3687.2908 178.1627,3686.5828 C177.8387,3685.8288 177.2357,3685.4498 176.3747,3685.4498 L175.7067,3685.5148 C175.7067,3685.5148 175.3277,3685.5748 175.0807,3685.6268 L175.0807,3685.1548 C175.2807,3685.0858 176.5187,3684.6548 176.5187,3684.6548 L176.5187,3684.6548 Z M166.8267,3699.3778 C166.8267,3700.3648 166.3087,3701.1908 165.2787,3701.8178 C164.2817,3702.4328 163.2267,3702.7438 162.1307,3702.7438 C161.3257,3702.7438 160.5817,3702.4998 159.9277,3702.0288 C158.9167,3701.2978 158.4027,3700.1458 158.4027,3698.6028 C158.4027,3696.7138 159.6037,3694.9958 161.9697,3693.5208 C163.1787,3692.7628 164.7357,3692.0638 166.5967,3691.4458 L166.8267,3691.3678 L166.8267,3699.3778 Z M173.1557,3702.6448 L172.1547,3702.8198 C171.4087,3702.8198 170.9127,3702.4728 170.6757,3701.8048 C170.5337,3701.4238 170.4647,3700.7718 170.4647,3699.7978 L170.4647,3690.0718 C170.4647,3687.9838 170.1777,3686.3668 169.5967,3685.2788 C168.5247,3683.3208 166.4367,3682.3178 163.3927,3682.3178 C160.7617,3682.3178 158.7467,3682.9218 157.3847,3684.1238 C156.0367,3685.3208 155.3577,3686.4658 155.3577,3687.5378 C155.3577,3688.0808 155.5347,3688.5678 155.8987,3689.0128 C156.2497,3689.4498 156.7577,3689.6648 157.4337,3689.6648 C157.8687,3689.6648 158.2427,3689.5638 158.5567,3689.3678 C159.0997,3689.0408 159.3667,3688.4728 159.3667,3687.6308 L159.2557,3686.7678 L159.1447,3685.7578 C159.1447,3684.9308 159.5457,3684.2748 160.3447,3683.8028 C161.1027,3683.3678 161.9177,3683.1488 162.7687,3683.1488 C164.5527,3683.1488 165.7497,3683.7228 166.3267,3684.8648 C166.6607,3685.5428 166.8267,3686.6918 166.8267,3688.3778 L166.8267,3690.5518 L166.7147,3690.5948 C162.3187,3692.2548 159.3497,3693.5748 157.8877,3694.5298 C155.6207,3696.0618 154.4647,3697.9908 154.4647,3700.2568 C154.4647,3701.7048 154.9627,3702.9168 155.9327,3703.8568 C156.9107,3704.7998 158.0767,3705.2738 159.4097,3705.2738 C160.6887,3705.2738 162.0637,3704.8498 163.4957,3704.0078 C164.3527,3703.5018 165.3997,3702.7228 166.6067,3701.6778 L166.8827,3701.4448 L166.8977,3701.8048 C166.9487,3702.7228 167.2117,3703.5158 167.6787,3704.1728 C168.1427,3704.8128 168.8717,3705.1238 169.9177,3705.1238 C170.8117,3705.1238 171.7117,3704.8388 172.5747,3704.2618 C173.1577,3703.8808 173.7067,3703.3838 174.1727,3702.8998 L174.1727,3702.0198 C173.7877,3702.2458 173.1557,3702.6448 173.1557,3702.6448 L173.1557,3702.6448 Z M151.0777,3682.9868 L151.0777,3683.3208 C149.3567,3683.4448 147.9177,3683.8068 146.8477,3684.4098 C145.7567,3685.0298 143.6397,3686.8058 140.5597,3689.6998 L139.1737,3690.9488 L143.5607,3696.8688 C145.8297,3699.8478 147.5717,3701.8568 148.7247,3702.8388 C149.8537,3703.7968 151.0677,3704.3298 152.3377,3704.4758 L152.3377,3704.8368 L141.9377,3704.8368 L141.9377,3704.5108 C142.1557,3704.4958 142.6197,3704.4688 142.6197,3704.4688 L143.4297,3704.2788 C143.7137,3704.1488 143.8707,3703.9218 143.8707,3703.6198 L143.7267,3703.0248 L143.3727,3702.4618 C143.3727,3702.4618 135.9427,3692.4308 135.8467,3692.3038 C135.9357,3692.2268 142.5687,3686.2288 142.5687,3686.2288 L143.5757,3685.1628 L143.8557,3684.3928 C143.8557,3683.9358 143.6247,3683.6308 143.1817,3683.5218 C143.1817,3683.5218 141.7717,3683.3578 141.3697,3683.3148 L141.3697,3682.9868 L151.0777,3682.9868 Z M130.2577,3673.1548 L134.5317,3671.9368 L135.7177,3671.5858 C135.7417,3671.5528 135.7607,3671.7448 135.7607,3671.7448 L135.7607,3701.7368 C135.7607,3702.9278 136.2067,3703.7368 137.0897,3704.1388 C137.5647,3704.3658 138.3597,3704.4858 139.4597,3704.5108 L139.4597,3704.8368 L128.1937,3704.8368 L128.1937,3704.4958 C129.6757,3704.3728 130.6717,3704.1258 131.1697,3703.7048 C131.7067,3703.2618 131.9677,3702.3648 131.9677,3700.9568 L131.9677,3676.7348 C131.9677,3675.5338 131.7607,3674.7848 131.3267,3674.4378 C130.9087,3674.1128 130.3167,3673.9458 129.5587,3673.9458 L128.7517,3673.9728 C128.7517,3673.9728 128.4117,3674.0058 128.1937,3674.0268 L128.1937,3673.6928 C128.4277,3673.6288 130.2577,3673.1548 130.2577,3673.1548 L130.2577,3673.1548 Z" id="Fill-1"></path>
        </g>
    </g>
</svg>