<svg height="60" viewBox="0 0 220 60" width="220" xmlns="http://www.w3.org/2000/svg"><path d="m0 0h220v60h-220z" fill="none"/><g fill="#222"><path d="m247.108.482-7.408 18.345-7.5-18.345h-7.426l11.585 25.936-6.1 14.279h6.4l17.335-40.215z" transform="translate(-43.994 11.884)"/><path d="m31.013.029c-3.983 0-6.548 1.437-9.168 4.514a11.5 11.5 0 0 0 -9.339-4.514c-7.406 0-12.506 5.584-12.506 12.988v16.089h6.69v-16.747c0-3.554 2.158-6.235 5.816-6.235a5.867 5.867 0 0 1 6.046 6.235v16.747h6.576v-16.747c0-3.554 2.227-6.235 5.885-6.235a5.92 5.92 0 0 1 6.113 6.235v16.747h6.693v-16.089c0-7.404-5.365-12.988-12.806-12.988z" transform="translate(10 11.993)"/><path d="m123.707 6.125c-3.658 0-5.816 3.039-5.816 7.084v15.9h-6.691v-16.091c0-7.4 5.1-12.988 12.507-12.988h2.416v6.07z" transform="translate(-16.712 11.993)"/><path d="m80.3 0c-9.026 0-14.422 7.239-14.422 14.715 0 9.134 6.555 14.564 15.589 14.564a32.215 32.215 0 0 0 10.588-1.857v-5.864a31.417 31.417 0 0 1 -10.266 2.2c-5.024 0-8.523-2.238-9.168-6.7h20.34a23.614 23.614 0 0 0 .2-3.217c.002-8.072-6.095-13.841-12.861-13.841zm-7.625 11.77a7.435 7.435 0 0 1 14.658 0z" transform="translate(-5.825 12)"/><path d="m196.233.038c-8.549 0-14.76 6.154-14.76 14.625 0 8.611 5.819 14.624 14.141 14.624 4.014 0 7.4-2.306 8.434-4.924v4.746h6.675v-14.446c-.001-8.884-5.605-14.625-14.49-14.625zm-.062 23.384c-4.909 0-7.964-3.356-7.964-8.759 0-4.994 3.427-8.76 7.964-8.76 4.835 0 7.819 3.438 7.819 8.76 0 4.246-2.652 8.759-7.821 8.759z" transform="translate(-33.592 11.991)"/><path d="m136.4 14.663v25.928h6.675v-16.228c1.039 2.618 4.42 4.924 8.434 4.924 8.322 0 14.141-6.014 14.141-14.624 0-8.474-6.207-14.625-14.757-14.625-8.887 0-14.493 5.741-14.493 14.625zm6.733 0c0-5.319 2.984-8.76 7.819-8.76 4.537 0 7.965 3.765 7.965 8.76 0 5.4-3.056 8.759-7.965 8.759-5.166 0-7.816-4.513-7.816-8.759z" transform="translate(-22.765 11.991)"/></g></svg>