<?xml version="1.0" encoding="utf-8"?>
<!-- Generator: Adobe Illustrator 23.0.3, SVG Export Plug-In . SVG Version: 6.00 Build 0)  -->
<svg version="1.1" id="レイヤー_1" xmlns="http://www.w3.org/2000/svg" xmlns:xlink="http://www.w3.org/1999/xlink" x="0px"
	 y="0px" viewBox="0 0 220 80" style="enable-background:new 0 0 220 80;" xml:space="preserve">
<style type="text/css">
	.st0{fill:#3C6EB0;}
	.st1{fill:#FFFFFF;}
	.st2{fill:none;}
</style>
<title>アートボード 15</title>
<path class="st0" d="M55.5,41c0-2,4.2-3.5,5.9-4c0.4-0.1,0.6-0.3,0.3-0.5c-0.7-0.4-1.6-0.6-2.5-0.4c-1.6,0.4-7.4,2.7-11,2.2
	c-4.4-0.7-5.3-2.1-5.7-3.5c-0.4-1.2,0-2.5,0.9-3.3c1.2-1,12.6-10.7,13.8-11.8c1.7-1.7,3-3.7,3.7-6c0.1-0.5-0.1-0.6-0.7-0.3
	C56,15.9,37.1,27,34.5,29.1c-1.8,1.5-4,3.7-4.1,5.7c-1.7-0.1-5.9-0.1-8.1,1.1c-1,0.5-2,1.3-2.7,2.2c-1.8,0.2-2.4,0.4-2.9,0.9
	c-0.5,0.5-0.6,0.9-0.3,1c1,0.3,1.9,0.7,2.8,1.3v0c0.5,1.1,1.3,1.9,2.3,2.5c2.3,1.6,4.8,2.9,7.4,4c-0.6,0.8-0.6,2,0,2.8
	c1.2,1.8,16.6,17.7,19.8,20.9c0.4,0.4,0.6,0.4,0.6,0c0.1-1.6-0.2-3.3-0.9-4.8c-1.3-2.7-6.7-11.1-7.6-12.5c-0.5-0.9-0.9-2-1-3.1
	c-0.1-0.8-0.1-2.1,1.5-2.3c2.1-0.2,4.1-0.8,5.9-1.8c2.4-1.2,5-2,7.6-2.3c1.7,0,3.3-0.2,5-0.5c0.6-0.1,1.1-0.3,1.5-0.7
	c0.3-0.3,0.1-0.6-0.2-0.6C59.6,42.8,55.6,42.7,55.5,41"/>
<path class="st1" d="M22.3,39.6c-0.5-0.1-0.9-0.5-0.8-1c0.1-0.5,0.5-0.9,1-0.8c0.5,0.1,0.9,0.5,0.8,1C23.3,39.3,22.8,39.7,22.3,39.6
	C22.3,39.6,22.3,39.6,22.3,39.6"/>
<path class="st1" d="M46.5,43.4c-0.3,2.7-4,4.5-8.3,4l-6.6-0.8c0,0-0.8-0.2-0.4-0.5c1.1-1.1,1.8-2.7,1.9-4.3c0.4-1.6,0-3.3-1-4.6
	c-0.3-0.5,0.4-0.4,0.4-0.4l6.9,0.8C43.7,38.1,46.9,40.7,46.5,43.4"/>
<path class="st0" d="M174.7,25c-0.4-1.3,0.5-2.9,2.5-4.2c0.7-0.5,1.5-0.8,2.3-0.9c0.2,0,0.5,0.1,0.7,0.2c0.3,0.4,0,1.7-1.6,3.2
	c-1.1,0.9-2.3,1.7-3.5,2.4C174.9,25.5,174.8,25.2,174.7,25 M159.8,21.5c0.5-0.7,1.3-1.2,2.2-1.4c0.3,0,0.6,0.1,0.8,0.2
	c0.6,0.4,0.6,0.7,0.5,0.8c-0.2,1.3-2.4,3.2-4.8,4.8C158.3,24.4,158.8,22.8,159.8,21.5 M141.8,24.7c0.2-1.1,2.3-4.2,3.8-4.5
	c0.1,0,0.1,0,0.2,0c0.2,0,0.5,0.1,0.7,0.5c0.6,0.8,0.4,2-0.3,2.6c-1.2,1.3-2.6,2.4-4.3,3C141.7,25.9,141.7,25.3,141.8,24.7
	 M203.6,15.5c-0.5-0.4-1.2,0-1.8,0.6c-3.6,3-7.5,5.7-11.6,8c-3.3,1.7-6.9,3.3-10.8,3.2c-0.8,0-1.6-0.1-2.4-0.4
	c1.1-0.6,2.1-1.3,3-2.1c1.9-1.6,3.2-4.1,1.9-5.9c-0.8-1.1-2.9-1.7-5.7,0.3c-2.7,1.8-3.9,4.3-3.3,6.5c0.1,0.3,0.3,0.7,0.4,1
	c-1.4,0.7-2.9,1.2-4.5,1.6c-4.6,1.2-7.4,0.4-9-0.7c2.7-1.8,5.3-4.1,5.5-6.1c0.1-1.2-0.5-2.3-1.5-2.8c-1.8-1.1-3.9-0.5-5.6,1.6
	c-1.5,1.9-2.3,4.8-1.5,6.8c-1.3,0.8-2.7,1.5-4.1,2.1c-2.3,0.7-6.9,0.6-9.4-1.1c1.7-0.8,3.3-2,4.5-3.4c1.2-1.4,1.4-3.4,0.4-5
	c-0.6-1.1-1.8-1.7-3.1-1.4c-2.5,0.5-5.1,4.4-5.4,6.2c-0.2,0.9-0.1,1.9,0.3,2.8c-4.7,1.8-10.3,2.7-12.6,2c-0.1,0-0.6-0.2-0.6-0.4
	c0-0.6,1.4-1.4,2.3-2c1.5-0.9,3-1.8,3.1-3.3c0-0.9-0.3-1.7-1-2.3c-0.8-0.6-1.7-1-2.7-1c-1-0.1-1.1-0.1-1.3-0.8
	c0.1-0.7,0.3-1.3,0.7-1.9c0.2-0.4,1.5-2.2,0.7-2.8c-0.9-0.6-1.8,0.6-1.8,0.6c-5.2,5.7-9.4,10.1-16.1,13.6c-2.1,1.1-4.3,2.1-6.6,3.1
	l6.6-18.9c0.2-0.5,0.4-1.1,0.6-1.6c0.2-0.4,0.4-0.6,0.7-0.5c0.2,0,0.4,0.2,0.4,0.5c0.1,0.4,0.1,0.7,0.1,1.1c0,0.9,0,1.8,0.1,2.7
	c0,0.5,0.4,0.9,0.8,1c0.4,0.1,0.8-0.2,1.2-0.7c0.4-0.6,0.7-1.3,0.8-2.1c0.2-0.8,0.2-1.6,0-2.4c-0.1-0.6-0.4-1.2-0.9-1.7
	c-0.4-0.4-0.9-0.7-1.4-0.8c-1.5-0.2-3,0.4-3.9,1.7c-1.3,1.5-2.3,3.1-3,4.9c-0.8,1.9-1.7,4.1-2.5,6.7l-4.2,12
	c-11.1,4.1-22.7,6.8-34.5,8c-0.6,0.1-1,0.6-0.9,1.1c0.1,0.5,0.5,0.9,1,0.9c0,0,0.1,0,0.1,0C76.8,42.5,88,40,98.9,36.2l-5.4,15.6
	c-0.5,1.7-1.2,3.3-1.9,4.9c-0.5,1-1,1.5-1.5,1.4c-0.5-0.1-0.7-0.8-0.5-2.1c0.1-0.8,0.2-1.7,0.1-2.5c0-0.6-0.4-1.1-1-1.2
	c-0.6-0.1-1.1,0.3-1.4,0.8c-0.5,0.7-0.8,1.4-0.9,2.2c-0.2,1.1-0.1,2.3,0.3,3.3c0.4,1,1.3,1.7,2.3,1.9c1.7,0.2,3.4-0.5,4.3-2
	c1.4-1.8,2.6-3.8,3.5-5.9c1-2.4,2.2-5.6,3.7-9.8l2.9-8.3c2.9-1.2,5.7-2.5,8.4-3.8c5.2-2.7,9.8-6.4,13.7-10.8v0
	c0.3,1.4,1.6,2.4,3.1,2.3c0.5,0,1.1,0.1,1.5,0.5c0.3,0.3,0.4,0.5,0.4,0.6c0,0.4-1.4,1.3-2.2,1.7c-1.6,1-3.3,2.1-3.3,3.8
	c0.1,1.1,0.9,2.1,2,2.3c3,1,9.3-0.1,14.4-2.2c0.1,0.1,0.2,0.2,0.4,0.3c3,2.6,8.8,2.7,11.7,1.8c1.6-0.7,3.2-1.5,4.7-2.4
	c2.6,2.2,6.5,2.7,11.3,1.5c1.9-0.5,3.7-1.2,5.5-2c1.4,0.8,2.9,1.2,4.5,1.2c4.4,0.1,8.2-1.6,11.8-3.4c0,0,9.2-5.2,12.5-8.7
	C203.9,16.7,204.1,15.9,203.6,15.5"/>
<rect y="0" class="st2" width="220" height="80"/>
</svg>
