<svg height="46" viewBox="0 0 180 46" width="180" xmlns="http://www.w3.org/2000/svg" xmlns:xlink="http://www.w3.org/1999/xlink"><linearGradient id="a" x1="75%" x2="0%" y1="50%" y2="86.734694%"><stop offset="0" stop-color="#fff" stop-opacity="0"/><stop offset="1" stop-color="#fff"/></linearGradient><g fill="none" fill-rule="evenodd"><circle cx="24" cy="23" fill="#020204" r="23"/><path d="m24 10 11.6673529 20.0011765h-23.3347058z" fill="url(#a)"/><path d="m109.364147 24v-24h3.635853v24zm-14.0374701 0-5.0504431-10.1123596h-4.5441688v10.1123596h-3.6358529v-24h9.2916241c1.1446204 0 2.1714122.17437338 3.0803754.52247191.9083158.34874676 1.6877971.83167675 2.3390913 1.4494382.6512941.61840968 1.150447 1.35998272 1.4987535 2.2247191.347659.86538462.5211648 1.80337079.5211648 2.81460675 0 1.73076923-.4603083 3.12964564-1.3802775 4.19662924-.9199692 1.0676318-2.0529362 1.7923509-3.3995484 2.1741573l5.52111 10.6179775zm-.1346612-16.93820225c0-1.19598098-.3761451-2.12748487-1.1277877-2.79256698-.7522901-.66637857-1.7344106-.99956785-2.9457142-.99956785h-5.3864488v7.55056178h5.3864488c1.2113036 0 2.1934241-.326707 2.9457142-.98206567.7516426-.65406223 1.1277877-1.57973206 1.1277877-2.77636128zm-24.629537 16.93820225-1.6495999-4.8202247h-9.4593032l-1.6496 4.8202247h-3.8721574l8.7872919-24h2.9282341l8.7866446 24zm-6.295412-18.53932584-3.7362014 10.65168544h7.3727018zm-20.9151255 18.53932584-6.7324135-11.8314607-4.040484 4.8539326v6.9775281h-3.6358529v-24h3.6358529v12.0674157l9.7966037-12.0674157h4.4444676l-7.7773328 9.40449438 8.5853002 14.59550562zm-26.7219281 0-1.6489525-4.8202247h-9.45995062l-1.64959994 4.8202247h-3.87151004l8.78664454-24h2.92888146l8.7866446 24zm-6.2947645-18.53932584-3.73684887 10.65168544h7.37270177z" fill="#020204" transform="translate(62 11)"/></g></svg>