<svg height="80" viewBox="0 0 300 80" width="300" xmlns="http://www.w3.org/2000/svg"><path d="m0 0h300v80h-300z" fill="none"/><g fill="#f03" fill-rule="evenodd"><path d="m13.4 1.864c-.586.141-2.742.884-3.375 1.064-.063 2-.384 10.943-.384 10.943-.176 4.162-1.973 6.92-6.73 8.751l-1.722-.422c2.322-1.387 3.341-2.6 3.636-3.617.474-1.314.713-4.354.713-9.962 0 0-.056-4.23-.157-5.657-.713-.121-3.638-.839-4.541-1.042l-.04-1.329c1.862.056 5.929.115 7.53.115s3.555-.081 5.188-.115z" transform="translate(170.786 57.29)"/><path d="m340.233 69.893c-.347.083-1.343.313-2.223.5-.054 1.443.111 12.062.13 14.6 0 .364-.406.55-.735.22-2.285-2.246-9.565-10.54-11.99-13.549-.006 1.881.095 9.437.113 10.839.912.253 3.024.76 3.416.84l.087 1.512c-1.84-.02-7.921-.014-8.032 0l.024-1.467c.787-.332 1.53-.606 2.239-.885.1-.887.085-11.347.09-12.019-.6-.056-1.8-.087-2.626-.126v-1.816c1-.019 4.081-.011 5.772 0 2.1 2.4 7.133 8.049 9.688 10.92.026-2.424-.139-8.1-.174-9.079-.434-.08-1.424-.178-2.513-.4l-.143-1.427c.431.037 3.175.082 3.687.082s2.8-.137 3.272-.176l-.082 1.439zm-43.162 4.253c0 2.013-1.865 2.848-3.9 3.178v1.419c4.284-.435 7.017-2.149 7.017-4.671v-.12c0-2.935-1.936-5.481-6.509-5.572 0 0-1.643-.067-2.594-.067h-6.158l.265 1.612c.859.1 1.995.19 2.714.241.067 2.015.269 10.328.133 12.686-.489.107-2.107.435-2.724.591l-.152 1.412c.611-.04 9.442-.037 10.093 0l-.078-1.217c-.628-.169-2.9-.582-3.474-.723-.078-.556-.239-12.319-.2-12.829a17.886 17.886 0 0 1 3.326.236c1.747.469 2.242 2.365 2.242 3.552m-119.1-37.429c-1.162.114-5.992 1.2-7.617 1.552-1.74.468-18.427 13.6-19.471 16.629-.232 1.051 0 12.34 0 12.34l9.434.636-.332 3.129c-1.358-.1-10.111-.078-15.6-.078-2.782 0-11.272.313-14.137.229l.357-2.983a21.33 21.33 0 0 0 6.192-.58c1.673-.447 2.868-1.116 2.868-2.8v-9.799c-.58-1.749-14.458-19.322-18.05-22.119-1.043-.352-7.881-1.1-9.5-1.45l.337-2.942h31.669l-.458 2.707c-1.39.35-8.093.482-9.832.945 4.521 6.763 11.673 15.471 13.995 18.856 1.276-1.867 13.411-10.41 13.757-13.09-1.739-.347-7.5-1.184-8.426-1.184l-.55-3h27.344l-1.977 3zm67.451 25.531c-4.989-.3-13.744-.174-18.906 0l.306-2.656c.776-.079 4.856-.728 5.892-.877v-9.087c-2.485 0-16.361.3-18.552.865v8.164s5.978.692 7.374.841l-.321 2.756c-5.442-.306-16.275-.317-21.419-.019l.335-2.957c1.614-.044 5.934-.542 6.942-.7.158-2.026.232-5.225.232-8.577v-4.137c0-1.4-.074-5.457-.154-6.863-1.188 0-6.145-.471-7.541-.547l.34-2.62c4.475.252 18.278.246 22.084.011l-.391 2.439c-1.081.058-5.98.787-7.482.79v7.245h18.551v-10.581c-1.366-.143-4.708-.892-6.185-.963l.287-2.436c3.1.232 15.365.195 18.649 0l-.232 2.557c-1.006.079-4.6.695-5.787.775v23.123s5.238.643 6.327.8l-.348 2.656z" transform="translate(-80.115 -8.022)"/><path d="m7.855 26.568h-4.984v-26.344h11.313l-1.016 3.959zm-3.755 10.432-3.422.14.658-5.818 3.411.164 3.19-.122-.672 5.7z" transform="translate(254.769 19.688)"/><path d="m290.575 49.049c0-8.35-7.958-13.418-20.071-13.672h-.586-.586c-12.851.271-19.961 5.369-19.961 13.714v.128s0 .081 0 .124c.082 7.859 7.849 13.458 19.961 13.713 0 0 .431.006.586 0s.585 0 .585 0c12.112-.256 19.924-5.52 20.068-13.681v-.326m-19.423 10.324c-.417.012-.826.037-1.232.056-.4-.019-.815-.044-1.232-.056-4.194-.118-12.29-2.524-12.29-9.79v-.364-.366c0-7.269 8.1-9.676 12.291-9.79.417-.011.826-.037 1.232-.056.4.019.815.044 1.232.056 4.193.115 12.292 2.522 12.292 9.79v.366.364c0 7.266-8.1 9.672-12.294 9.79m66.705-13.635q0-.076 0-.153c-.308-8.736-8.677-14.38-22.151-14.668 0 0-.367-.009-.553-.009s-.549.009-.549.009c-13.479.287-21.882 5.549-22.151 14.669v.291c.269 9.123 8.671 14.51 22.151 14.795 0 0 .368.011.549.009s.552-.009.552-.009c13.474-.285 21.882-5.672 22.151-14.795 0 0 0-.088 0-.137m-20.862 10.949c-.619.044-1.234.062-1.844.069s-1.231-.027-1.845-.069c-4.581-.315-12.889-3.143-13.063-10.954.173-7.813 8.481-10.517 13.063-10.833q.921-.058 1.844-.065c.611 0 1.227.025 1.846.065 4.583.315 12.889 3.02 13.063 10.833-.173 7.81-8.48 10.639-13.063 10.954m-114.826 9.24c-1.4-2.316-6.7-15.446-9.072-21.386l4.35-.684.519-2.244h-6.615l.006.022c-2.513.037-12.754-.056-13.88-.122l-.188 2.336 5.257 1.265s-7.695 15.3-9.23 17.5c-1.367.3-4.708 1.105-5.961 1.253l-.36 2.831c1.038-.148 14.465-.071 15.708 0l.287-2.55-4.68-1.114s2.126-4.447 2.418-4.962c1.536-.3 10.265-.426 10.265-.426l3.107 8.489s-3.7.574-5.162.647l-.328 2.786c1.1 0 18.829-.071 19.341 0l.3-2.5c-1.316-.074-4.836-.913-6.079-1.136zm-20.3-11.034c.44-1.178 4.382-9.6 4.382-9.6l3.71 9.6h-8.091zm128.745 22.662c.347-.86 2.613-6.2 2.613-6.2l2.4 6.214-5.007-.019zm10.555 5.59c-1.753-3.678-4.69-10.9-5.479-12.852l2.1-.282.145-1.413-8.665.3-.031 1.184 2.247.393c-1.482 3.259-5.3 11.59-5.97 12.568-.578.206-1.292.428-1.989.684l-.142 1.322c1.988-.111 6.281-.037 6.953 0l.031-1.186-2.151-.615s1.341-3.263 1.825-4.246c1.672-.023 6.085.019 6.085.019l1.643 4.326s-1.529.326-2.663.545l-.195 1.156c.593 0 8.435-.037 8.712 0l.151-1.366c-.721-.154-2.6-.539-2.6-.539zm-46.847-5.589c.35-.862 2.614-6.2 2.614-6.2l2.395 6.216-5.008-.019zm10.558 5.591c-1.1-2.3-4.082-9.488-5.445-12.856l2.268-.41.063-1.278-8.792.3-.015 1.173 2.247.392c-1.484 3.258-5.322 11.6-5.988 12.581-.727.269-1.366.465-1.989.684l-.141 1.322c1.964-.067 6.281-.039 6.953 0l.032-1.186-2.153-.617s1.343-3.263 1.825-4.245c1.671-.024 6.084.02 6.084.02l1.642 4.324s-1.529.327-2.664.545l-.195 1.158c.593 0 8.436-.04 8.712 0l.151-1.367c-.718-.156-2.6-.539-2.6-.539z" transform="translate(-84.152 -8.22)"/></g></svg>