<svg height="36" viewBox="0 0 164 36" width="164" xmlns="http://www.w3.org/2000/svg"><g fill="none" fill-rule="evenodd"><g fill="#181616"><path d="m59.54745 18.00195h-5.547v-6.0015h5.445c2.6175 0 4.218.654 4.218 3h.0315c0 2.04-1.53 3.0015-4.1475 3.0015m.3405-12.0015h-11.8875v24h6v-6h5.3775c5.337 0 9.621-3.492 9.621-9 0-4.863-3.4335-9-9.111-9"/><path d="m81 6h-6v24h15v-6h-9z"/><path d="m150.78195 24h-3.7815v-12h3.7815c4.284 0 7.1745 1.7835 7.1745 6s-2.8905 6-7.1745 6m0-18h-9.7815v24h9.7815c7.4805 0 12.7185-5.3025 12.7185-12s-5.238-12-12.7185-12"/><path d="m126 30h6v-24h-6z"/><path d="m105.375 21 2.625-7.0005 2.625 7.0005zm8.625 9h6l-9-24h-6l-9 24h6l1.125-3h9.75z"/></g><path d="m32 12-12-12-20 20 12 12z" fill="#bf0023" opacity=".8"/><path d="m16 12-7.999-8-8.001 8 16 16 8-8z" fill="#bf0023" opacity=".8"/><path d="m16 20-7.999-8-8.001 8 16 16 8-8.001z" fill="#bf0023" opacity=".8"/><path d="m31.99995 12c-5.0355-2.5185-10.9635-2.685-16.0005-.1665-5.0355 2.5185-10.9635 2.685-15.999.1665v7.9995l15.999 16.0005 8.001-7.9995z" fill="#bf0023" opacity=".8"/></g></svg>