<svg height="60" viewBox="0 0 152 60" width="152" xmlns="http://www.w3.org/2000/svg"><path d="m0 0h152v60h-152z" fill="none"/><g fill="#040000" transform="translate(-.006 4.008)"><path d="m97.055 30.151c-.284-.086-.276-.068-.359-.359a14.9 14.9 0 0 1 -.28-1.479 24.241 24.241 0 0 1 -.212-2.9c-.018-.894 0-1.795.018-2.685 0-.255.018-.51.043-.765s0-.305.258-.359a22.318 22.318 0 0 0 3.784-.628 1.153 1.153 0 0 0 .894-1.256 1.368 1.368 0 0 0 -1.336-1.22 1.9 1.9 0 0 0 -1.02.359 13.48 13.48 0 0 1 -2.369.919c.1-.549.151-1.1.212-1.651s.262-1.357-.147-1.87a5.557 5.557 0 0 0 -1.734-1.149l-1.353-.75a43.8 43.8 0 0 0 5.439-.826 1.353 1.353 0 0 0 .625-.244c.215-.219.061-.592-.05-.826a1.748 1.748 0 0 0 -1.608-1 7.951 7.951 0 0 0 -2.021.5c-.865.262-1.73.524-2.6.757a23.133 23.133 0 0 1 -3.008.628 5.1 5.1 0 0 1 -2.872-.169c.984 1.554 3.066 1.353 4.667 1.26a2.56 2.56 0 0 1 .65-.05c.126.036.276.226.381.316a3.569 3.569 0 0 1 .592.632 6.336 6.336 0 0 1 .808 3.547v1.206a1.482 1.482 0 0 1 0 .334c-.025.043-.28.061-.359.079-.531.118-1.077.248-1.6.341a13.117 13.117 0 0 1 -3.166.212c-1.016-.075-1.978-.535-1.845-1.709a2.014 2.014 0 0 0 -.115 2.42 3.616 3.616 0 0 0 2.832.747 24.091 24.091 0 0 0 4.168-.56c-.029 2.617.09 5.212.258 7.822-2.707-.122-8.44-.309-8.163 3.777.136 2.007 2.2 2.933 3.927 3.285a7.008 7.008 0 0 0 4.979-.521c1.2-.768 1.357-2.111 1.519-3.407 1.328.693 2.2 2.021 3.461 2.807a1.1 1.1 0 0 0 1.106.158 1.739 1.739 0 0 0 .9-1.572 2.883 2.883 0 0 0 -1.483-2.333 14.273 14.273 0 0 0 -3.82-1.816zm-3.9 4.871a4.65 4.65 0 0 1 -4.6.172c-1.228-.617-2.283-1.924-1.4-3.27a3.561 3.561 0 0 1 3.231-1.256 10.263 10.263 0 0 1 3.87.865c.2.093.172.162.2.391a3.827 3.827 0 0 1 -.05 1.314 2.965 2.965 0 0 1 -1.242 1.795c-.751.503.742-.506-.004-.011zm-9.282-19.866a3.371 3.371 0 0 0 -.84-2.211 5.005 5.005 0 0 0 -2.266-1.645 6.753 6.753 0 0 1 .506 3.59c-.154 1.529-.506 3.048-.772 4.563-.359 2.046-.74 4.1-.941 6.171a27.379 27.379 0 0 0 0 5.79 13.092 13.092 0 0 0 .862 3.568 8.687 8.687 0 0 0 .9 1.666 1.461 1.461 0 0 0 .9.718.915.915 0 0 0 1.1-.9 24.933 24.933 0 0 0 -.075-2.534 32.175 32.175 0 0 1 .6-4.573c-.485 1.077-1.156 3.367-2.793 2.628a2.123 2.123 0 0 1 -1.1-1.551 11.787 11.787 0 0 1 -.388-2.315 13.114 13.114 0 0 1 .381-4.1 20.049 20.049 0 0 1 1.881-4.448c.485-.89 1.016-1.752 1.511-2.635a3.529 3.529 0 0 0 .521-1.766c.031-.659.002.914.013-.016z" transform="translate(-10.061 -1.432)"/><path d="m105.807 17.091c-.962.057-1.393-1.167-1.852-1.816a2.578 2.578 0 0 0 -1.795-1.21 4.936 4.936 0 0 1 3.536.377 1.935 1.935 0 0 1 .976 1.206 1.08 1.08 0 0 1 -.862 1.436zm2.154-2.1a.876.876 0 0 1 -.693-.359 11.608 11.608 0 0 1 -.926-1.177 3.191 3.191 0 0 0 -2.043-1.317 6.669 6.669 0 0 1 3.342.108 1.8 1.8 0 0 1 1.152 1.138c.19.65 0 1.558-.826 1.608z" transform="translate(-12.943 -1.519)"/><path d="m64.072 32.209a18 18 0 0 0 -3.3-1.2c-.445-.118-.89-.223-1.339-.319-.079 0-.276 0-.33-.072a1.188 1.188 0 0 1 -.079-.359 24.713 24.713 0 0 1 -.74-5.026c0-.09-.043-.309 0-.384s.1-.061.208-.083l1.386-.255c1.077-.2 2.154-.409 3.231-.661.5-.118 1.54-.266 1.763-.818a1.461 1.461 0 0 0 -.126-.951 1.256 1.256 0 0 0 -.818-.639 2.355 2.355 0 0 0 -1.5-.083 8.257 8.257 0 0 0 -.89.47 11.976 11.976 0 0 1 -3.3 1.339c.029-1.224.047-2.448.122-3.672 0-.144-.047-.517.032-.632s.416-.122.571-.154c1.052-.215 2.107-.42 3.159-.639.876-.183 1.755-.359 2.617-.61a7.28 7.28 0 0 0 .747-.244c.3-.122.8-.294.937-.621.262-.628-.571-1.231-1.052-1.436a2.484 2.484 0 0 0 -2.028-.05 36.364 36.364 0 0 1 -4.667 1.845c.061-.474.108-.955.187-1.436a19.872 19.872 0 0 1 .786-2.452 1.587 1.587 0 0 0 -.108-1.436c-.582-.826-1.86-.984-2.786-1.055a6.921 6.921 0 0 0 -3.231.488 3.059 3.059 0 0 1 2.776 1.975 5 5 0 0 1 .2 1.838v1.741.61c0 .212.036.183-.147.237-.294.086-.621.115-.923.183a16.348 16.348 0 0 1 -3.274.384 11.11 11.11 0 0 1 -4.5-.585 7.409 7.409 0 0 0 2.3 1.935 5.26 5.26 0 0 0 2.624.3c1.314-.075 2.624-.341 3.927-.531q0 .984-.029 1.967v1.16q0 .359.018.718c0 .083.061.359 0 .434a2.236 2.236 0 0 1 -.61.154q-.718.172-1.436.312a26.834 26.834 0 0 1 -3.493.416 2.53 2.53 0 0 1 -1.558-.248 1.077 1.077 0 0 1 -.391-1.31 1.585 1.585 0 0 0 -.158 2.061c.635.718 1.813.689 2.7.7a35.418 35.418 0 0 0 4.947-.438c.057.869.122 1.737.169 2.606.032.56.061 1.12.065 1.68 0 .129.061.844-.029.926a4.438 4.438 0 0 1 -1.041-.025 14.9 14.9 0 0 0 -1.641.061 11.444 11.444 0 0 0 -3.794.844 3.474 3.474 0 0 0 -2.086 2.1 3.041 3.041 0 0 0 .887 3.044 5.956 5.956 0 0 0 3.573 1.406 10.931 10.931 0 0 0 3.805-.305 3.509 3.509 0 0 0 2.3-1.648 7.816 7.816 0 0 0 .592-2.94c.477.251.941.521 1.389.815a24.053 24.053 0 0 1 2.628 1.87c.718.617 1.285 1.328 2.312 1.31s1.389-1.457 1.077-2.272a4.9 4.9 0 0 0 -2.649-2.341c-1.612-.789 1.68.812.018.001zm-8.935 3.382a6.83 6.83 0 0 1 -4.879.312c-1.264-.384-2.513-1.368-2.035-2.832.574-1.795 2.8-1.795 4.344-1.795a11.965 11.965 0 0 1 3.981.718c.226.083.169.194.183.438a3.949 3.949 0 0 1 -.108 1.317 2.919 2.919 0 0 1 -1.486 1.813c-.908.513.912-.424 0 .036z" transform="translate(-6.038 -1.337)"/><path d="m124.2 25.6-2 1.053a35.211 35.211 0 0 1 2.685-3.751c1.58-1.863 3.231-3.662 4.993-5.385a14.31 14.31 0 0 1 1.845-1.626 5.518 5.518 0 0 0 1.483-1.077c.316-.463-.1-.966-.384-1.314a6.519 6.519 0 0 0 -1.917-1.594 1.913 1.913 0 0 0 -1.048-.359 2.707 2.707 0 0 0 -.628.169c-.564.194-1.116.42-1.673.643a30.054 30.054 0 0 1 -5.108 1.562 4.624 4.624 0 0 1 -1.816.14 2.29 2.29 0 0 1 -1.727-1.795 2.513 2.513 0 0 0 -.445 2.671 3.378 3.378 0 0 0 2.025 1.967 1.6 1.6 0 0 0 1.436-.284c.531-.359 1.045-.718 1.6-1.041 1.414-.8 2.854-1.6 4.34-2.258.668-.294 2.021-.88 2.2.327a1.378 1.378 0 0 1 -.359.969c-.276.406-.578.793-.883 1.181-1.35 1.727-2.8 3.36-4.2 5.047-1.346 1.63-2.639 3.317-4.089 4.861a24 24 0 0 0 -3.367 3.622 2.976 2.976 0 0 0 -.424 1.361c-.043.643.416 1.845 1.242 1.7s1.475-1.034 1.974-1.644c.668-.822 1.31-1.662 2.028-2.445a17.335 17.335 0 0 1 4.448-3.626 12.406 12.406 0 0 1 1.274-.6 23.13 23.13 0 0 0 -3.505 1.526zm7.812-1.924q-.664 0-1.325.061a4.751 4.751 0 0 1 3.676 1.231 5.13 5.13 0 0 1 1.289 3.565c0 2.872-1.881 5.155-4.143 6.7a21.262 21.262 0 0 1 -4.882 2.384 23.334 23.334 0 0 0 7.1-1.282 9.485 9.485 0 0 0 4.34-2.972 5.807 5.807 0 0 0 -.592-7.829 8.276 8.276 0 0 0 -5.46-1.849z" transform="translate(-14.791 -1.464)"/><path d="m159.744 34.677a6.235 6.235 0 0 1 -4.71-1.795c-1.6-1.852-1.558-4.308-1.267-6.58a25.544 25.544 0 0 1 1.852-6.228c.477-1.188.944-2.384 1.339-3.59a5.508 5.508 0 0 0 .255-3.231 3.7 3.7 0 0 0 -2.4-2.434 4.281 4.281 0 0 0 -3.392.549c3.033.811 3.041 4.286 2.782 6.821-.151 1.5-.359 2.99-.564 4.487-.241 1.888-.391 3.784-.614 5.672a14.243 14.243 0 0 0 -.018 4.95 5.026 5.026 0 0 0 1.939 2.872 9.481 9.481 0 0 0 8.91.951c3.051-1.188 5.18-3.87 6.666-6.684q.359-.668.668-1.357a12.564 12.564 0 0 1 -3.672 3.827 11.254 11.254 0 0 1 -4.57 1.58 23.58 23.58 0 0 1 -3.206.19z" transform="translate(-19.185 -1.35)"/><path d="m54.272 55.272v-.072a1.052 1.052 0 0 0 .467-.115.564.564 0 0 0 .251-.241.786.786 0 0 0 .057-.208 2.447 2.447 0 0 0 .025-.255v-3.453l-.391.88q-.179.4-.359.783l-.359.779-.391.876q-.032.065-.09.2l-.115.284q-.057.147-.111.266a1.455 1.455 0 0 0 -.065.158h-.039l-.409-.951q-.2-.47-.4-.908l-.359-.818q-.169-.381-.305-.678t-.223-.5l-.118-.273v2.9q0 .305.018.528a1.016 1.016 0 0 0 .1.359.56.56 0 0 0 .237.241 1.285 1.285 0 0 0 .434.126v.065h-1.689v-.065a1.127 1.127 0 0 0 .359-.133.632.632 0 0 0 .226-.241 1.249 1.249 0 0 0 .122-.384 3.9 3.9 0 0 0 .047-.56q0-.276.018-.657t0-.811v-1.1a.589.589 0 0 0 -.079-.294.581.581 0 0 0 -.169-.18.693.693 0 0 0 -.208-.093l-.187-.043v-.065h1.414l1.544 3.514q.284-.614.556-1.221l.488-1.1.36-.812q.144-.327.158-.377h1.375v.065a.718.718 0 0 0 -.4.111.531.531 0 0 0 -.19.244 1.329 1.329 0 0 0 -.05.359q0 .233-.018.459v2.6a1.94 1.94 0 0 0 0 .248.567.567 0 0 0 .054.2l.047.061a.672.672 0 0 0 .118.1.8.8 0 0 0 .194.1.9.9 0 0 0 .273.05v.065z" transform="translate(-6.39 -6.415)"/><path d="m63.151 55.261v-.061h.093a.8.8 0 0 0 .154-.047.452.452 0 0 0 .144-.09.2.2 0 0 0 .061-.147.851.851 0 0 0 -.036-.19q-.036-.133-.1-.323t-.147-.424q-.083-.233-.179-.485h-1.72l-.187.467-.179.449a1.637 1.637 0 0 0 -.136.492.194.194 0 0 0 .05.14.4.4 0 0 0 .133.09.744.744 0 0 0 .176.05l.176.029v.065h-1.376v-.076a.718.718 0 0 0 .287-.09.639.639 0 0 0 .14-.1 1.4 1.4 0 0 0 .147-.212 4.666 4.666 0 0 0 .251-.5l.305-.693.359-.8q.176-.409.359-.826l.33-.779-.065-.144a1.048 1.048 0 0 0 .208-.122 1.266 1.266 0 0 0 .165-.147 1.342 1.342 0 0 0 .118-.147l.075-.115h.05l.381 1.016.359.926.319.862.309.822q.072.2.133.334l.14.3a.89.89 0 0 0 .057.09.8.8 0 0 0 .118.133.718.718 0 0 0 .183.118.671.671 0 0 0 .258.057v.079zm-.851-3.917q-.039.083-.111.266l-.183.438q-.111.258-.244.585l-.287.718h1.608l-.223-.582-.219-.56-.194-.492z" transform="translate(-7.612 -6.404)"/><path d="m72.613 54.419a1.163 1.163 0 0 1 -.187.33 1.3 1.3 0 0 1 -.258.241 1.209 1.209 0 0 1 -.284.151 1.931 1.931 0 0 1 -.549.111q-.305.018-.589.018h-2.229v-.065a1.436 1.436 0 0 0 .305-.083.607.607 0 0 0 .237-.162.291.291 0 0 0 .05-.111 1.351 1.351 0 0 1 .036-.172 2 2 0 0 0 .022-.2q0-.108 0-.208v-2.851a.807.807 0 0 0 -.022-.23 1.955 1.955 0 0 0 -.039-.2.276.276 0 0 0 -.061-.126.52.52 0 0 0 -.194-.14 1.22 1.22 0 0 0 -.273-.054v-.065h2.179a3.644 3.644 0 0 1 .47.029 1.932 1.932 0 0 1 .431.108 1.285 1.285 0 0 1 .542.359.955.955 0 0 1 .212.639.908.908 0 0 1 -.276.689 1.436 1.436 0 0 1 -.718.359v.025a1.831 1.831 0 0 1 .46.115 1.436 1.436 0 0 1 .406.237 1.156 1.156 0 0 1 .284.359.983.983 0 0 1 .108.463 1.174 1.174 0 0 1 -.061.431zm-1.1-3.231a.955.955 0 0 0 -.409-.359 1.845 1.845 0 0 0 -.743-.129 2.154 2.154 0 0 0 -.244 0 .893.893 0 0 0 -.169.032v.068a.629.629 0 0 0 0 .083v1.942h.6a1.314 1.314 0 0 0 .883-.33.994.994 0 0 0 .3-.736 1.027 1.027 0 0 0 -.231-.559zm.357 2.512a1.163 1.163 0 0 0 -.17-.3 1.105 1.105 0 0 0 -.251-.241 1.267 1.267 0 0 0 -.318-.159 1.508 1.508 0 0 0 -.28-.061 2.929 2.929 0 0 0 -.327 0h-.624v1.4a3.158 3.158 0 0 0 .022.406.513.513 0 0 0 .093.262.434.434 0 0 0 .176.118.908.908 0 0 0 .337.05 3.515 3.515 0 0 0 .406-.025 1.2 1.2 0 0 0 .427-.136 1.077 1.077 0 0 0 .42-.377 1.037 1.037 0 0 0 .147-.564 1 1 0 0 0 -.061-.355z" transform="translate(-8.681 -6.413)"/><path d="m81.313 53.862a2.4 2.4 0 0 1 -.528.761 2.319 2.319 0 0 1 -.775.5 2.617 2.617 0 0 1 -1.87 0 2.333 2.333 0 0 1 -.768-.485 2.28 2.28 0 0 1 -.521-.75 2.366 2.366 0 0 1 -.19-.958 2.394 2.394 0 0 1 .2-1 2.247 2.247 0 0 1 .538-.75 2.377 2.377 0 0 1 .793-.47 2.793 2.793 0 0 1 .959-.165 2.4 2.4 0 0 1 .984.194 2.236 2.236 0 0 1 .74.521 2.28 2.28 0 0 1 .467.754 2.513 2.513 0 0 1 .162.89 2.34 2.34 0 0 1 -.19.958zm-.713-1.744a2.513 2.513 0 0 0 -.305-.718 1.73 1.73 0 0 0 -.506-.531 1.256 1.256 0 0 0 -.718-.2 1.285 1.285 0 0 0 -.718.2 1.655 1.655 0 0 0 -.5.528 2.437 2.437 0 0 0 -.291.718 3.712 3.712 0 0 0 -.093.829 3.428 3.428 0 0 0 .1.847 2.351 2.351 0 0 0 .305.718 1.6 1.6 0 0 0 .51.5 1.339 1.339 0 0 0 .718.187 1.217 1.217 0 0 0 .718-.208 1.745 1.745 0 0 0 .5-.535 2.563 2.563 0 0 0 .3-.718 3.4 3.4 0 0 0 .1-.815 3.275 3.275 0 0 0 -.111-.8z" transform="translate(-9.713 -6.405)"/><path d="m89 55.272-.083-.086-.057-.068a1.323 1.323 0 0 1 -.082-.118l-.151-.223-.215-.327-.19-.287q-.1-.144-.208-.287t-.269-.327a2.663 2.663 0 0 0 -.28-.276.693.693 0 0 0 -.32-.162 1 1 0 0 0 -.187-.025h-.147v1.6a.47.47 0 0 0 .072.244.571.571 0 0 0 .2.172.912.912 0 0 0 .413.1v.065h-2.067v-.065a1.8 1.8 0 0 0 .309-.079.5.5 0 0 0 .233-.154.291.291 0 0 0 .05-.115 1.193 1.193 0 0 0 .029-.176v-3.469a1.279 1.279 0 0 0 -.032-.194.277.277 0 0 0 -.061-.126.485.485 0 0 0 -.215-.14 2.25 2.25 0 0 0 -.294-.061v-.065h1.77q.434 0 .768.025a1.536 1.536 0 0 1 .614.176 1.246 1.246 0 0 1 .459.406 1.113 1.113 0 0 1 .176.643 1.019 1.019 0 0 1 -.086.431 1.142 1.142 0 0 1 -.233.337 1.436 1.436 0 0 1 -.341.248 2.628 2.628 0 0 1 -.406.176v.018a.819.819 0 0 1 .212.169 2.326 2.326 0 0 1 .2.244l.359.531.359.5a1.974 1.974 0 0 0 .467.492 1.249 1.249 0 0 0 .531.2v.065zm-.632-4.024a1.116 1.116 0 0 0 -.47-.4 1.415 1.415 0 0 0 -.327-.1 1.945 1.945 0 0 0 -.359-.032h-.348v.068a.536.536 0 0 0 0 .075v2.132a4.947 4.947 0 0 0 .5-.022 1.989 1.989 0 0 0 .442-.093 1.181 1.181 0 0 0 .359-.176 1.009 1.009 0 0 0 .241-.248 1.034 1.034 0 0 0 .14-.3 1.241 1.241 0 0 0 .047-.337 1.041 1.041 0 0 0 -.219-.56z" transform="translate(-10.824 -6.415)"/><path d="m98.347 53.862a2.4 2.4 0 0 1 -.528.761 2.319 2.319 0 0 1 -.775.5 2.617 2.617 0 0 1 -1.87 0 2.337 2.337 0 0 1 -.768-.485 2.283 2.283 0 0 1 -.521-.75 2.552 2.552 0 0 1 0-1.956 2.247 2.247 0 0 1 .538-.75 2.376 2.376 0 0 1 .793-.47 2.793 2.793 0 0 1 .958-.165 2.4 2.4 0 0 1 .987.194 2.236 2.236 0 0 1 .74.521 2.287 2.287 0 0 1 .467.754 2.512 2.512 0 0 1 .162.89 2.344 2.344 0 0 1 -.183.958zm-.718-1.745a2.513 2.513 0 0 0 -.305-.718 1.734 1.734 0 0 0 -.506-.531 1.26 1.26 0 0 0 -.718-.2 1.285 1.285 0 0 0 -.718.2 1.655 1.655 0 0 0 -.5.528 2.437 2.437 0 0 0 -.291.718 3.722 3.722 0 0 0 -.093.829 3.418 3.418 0 0 0 .1.847 2.341 2.341 0 0 0 .309.718 1.6 1.6 0 0 0 .51.5 1.339 1.339 0 0 0 .718.187 1.217 1.217 0 0 0 .718-.208 1.745 1.745 0 0 0 .5-.535 2.556 2.556 0 0 0 .3-.718 3.385 3.385 0 0 0 .1-.815 3.256 3.256 0 0 0 -.118-.8z" transform="translate(-11.871 -6.405)"/><path d="m105.707 54.544a1.26 1.26 0 0 1 -.359.42 1.479 1.479 0 0 1 -.531.258 2.588 2.588 0 0 1 -.678.083 3.252 3.252 0 0 1 -.542-.039 2.108 2.108 0 0 1 -.359-.093 1.3 1.3 0 0 1 -.223-.1.294.294 0 0 0 -.093-.047.383.383 0 0 0 -.083.079l-.115.147h-.057l-.018-1.285h.065a2.039 2.039 0 0 0 .147.337 2.766 2.766 0 0 0 .2.309 1.734 1.734 0 0 0 .226.255 1.11 1.11 0 0 0 .23.169 1.83 1.83 0 0 0 .291.115 1.213 1.213 0 0 0 1.124-.2.894.894 0 0 0 .3-.718.8.8 0 0 0 -.057-.316.754.754 0 0 0 -.158-.237.969.969 0 0 0 -.237-.172 2.6 2.6 0 0 0 -.291-.129l-.273-.1-.215-.075-.208-.072-.255-.093a1.407 1.407 0 0 1 -.323-.179 1.314 1.314 0 0 1 -.273-.266 1.332 1.332 0 0 1 -.187-.337 1.077 1.077 0 0 1 -.072-.391 1.314 1.314 0 0 1 .129-.6 1.231 1.231 0 0 1 .359-.42 1.436 1.436 0 0 1 .5-.248 2.125 2.125 0 0 1 .592-.083 2.219 2.219 0 0 1 .5.047 2 2 0 0 1 .337.108 1.152 1.152 0 0 1 .2.108l.075.047a.332.332 0 0 0 .079-.079c.039-.054.079-.1.115-.154h.072v1.2h-.072a2.6 2.6 0 0 0 -.2-.424 1.9 1.9 0 0 0 -.284-.359 1.375 1.375 0 0 0 -.359-.269 1.016 1.016 0 0 0 -.459-.1 1.2 1.2 0 0 0 -.377.057.876.876 0 0 0 -.309.176.8.8 0 0 0 -.208.287.976.976 0 0 0 -.075.391.743.743 0 0 0 .208.549 1.465 1.465 0 0 0 .535.33l.241.09.223.075.223.075.237.083a1.5 1.5 0 0 1 .678.47 1.314 1.314 0 0 1 .115 1.321z" transform="translate(-13.006 -6.401)"/><path d="m112.9 55.273v-.065a1.318 1.318 0 0 0 .4-.086.448.448 0 0 0 .212-.151.226.226 0 0 0 .022-.079v-1.916h-2.554v1.748a.463.463 0 0 0 .057.244.485.485 0 0 0 .219.169.977.977 0 0 0 .276.072v.065h-1.86v-.065a1.378 1.378 0 0 0 .309-.086.589.589 0 0 0 .226-.151.269.269 0 0 0 .043-.108 1.577 1.577 0 0 0 .025-.172v-3.464a1.3 1.3 0 0 0 -.029-.179.3.3 0 0 0 -.057-.126.513.513 0 0 0 -.223-.158 1.317 1.317 0 0 0 -.3-.068v-.065h1.924v.068l-.194.039a.607.607 0 0 0 -.187.079.463.463 0 0 0 -.144.151.514.514 0 0 0 -.065.244v1.644h2.552v-1.68a.477.477 0 0 0 -.061-.215.488.488 0 0 0 -.266-.215 1.31 1.31 0 0 0 -.3-.05v-.065h1.946v.068a1.041 1.041 0 0 0 -.305.086.46.46 0 0 0 -.219.2.359.359 0 0 0 -.039.126.648.648 0 0 1 -.018.179.781.781 0 0 0 0 .2v3.26a.481.481 0 0 0 .047.215.445.445 0 0 0 .226.179 1.374 1.374 0 0 0 .309.072v.065z" transform="translate(-13.895 -6.416)"/><path d="m119.055 55.273v-.065a1.3 1.3 0 0 0 .3-.083.643.643 0 0 0 .237-.169.262.262 0 0 0 .047-.111 1.48 1.48 0 0 0 .025-.169v-3.453a1.3 1.3 0 0 0 -.029-.18.3.3 0 0 0 -.057-.126.513.513 0 0 0 -.223-.158 1.317 1.317 0 0 0 -.3-.068v-.065h1.931v.065a1.687 1.687 0 0 0 -.291.072.416.416 0 0 0 -.241.208.614.614 0 0 0 -.061.276q0 .169 0 .316v3.152a.463.463 0 0 0 .057.244.484.484 0 0 0 .244.169 1.328 1.328 0 0 0 .306.072v.065z" transform="translate(-15.085 -6.416)"/><path d="m133.285 52.11a2.189 2.189 0 0 0 -.251-.582 2.071 2.071 0 0 0 -.4-.47 1.8 1.8 0 0 0 -.517-.316 1.608 1.608 0 0 0 -.61-.115 1.565 1.565 0 0 0 -.793.2 1.831 1.831 0 0 0 -.585.531 2.513 2.513 0 0 0 -.359.747 2.936 2.936 0 0 0 -.126.854 2.8 2.8 0 0 0 .133.872 2.154 2.154 0 0 0 .377.718 1.8 1.8 0 0 0 .6.474 1.709 1.709 0 0 0 .775.176 1.623 1.623 0 0 0 .628-.122 1.909 1.909 0 0 0 .524-.323 1.949 1.949 0 0 0 .388-.463 1.713 1.713 0 0 0 .215-.538h.075l-.018 1.436h-.079a1.885 1.885 0 0 0 -.162-.2c-.057-.061-.093-.09-.115-.09a.56.56 0 0 0 -.115.068 1.869 1.869 0 0 1 -.3.147 2.819 2.819 0 0 1 -.47.144 3 3 0 0 1 -.639.061 3.231 3.231 0 0 1 -1.077-.172 2.344 2.344 0 0 1 -.822-.485 2.107 2.107 0 0 1 -.521-.75 2.48 2.48 0 0 1 -.179-.958 2.445 2.445 0 0 1 0-.266 2.362 2.362 0 0 1 .057-.316 2.645 2.645 0 0 1 .115-.359 2.41 2.41 0 0 1 .19-.359 2.326 2.326 0 0 1 .337-.42 2.153 2.153 0 0 1 .47-.359 2.618 2.618 0 0 1 .614-.241 3.012 3.012 0 0 1 .768-.09 2.872 2.872 0 0 1 .678.072 3.1 3.1 0 0 1 .485.154 1.822 1.822 0 0 1 .3.154.58.58 0 0 0 .115.072.111.111 0 0 0 .05-.029l.079-.072.086-.1a1.351 1.351 0 0 0 .083-.115h.072v1.436z" transform="translate(-16.327 -6.405)"/><path d="m140.163 54.539a1.687 1.687 0 0 1 -.33.513 1.486 1.486 0 0 1 -.481.359 1.4 1.4 0 0 1 -.578.122 1.655 1.655 0 0 1 -.524-.09 1.4 1.4 0 0 1 -.858-.79 1.662 1.662 0 0 1 -.147-.718 1.511 1.511 0 0 1 .115-.574 1.529 1.529 0 0 1 .808-.833 1.547 1.547 0 0 1 1.16-.032 1.479 1.479 0 0 1 .836.765 1.536 1.536 0 0 1 .14.675 1.6 1.6 0 0 1 -.141.603zm-.528-1.1a1.73 1.73 0 0 0 -.158-.467 1.041 1.041 0 0 0 -.291-.359.718.718 0 0 0 -.445-.14.607.607 0 0 0 -.381.129 1.113 1.113 0 0 0 -.287.341 1.751 1.751 0 0 0 -.18.47 2.344 2.344 0 0 0 -.061.535 2.909 2.909 0 0 0 .05.564 1.527 1.527 0 0 0 .169.47.933.933 0 0 0 .3.323.765.765 0 0 0 .434.118.614.614 0 0 0 .424-.151 1.145 1.145 0 0 0 .276-.381 2.028 2.028 0 0 0 .154-.5 2.748 2.748 0 0 0 .047-.492 2.511 2.511 0 0 0 -.051-.462z" transform="translate(-17.389 -6.64)"/><path d="m142.636 55.751a.388.388 0 0 1 -.273.093.4.4 0 0 1 -.276-.1.359.359 0 0 1 -.111-.269.388.388 0 0 1 .111-.28.382.382 0 0 1 .549 0 .427.427 0 0 1 .1.287.337.337 0 0 1 -.1.269z" transform="translate(-17.989 -6.98)"/><path d="m145.414 56.128a.974.974 0 0 1 -.133.244 1.554 1.554 0 0 1 -.183.208 2.01 2.01 0 0 1 -.208.172l-.047-.047a1.579 1.579 0 0 0 .3-.359.865.865 0 0 0 .111-.452.535.535 0 0 0 -.047-.208q-.047-.108-.115-.118a.305.305 0 0 1 -.093.2.327.327 0 0 1 -.23.075.3.3 0 0 1 -.223-.086.32.32 0 0 1 -.086-.237.359.359 0 0 1 .122-.287.449.449 0 0 1 .291-.1.477.477 0 0 1 .241.061.624.624 0 0 1 .183.162.75.75 0 0 1 .118.23.828.828 0 0 1 .043.258.811.811 0 0 1 -.044.284z" transform="translate(-18.304 -6.987)"/><path d="m157.25 55.272h-4.15v-.065a1.7 1.7 0 0 0 .32-.083.6.6 0 0 0 .248-.162.327.327 0 0 0 .054-.111 1.077 1.077 0 0 0 .036-.172.686.686 0 0 1 .022-.2.676.676 0 0 0 0-.208v-3.03a1.19 1.19 0 0 0 -.029-.179.294.294 0 0 0 -.057-.122.571.571 0 0 0 -.241-.169 1.324 1.324 0 0 0 -.319-.079v-.065h2.066v.065l-.2.039a.807.807 0 0 0 -.219.083.538.538 0 0 0 -.176.165.513.513 0 0 0 -.083.28v3.461a.581.581 0 0 0 .068.276.265.265 0 0 0 .1.065 1.011 1.011 0 0 0 .187.054l.241.039a2.068 2.068 0 0 0 .258 0h.413l.276-.029a1.664 1.664 0 0 0 .251-.05 1.436 1.436 0 0 0 .431-.187 1.361 1.361 0 0 0 .294-.269 1.643 1.643 0 0 0 .208-.33q.083-.179.162-.359l.065.018z" transform="translate(-19.399 -6.415)"/><path d="m162.871 52.761h-.984v1.7a.675.675 0 0 0 .144.477.488.488 0 0 0 .359.147.689.689 0 0 0 .309-.061.574.574 0 0 0 .212-.19l.039.018a1.255 1.255 0 0 1 -.108.2.775.775 0 0 1 -.18.194.876.876 0 0 1 -.266.136 1.188 1.188 0 0 1 -.359.047.808.808 0 0 1 -.262-.043.671.671 0 0 1 -.219-.122.743.743 0 0 1 -.158-.179.391.391 0 0 1 -.061-.2v-2.128h-.445v-.072l.933-.89h.05v.564h1.2z" transform="translate(-20.386 -6.564)"/><path d="m168.407 55.286h-.039v-.646a1.31 1.31 0 0 1 -.442.477 1.21 1.21 0 0 1 -.635.154 1.181 1.181 0 0 1 -.463-.093 1.077 1.077 0 0 1 -.4-.291 1.476 1.476 0 0 1 -.276-.485 1.946 1.946 0 0 1 -.1-.661 1.634 1.634 0 0 1 .118-.628 1.519 1.519 0 0 1 .854-.847 1.8 1.8 0 0 1 .671-.122 1.956 1.956 0 0 1 .359.032 2.661 2.661 0 0 1 .312.079c0-.065 0-.154 0-.266v-.908l-.531-.2v-.039l1.027-.284h.05v4.193a1.491 1.491 0 0 0 .194.09l.266.111v.048zm-.047-2.43a1.257 1.257 0 0 0 -.359-.427.718.718 0 0 0 -.406-.162.768.768 0 0 0 -.431.115.944.944 0 0 0 -.294.309 1.458 1.458 0 0 0 -.172.445 2.43 2.43 0 0 0 -.054.517 2.037 2.037 0 0 0 .065.513 1.393 1.393 0 0 0 .194.438 1.03 1.03 0 0 0 .32.309.833.833 0 0 0 .442.115.639.639 0 0 0 .456-.179.822.822 0 0 0 .241-.46z" transform="translate(-21.039 -6.407)"/><path d="m172.447 55.751a.388.388 0 0 1 -.273.093.4.4 0 0 1 -.276-.1.359.359 0 0 1 -.111-.269.388.388 0 0 1 .111-.28.394.394 0 0 1 .556.007.427.427 0 0 1 .1.287.337.337 0 0 1 -.107.262z" transform="translate(-21.766 -6.98)"/><path d="m38.915.107a89.028 89.028 0 0 0 -12.776 2.764 62.59 62.59 0 0 0 -13.4 5.708 44.637 44.637 0 0 0 -8.16 6 29.182 29.182 0 0 0 -3.879 4.374 4.843 4.843 0 0 0 -.643.98c0 .025-.043.054-.047.083a1.228 1.228 0 0 0 .118.258l.33.718 2.253 4.808 1.077 2.308a42.361 42.361 0 0 1 11.943-4 40.009 40.009 0 0 0 -5.7 4.667q-1.331 1.325-2.531 2.765-.3.359-.592.718a6.127 6.127 0 0 0 -.646.84c-.086.162-.054.183.029.359l.2.424.431.915 1.892 4.039a25.535 25.535 0 0 1 8.156-4.067 13.082 13.082 0 0 0 -3.26 5.026 13.972 13.972 0 0 0 -.341 7.327 23.514 23.514 0 0 0 1.795 5.27 1.114 1.114 0 0 0 -.039-.646c-.039-.208-.065-.506-.09-.761q-.075-.8-.075-1.594a16.592 16.592 0 0 1 .28-3.134 18.772 18.772 0 0 1 1.86-5.128s0 .022 0 0a20.918 20.918 0 0 1 1.77-2.513 16.894 16.894 0 0 1 2.441-2.359q.718-.564 1.479-1.055a1.924 1.924 0 0 0 .664-.5 9.563 9.563 0 0 0 .431-.923l1.834-3.913a30.941 30.941 0 0 0 -8.009 0 35.978 35.978 0 0 1 9.933-4.765 1.264 1.264 0 0 0 .357-.1 1.7 1.7 0 0 0 .212-.452l.452-.969.815-1.741 1.906-4.067a51.224 51.224 0 0 0 -15.8-.775c.912-.485 1.795-.994 2.753-1.436 1.145-.517 2.312-.923 3.5-1.328a41.52 41.52 0 0 1 5.711-1.457c1.49-.28 2.98-.542 4.487-.718l1.1-.126.549-.054.276-.025c.183 0 .172 0 .266-.147a6.72 6.72 0 0 0 .481-1.03l.542-1.16c1.486-3.17 2.915-6.379 4.466-9.517z"/></g></svg>