<svg xmlns="http://www.w3.org/2000/svg" viewBox="0 0 600 428"><defs><style>.a{fill:white;}</style></defs><title>Japan Accessibility Conference digital Information</title><path d="M25.547,411.781H7.962q-.511,0-.512-.342c0-.227.114-.341.512-.341h2.39c.57,0,.626-.513.626-2.334V374.619c0-1.821-.056-2.333-.626-2.333H7.962q-.511,0-.512-.341c0-.228.114-.342.512-.342H25.547c11.268,0,17.983,9.276,17.983,19.918C43.53,402.618,37.384,411.781,25.547,411.781Zm7.512-28.512c-.341-4.268-1.025-10.983-7.683-10.983H20.141c-.4,0-.569.171-.569.341v38.13c0,.17.113.341.512.341h5.349c5.862,0,7.227-4.667,7.683-11.382A122.154,122.154,0,0,0,33.059,383.269Z"/><path d="M59.107,411.781H46.018c-.4,0-.512-.057-.512-.285s.114-.341.512-.341h2.163c.512,0,.569-.4.569-2.163V390.553c0-1.764-.057-2.105-.569-2.105H46.018c-.4,0-.512-.113-.512-.341s.114-.285.512-.285h9.846c.4,0,.455.114.455.285v20.885c0,1.765.057,2.163.569,2.163h2.219c.4,0,.512.114.512.341S59.449,411.781,59.107,411.781Zm-6.6-31.869a4.171,4.171,0,0,1-4.325-4.1,4.216,4.216,0,0,1,4.325-4.154,4.154,4.154,0,0,1,4.211,4.154A4.107,4.107,0,0,1,52.506,379.912Z"/><path d="M60.758,419.293a7.342,7.342,0,0,1,5.179-7.227v-.115a8.247,8.247,0,0,1-1.195.058,3.206,3.206,0,0,1-3.472-3.074c0-1.764,1.366-3.415,4.439-3.471a9.289,9.289,0,0,1-4.041-8.138c0-5.634,3.7-10.187,10.984-10.187a12.389,12.389,0,0,1,6.829,1.765c.4.227.512.113.74-.172a4.536,4.536,0,0,1,3.813-1.593c2.5,0,5.577,1.536,5.577,4.667a2.88,2.88,0,1,1-5.748.284c0-1.593.911-2.106.911-3.073,0-.8-.626-1.195-1.48-1.195a3.238,3.238,0,0,0-2.618,1.252c-.284.4-.284.512,0,.74a9.866,9.866,0,0,1,2.96,7.341c0,5.577-3.643,10.13-10.927,10.13a14.482,14.482,0,0,1-5.748-1.138,2.277,2.277,0,0,0-1.024-.171c-2.5.113-3.13,1.309-3.13,3.016a2.294,2.294,0,0,0,2.561,2.5,3.642,3.642,0,0,0,1.593-.341h4.61c.342,0,.455.114.455.341s-.113.285-.455.285H70.547c-1.025,0-1.253.8-1.366,2.9a73.927,73.927,0,0,0,0,8.707c.17,2.789,1.593,4.04,4.154,4.04s4.439-.853,4.439-4.5v-8.992c0-1.764-.057-2.162-.512-2.162H75.5c-.4,0-.512-.057-.512-.285s.114-.341.512-.341H87.733q.511,0,.512.341c0,.228-.114.285-.512.285H85.8c-.512,0-.569.4-.569,2.162v6.317c0,3.586-2.333,7.74-11.951,7.74C66.278,428,60.758,425.268,60.758,419.293ZM76.18,401.309a64.613,64.613,0,0,0,0-8.138c-.227-3.414-.8-5.406-3.414-5.406-2.789,0-3.358,1.992-3.642,5.406a64.611,64.611,0,0,0,0,8.138c.227,3.415.853,5.407,3.528,5.407C75.384,406.716,75.9,404.667,76.18,401.309Z"/><path d="M103.606,411.781H90.517c-.4,0-.512-.057-.512-.285s.114-.341.512-.341h2.162c.513,0,.57-.4.57-2.163V390.553c0-1.764-.057-2.105-.57-2.105H90.517c-.4,0-.512-.113-.512-.341s.114-.285.512-.285h9.845c.4,0,.456.114.456.285v20.885c0,1.765.056,2.163.568,2.163h2.22c.4,0,.512.114.512.341S103.948,411.781,103.606,411.781Zm-6.6-31.869a4.172,4.172,0,0,1-4.326-4.1,4.217,4.217,0,0,1,4.326-4.154,4.154,4.154,0,0,1,4.211,4.154A4.107,4.107,0,0,1,97.005,379.912Z"/><path d="M106.474,405.862V388.9c0-.172-.114-.4-.569-.4H104.2c-.455,0-.569-.114-.569-.342s.171-.341.569-.341h1.707c.455,0,.569-.171.569-.341v-5.293a.735.735,0,0,1,.513-.74c2.9-.739,5.235-2.162,6.26-3.642a.5.5,0,0,1,.512-.341c.227,0,.341.114.341.455v9.561c0,.17.114.341.569.341H118.6c.455,0,.569.114.569.341s-.171.342-.569.342h-3.927c-.455,0-.569.227-.569.4v19.121c0,2.39.342,3.528,2.106,3.528,1.536,0,2.788-1.252,2.788-3.528,0-.569-.056-.911.4-.911.284,0,.455.114.455.569,0,3.586-2.219,4.78-5.975,4.78C109.434,412.463,106.474,409.789,106.474,405.862Z"/><path d="M147.467,410.016c-.4,1.2-1.878,2.447-5.35,2.447-3.186,0-5.122-1.194-5.634-3.186h-.056c-1.366,2.219-3.358,3.186-7.114,3.186-4.553,0-7.854-2.333-7.854-6.316,0-3.585,2.106-5.521,5.691-6.26,1.992-.455,4.667-1.082,6.26-1.594,1.992-.739,2.846-1.195,2.846-2.447v-4.04c0-3.586-1.821-4.1-3.87-4.1-3.7,0-4.553,1.2-4.553,1.992,0,1.309,1.821,1.423,1.821,3.528,0,1.878-1.593,3.017-3.471,3.017A3.2,3.2,0,0,1,122.825,393c0-3.472,4.382-5.862,9.789-5.862,6.829,0,11.268,2.959,11.268,8.366v14.227c0,.853.227,1.537,1.081,1.537a2.211,2.211,0,0,0,1.878-1.423c.057-.228.17-.285.4-.285C147.467,409.618,147.524,409.789,147.467,410.016Zm-11.211-2.731V397.61c-4.553,2.049-6.545,2.562-6.716,6.716-.057,1.366-.057,3.357,0,4.5.114,1.309.57,2.732,2.5,2.732A4.492,4.492,0,0,0,136.256,407.285Z"/><path d="M162.048,411.781H148.959c-.4,0-.512-.057-.512-.285s.114-.341.512-.341h2.163c.512,0,.569-.4.569-2.163V374.335c0-1.764-.057-2.106-.569-2.106h-2.163c-.4,0-.512-.114-.512-.342s.114-.284.512-.284H158.8c.4,0,.456.114.456.284v37.105c0,1.765.056,2.163.569,2.163h2.219c.4,0,.513.114.513.341S162.39,411.781,162.048,411.781Z"/><path d="M195.511,411.781H180.942c-.342,0-.512-.114-.512-.342s.114-.341.512-.341h2.39c.569,0,.626-.513.626-2.334V374.619c0-1.821-.057-2.333-.626-2.333h-2.39c-.342,0-.512-.114-.512-.341s.114-.342.512-.342h14.569c.4,0,.569.114.569.342s-.114.341-.569.341H193.12c-.512,0-.568.512-.568,2.333v34.145c0,1.821.056,2.334.568,2.334h2.391c.4,0,.569.114.569.341S195.966,411.781,195.511,411.781Z"/><path d="M228.052,411.781H215.305c-.342,0-.513-.057-.513-.285s.114-.341.513-.341h1.935c.512,0,.568-.4.568-2.163V392.374c0-3.47-1.877-4.5-3.983-4.5a4.962,4.962,0,0,0-5.008,4.5v16.618c0,1.765.056,2.163.569,2.163h1.935c.4,0,.512.114.512.341s-.113.285-.512.285h-12.8c-.4,0-.512-.057-.512-.285s.113-.341.512-.341h2.162c.512,0,.569-.4.569-2.163V390.553c0-1.764-.057-2.105-.569-2.105h-2.162c-.4,0-.512-.113-.512-.341s.113-.285.512-.285h9.674c.4,0,.512.114.512.285v2.162h.114c1.138-1.821,3.016-3.13,6.942-3.13,3.871,0,9.619,2.106,9.619,8.878v12.975c0,1.765.113,2.163.569,2.163h2.1c.4,0,.513.114.513.341S228.45,411.781,228.052,411.781Z"/><path d="M243.943,411.781H230.228c-.4,0-.512-.057-.512-.285s.113-.341.512-.341h2.162c.512,0,.57-.4.57-2.163V388.847c0-.172-.115-.342-.57-.342h-1.764c-.456,0-.569-.114-.569-.342s.171-.341.569-.341h1.764c.455,0,.57-.227.57-.4V380.2c0-5.635,3.642-9.277,10.528-9.277,3.755,0,7.682,2.219,7.682,5.634a3.436,3.436,0,0,1-3.642,3.528,3.39,3.39,0,0,1-3.585-3.414c0-2.333,1.935-2.618,1.935-3.756,0-.967-1.253-1.423-2.562-1.423-1.934,0-2.788,1.2-2.788,3.244v12.691c0,.171.114.4.569.4h3.984c.455,0,.568.114.568.341s-.17.342-.568.342H241.1c-.455,0-.569.17-.569.342v20.145c0,1.765.057,2.163.569,2.163h2.846c.342,0,.455.114.455.341S244.285,411.781,243.943,411.781Z"/><path d="M258.785,412.463c-8.48,0-13.659-5.747-13.659-12.576,0-7,4.837-12.748,13.6-12.748,8.479,0,13.715,5.748,13.715,12.577C272.443,406.716,267.548,412.463,258.785,412.463Zm4.894-17.869c-.285-3.585-1.025-6.829-4.894-6.829-4.212,0-4.667,3.187-4.952,7a68.388,68.388,0,0,0,.057,10.243c.285,3.586.967,6.829,4.9,6.829,4.211,0,4.609-3.186,4.894-7A61.681,61.681,0,0,0,263.679,394.594Z"/><path d="M287.149,411.781H273.434c-.4,0-.512-.057-.512-.285s.113-.341.512-.341H275.6c.512,0,.569-.4.569-2.163V390.553c0-1.764-.057-2.105-.569-2.105h-2.162c-.4,0-.512-.113-.512-.341s.113-.285.512-.285h9.674c.4,0,.512.114.512.285v2.5h.114a6.247,6.247,0,0,1,5.748-3.471c2.39,0,5.406,1.65,5.406,4.78a3.656,3.656,0,0,1-3.813,3.87,3.487,3.487,0,0,1-3.7-3.415c0-2.218,1.878-2.333,1.878-3.527a.988.988,0,0,0-1.081-.968c-1.992,0-4.439,2.162-4.439,5.065v16.048c0,1.765.056,2.163.569,2.163h2.846c.4,0,.512.114.512.341S287.49,411.781,287.149,411.781Z"/><path d="M341.208,411.781H328.46c-.341,0-.455-.057-.455-.285s.114-.341.455-.341h1.992c.455,0,.512-.4.512-2.163V392.374c0-3.414-1.707-4.5-3.813-4.5a4.907,4.907,0,0,0-4.723,4.61v16.5c0,1.765.057,2.163.569,2.163h1.935c.4,0,.512.114.512.341s-.17.285-.512.285H312.356c-.4,0-.513-.057-.513-.285s.114-.341.513-.341h1.934c.512,0,.569-.4.569-2.163V392.374c0-3.414-1.707-4.5-3.869-4.5a4.907,4.907,0,0,0-4.724,4.5v16.618c0,1.765.057,2.163.569,2.163h1.935c.4,0,.512.114.512.341s-.113.285-.512.285h-12.8c-.4,0-.513-.057-.513-.285s.114-.341.513-.341h2.162c.513,0,.569-.4.569-2.163V390.553c0-1.764-.056-2.105-.569-2.105h-2.162c-.4,0-.513-.113-.513-.341s.114-.285.513-.285h9.674c.4,0,.512.114.512.285v2.162h.114c1.138-1.821,2.959-3.13,6.658-3.13,3.017,0,7.285,1.366,8.764,5.179h.057c.512-3.414,3.13-5.179,7.341-5.179,3.87,0,9.5,2.106,9.5,8.878v12.975c0,1.765.057,2.163.512,2.163h2.106c.4,0,.512.114.512.341S341.606,411.781,341.208,411.781Z"/><path d="M368.412,410.016c-.4,1.2-1.878,2.447-5.349,2.447-3.187,0-5.122-1.194-5.634-3.186h-.057c-1.366,2.219-3.358,3.186-7.114,3.186-4.552,0-7.853-2.333-7.853-6.316,0-3.585,2.106-5.521,5.691-6.26,1.992-.455,4.667-1.082,6.26-1.594,1.992-.739,2.846-1.195,2.846-2.447v-4.04c0-3.586-1.821-4.1-3.87-4.1-3.7,0-4.553,1.2-4.553,1.992,0,1.309,1.821,1.423,1.821,3.528,0,1.878-1.593,3.017-3.472,3.017A3.2,3.2,0,0,1,343.771,393c0-3.472,4.382-5.862,9.789-5.862,6.828,0,11.267,2.959,11.267,8.366v14.227c0,.853.228,1.537,1.082,1.537a2.213,2.213,0,0,0,1.878-1.423c.056-.228.17-.285.4-.285C368.412,409.618,368.469,409.789,368.412,410.016Zm-11.21-2.731V397.61c-4.553,2.049-6.545,2.562-6.716,6.716-.056,1.366-.056,3.357,0,4.5.114,1.309.569,2.732,2.5,2.732A4.492,4.492,0,0,0,357.2,407.285Z"/><path d="M370.27,405.862V388.9c0-.172-.115-.4-.57-.4h-1.707c-.455,0-.569-.114-.569-.342s.171-.341.569-.341H369.7c.455,0,.57-.171.57-.341v-5.293a.735.735,0,0,1,.512-.74c2.9-.739,5.235-2.162,6.259-3.642a.5.5,0,0,1,.513-.341c.227,0,.341.114.341.455v9.561c0,.17.114.341.57.341h3.926c.455,0,.569.114.569.341s-.171.342-.569.342h-3.926c-.456,0-.57.227-.57.4v19.121c0,2.39.342,3.528,2.106,3.528,1.536,0,2.788-1.252,2.788-3.528,0-.569-.056-.911.4-.911.284,0,.455.114.455.569,0,3.586-2.219,4.78-5.975,4.78C373.229,412.463,370.27,409.789,370.27,405.862Z"/><path d="M398.252,411.781H385.163c-.4,0-.512-.057-.512-.285s.114-.341.512-.341h2.163c.512,0,.569-.4.569-2.163V390.553c0-1.764-.057-2.105-.569-2.105h-2.163c-.4,0-.512-.113-.512-.341s.114-.285.512-.285h9.846c.4,0,.454.114.454.285v20.885c0,1.765.058,2.163.57,2.163h2.219c.4,0,.513.114.513.341S398.593,411.781,398.252,411.781Zm-6.6-31.869a4.171,4.171,0,0,1-4.325-4.1,4.216,4.216,0,0,1,4.325-4.154,4.154,4.154,0,0,1,4.211,4.154A4.107,4.107,0,0,1,391.651,379.912Z"/><path d="M412.838,412.463c-8.48,0-13.658-5.747-13.658-12.576,0-7,4.837-12.748,13.6-12.748,8.479,0,13.715,5.748,13.715,12.577C426.5,406.716,421.6,412.463,412.838,412.463Zm4.894-17.869c-.284-3.585-1.025-6.829-4.894-6.829-4.211,0-4.666,3.187-4.951,7a68.655,68.655,0,0,0,.057,10.243c.285,3.586.967,6.829,4.894,6.829,4.211,0,4.61-3.186,4.894-7A61.681,61.681,0,0,0,417.732,394.594Z"/><path d="M457.022,411.781H444.275c-.341,0-.512-.057-.512-.285s.114-.341.512-.341h1.935c.512,0,.569-.4.569-2.163V392.374c0-3.47-1.878-4.5-3.984-4.5a4.963,4.963,0,0,0-5.008,4.5v16.618c0,1.765.057,2.163.57,2.163h1.935c.4,0,.512.114.512.341s-.114.285-.512.285h-12.8c-.4,0-.513-.057-.513-.285s.115-.341.513-.341h2.162c.513,0,.57-.4.57-2.163V390.553c0-1.764-.057-2.105-.57-2.105h-2.162c-.4,0-.513-.113-.513-.341s.115-.285.513-.285h9.675c.4,0,.512.114.512.285v2.162h.113c1.139-1.821,3.017-3.13,6.944-3.13,3.869,0,9.617,2.106,9.617,8.878v12.975c0,1.765.114,2.163.569,2.163h2.105c.4,0,.513.114.513.341S457.421,411.781,457.022,411.781Z"/><path class="a" d="M31.116,90.469c16.855,0,24.632-12.836,24.632-26.71V7c0-4.148.132-5.444,1.3-5.444h5.836c.907,0,1.165-.26,1.165-.908,0-.518-.387-.649-1.165-.649H31.634c-.908,0-1.166.131-1.166.778,0,.519.258.779,1.166.779h6.743c1.3,0,1.425,1.3,1.425,5.444V79.579c0,4.147-1.3,9.594-8.686,9.594-4.148,0-7.649-1.428-7.649-4.539,0-3.372,4.8-4.279,4.8-10.373,0-5.573-4.408-9.074-9.334-9.074a9.2,9.2,0,0,0-9.334,9.594C9.594,85.152,21,90.469,31.116,90.469Z"/><path class="a" d="M93.471,58.575c-3.5,1.166-9.723,2.723-13.484,3.63-7.13,1.686-11.927,5.7-11.927,14.131,0,8.169,6.222,14.133,16.855,14.133,7.259,0,12.056-1.946,15.428-7.39h.26c.647,4.666,4.537,7.39,10.76,7.39,7,0,10.112-3.113,11.02-5.575.131-.518.131-.907-.387-.907-.521-.132-.779,0-1.039.647a5.371,5.371,0,0,1-4.537,3.371c-2.075,0-2.593-1.557-2.593-3.761v-32.8c0-12.187-9.336-18.67-22.818-18.67-10.373,0-19.967,5.186-19.967,12.708a6.539,6.539,0,0,0,6.741,6.74c3.632,0,6.872-2.332,6.872-6.222,0-4.539-3.761-4.668-3.761-7.39,0-1.947,1.946-4.54,9.855-4.54,5.186,0,9.465,1.3,9.465,10.633V53C100.214,56.111,98.268,56.89,93.471,58.575Zm6.743,19.965c0,4.8-5.057,10.112-10.762,10.112-5.057,0-6.093-3.5-6.354-6.48a76.167,76.167,0,0,1-.129-9.466c.518-9.854,5.836-10.761,17.245-15.559Z"/><path class="a" d="M212.284,58.575c-3.5,1.166-9.724,2.723-13.484,3.63-7.13,1.686-11.927,5.7-11.927,14.131,0,8.169,6.222,14.133,16.855,14.133,7.259,0,12.056-1.946,15.428-7.39h.26c.647,4.666,4.537,7.39,10.76,7.39,7,0,10.112-3.113,11.019-5.575.132-.518.132-.907-.387-.907-.52-.132-.778,0-1.038.647a5.372,5.372,0,0,1-4.537,3.371c-2.075,0-2.593-1.557-2.593-3.761v-32.8c0-12.187-9.337-18.67-22.818-18.67-10.373,0-19.967,5.186-19.967,12.708a6.539,6.539,0,0,0,6.741,6.74c3.632,0,6.872-2.332,6.872-6.222,0-4.539-3.761-4.668-3.761-7.39,0-1.947,1.946-4.54,9.855-4.54,5.186,0,9.465,1.3,9.465,10.633V53C219.027,56.111,217.081,56.89,212.284,58.575Zm6.743,19.965c0,4.8-5.058,10.112-10.762,10.112-5.057,0-6.094-3.5-6.354-6.48a76.167,76.167,0,0,1-.129-9.466c.518-9.854,5.836-10.761,17.245-15.559Z"/><path class="a" d="M250.047,87.616h-5.315c-.779,0-1.037.129-1.037.649s.258.648,1.037.648H271.31c.779,0,1.037-.129,1.037-.648s-.258-.649-1.037-.649h-5.055c-1.167,0-1.3-1.3-1.3-5.057V44.831c0-3.24,3.758-10.5,12.185-10.5,5.186,0,10.243,2.2,10.243,10.89V82.559c0,3.76-.128,5.057-1.167,5.057h-5.055c-.907,0-1.168.129-1.168.649s.389.648,1.168.648h26.318c.908,0,1.168-.129,1.168-.648s-.26-.649-1.168-.649H302.3c-1.036,0-1.168-1.3-1.168-5.057V53c0-15.3-12.187-20.227-21-20.227-8.687,0-12.834,3.5-15.167,7.261h-.26V34.979c0-.389-.261-.649-1.168-.649h-18.8c-.779,0-1.037.128-1.037.649s.258.647,1.037.647h5.315c1.168,0,1.3,1.168,1.3,4.926V82.559C251.343,86.319,251.215,87.616,250.047,87.616Z"/><path class="a" d="M71.047,286.785c-.518,0-.907.26-.907,1.168v2.333c0,19.317-10.76,32.023-26.837,32.023-16.337,0-18.541-12.446-19.449-26.319-1.036-12.966-.778-22.271-.129-35.626.908-16.335,3.5-27.355,18.671-27.355,12.316,0,23.465,10.76,23.465,30.987v1.425c0,.908.26,1.3.778,1.3s.907-.26.907-1.3V234.174c0-1.036-.389-1.294-.907-1.294-.647,0-.778.387-.778,1.294v.91c0,2.591-3.37,1.037-6.094,0a54.116,54.116,0,0,0-17.5-3.371c-26.058,0-38.377,18.77-38.377,45.218,0,22.56,11.8,46.805,38.9,46.805,5.962,0,14.649-1.038,21.132-3.5,3.111-1.039,6.223-2.464,6.223.129v.907c0,.908.26,1.3.907,1.3.518,0,.907-.26.907-1.3V287.953C71.954,287.045,71.565,286.785,71.047,286.785Z"/><path class="a" d="M108.641,266.04c-18.41,0-28.654,13.095-28.654,29.043,0,15.559,11.02,28.653,28.783,28.653,18.281,0,28.522-13.094,28.522-29.042C137.292,279.135,126.4,266.04,108.641,266.04Zm12.316,40.452c-.778,8.3-1.815,15.948-12.187,15.948-9.855,0-11.67-7.651-12.317-15.688a141.664,141.664,0,0,1,0-23.467c.647-8.3,1.815-15.949,12.188-15.949,9.723,0,11.538,7.651,12.316,15.688A142.112,142.112,0,0,1,120.957,306.492Z"/><path class="a" d="M202.957,320.883h-5.186c-1.037,0-1.168-1.3-1.168-5.057V286.267c0-15.3-12.187-20.227-21-20.227-8.687,0-12.835,3.5-15.168,7.261h-.26v-5.057c0-.387-.26-.647-1.168-.647h-18.8c-.778,0-1.036.129-1.036.647s.258.649,1.036.649h5.315c1.168,0,1.3,1.168,1.3,4.926v42.007c0,3.76-.129,5.057-1.3,5.057h-5.315c-.778,0-1.036.129-1.036.649s.258.648,1.036.648h26.579c.778,0,1.036-.129,1.036-.648s-.258-.649-1.036-.649h-5.055c-1.168,0-1.3-1.3-1.3-5.057V278.1c0-3.24,3.759-10.5,12.185-10.5,5.187,0,10.244,2.2,10.244,10.89v37.339c0,3.76-.129,5.057-1.168,5.057h-5.055c-.907,0-1.167.129-1.167.649s.389.648,1.167.648h26.319c.907,0,1.168-.129,1.168-.648S203.864,320.883,202.957,320.883Z"/><path class="a" d="M239.1,267.6h-9.205c-1.038,0-1.3-.519-1.3-.908V240.268c0-4.537,2.072-7.259,6.612-7.259,3.111,0,6.093,1.037,6.093,3.24,0,2.594-3.76,2.983-3.76,7.78,0,4.15,3.371,6.741,7.13,6.741a6.805,6.805,0,0,0,7.132-7.13c0-7.13-8.169-11.927-15.819-11.927-13.224,0-21,8.555-21,20.743v14.233c0,.389-.258.908-1.3.908h-4.019c-.907,0-1.3.26-1.3.778s.26.778,1.3.778h4.019c1.039,0,1.3.387,1.3.777v45.9c0,3.76-.129,5.057-1.3,5.057h-5.315c-.779,0-1.037.129-1.037.649s.258.648,1.037.648H236.5c.776,0,1.166-.129,1.166-.648s-.258-.649-1.166-.649h-6.612c-1.167,0-1.3-1.3-1.3-5.057v-45.9c0-.39.258-.777,1.3-.777H239.1c.908,0,1.3-.26,1.3-.778S240.133,267.6,239.1,267.6Z"/><path class="a" d="M290.888,300.916c-1.036,0-1.168.518-1.168,2.075,0,11.927-8.166,19.06-18.668,19.06-10.243,0-13.226-7.909-13.873-15.43a113.709,113.709,0,0,1-.518-14.91c0-.778.518-.778.908-.778h29.818c2.594,0,3.89-1.166,3.89-5.055,0-12.059-10.5-19.838-24.114-19.838-18.41,0-26.45,14.133-26.45,29.043,0,16.335,9.334,28.653,28.654,28.653,16.724,0,22.557-11.669,22.557-21.392C291.924,301.434,291.538,300.916,290.888,300.916ZM257.05,282.377c.776-8.426,2.722-15.041,9.981-15.041,5.187,0,7.78,3.89,8.819,9.595a70.018,70.018,0,0,1,.907,11.411,1.014,1.014,0,0,1-1.039,1.036H257.7c-.389,0-.907,0-.907-.778C256.79,286.785,256.919,284.71,257.05,282.377Z"/><path class="a" d="M328.792,266.04a14.183,14.183,0,0,0-12.834,7.65H315.7v-5.446c0-.387-.129-.647-1.167-.647h-18.8c-.779,0-1.037.129-1.037.647s.258.649,1.037.649h5.315c1.167,0,1.3,1.168,1.3,4.926v42.007c0,3.76-.129,5.057-1.3,5.057h-5.315c-.779,0-1.037.129-1.037.649s.258.648,1.037.648h28.135c.907,0,1.165-.129,1.165-.648s-.258-.649-1.165-.649h-6.612c-1.167,0-1.3-1.3-1.3-5.057V278.748c0-5.836,5.573-11.151,10.37-11.151a2.251,2.251,0,0,1,2.464,2.2c0,2.332-3.371,2.722-3.371,6.872a6.892,6.892,0,0,0,7.132,6.872,7.352,7.352,0,0,0,7.648-7.651C340.2,269.411,334.107,266.04,328.792,266.04Z"/><path class="a" d="M392.458,300.916c-1.036,0-1.167.518-1.167,2.075,0,11.927-8.167,19.06-18.668,19.06-10.244,0-13.226-7.909-13.873-15.43a113.535,113.535,0,0,1-.519-14.91c0-.778.519-.778.908-.778h29.819c2.593,0,3.89-1.166,3.89-5.055,0-12.059-10.5-19.838-24.115-19.838-18.41,0-26.45,14.133-26.45,29.043,0,16.335,9.337,28.653,28.654,28.653,16.724,0,22.558-11.669,22.558-21.392C393.5,301.434,393.106,300.916,392.458,300.916Zm-33.837-18.539c.776-8.426,2.722-15.041,9.981-15.041,5.186,0,7.779,3.89,8.818,9.595a70.018,70.018,0,0,1,.907,11.411,1.013,1.013,0,0,1-1.038,1.036H359.268c-.389,0-.908,0-.908-.778C358.36,286.785,358.489,284.71,358.621,282.377Z"/><path class="a" d="M460.053,320.883h-5.187c-1.036,0-1.167-1.3-1.167-5.057V286.267c0-15.3-12.188-20.227-21-20.227-8.686,0-12.834,3.5-15.167,7.261h-.26v-5.057c0-.387-.261-.647-1.168-.647H397.3c-.779,0-1.036.129-1.036.647s.257.649,1.036.649h5.315c1.168,0,1.3,1.168,1.3,4.926v42.007c0,3.76-.129,5.057-1.3,5.057H397.3c-.779,0-1.036.129-1.036.649s.257.648,1.036.648H423.88c.778,0,1.036-.129,1.036-.648s-.258-.649-1.036-.649h-5.055c-1.168,0-1.3-1.3-1.3-5.057V278.1c0-3.24,3.758-10.5,12.185-10.5,5.186,0,10.244,2.2,10.244,10.89v37.339c0,3.76-.129,5.057-1.168,5.057h-5.055c-.907,0-1.168.129-1.168.649s.39.648,1.168.648h26.319c.907,0,1.167-.129,1.167-.648S460.96,320.883,460.053,320.883Z"/><path class="a" d="M510.455,300.916c-1.039,0-1.168.518-1.168,2.075,0,12.188-8.687,19.06-16.985,19.06-9.465,0-12.576-8.04-13.223-15.43a150.954,150.954,0,0,1,0-24.244c.907-9.336,2.593-15.041,11.28-15.041,4.926,0,8.687,1.686,8.687,4.54s-3.761,3.371-3.761,8.426a6.979,6.979,0,0,0,7.261,7.13,7.181,7.181,0,0,0,7.388-7.519c0-8.945-10.37-13.873-19.836-13.873-20.743,0-27.486,15.43-27.486,29.043,0,15.946,8.816,28.653,27.615,28.653,15.43,0,21.135-11.669,21.135-21.392C511.362,301.434,511.1,300.916,510.455,300.916Z"/><path class="a" d="M566.3,300.916c-1.036,0-1.168.518-1.168,2.075,0,11.927-8.166,19.06-18.667,19.06-10.244,0-13.227-7.909-13.874-15.43a113.709,113.709,0,0,1-.518-14.91c0-.778.518-.778.907-.778H562.8c2.593,0,3.889-1.166,3.889-5.055,0-12.059-10.5-19.838-24.114-19.838-18.41,0-26.45,14.133-26.45,29.043,0,16.335,9.334,28.653,28.654,28.653,16.724,0,22.557-11.669,22.557-21.392C567.339,301.434,566.953,300.916,566.3,300.916Zm-33.838-18.539c.776-8.426,2.722-15.041,9.981-15.041,5.187,0,7.78,3.89,8.819,9.595a70.018,70.018,0,0,1,.907,11.411,1.014,1.014,0,0,1-1.039,1.036H533.112c-.389,0-.907,0-.907-.778C532.205,286.785,532.334,284.71,532.465,282.377Z"/><path class="a" d="M598.837,117.677H574.382c-.906,0-1.163.131-1.163.777q0,.776,1.163.776h2.33c6.47,0,8.281,4.14,5.3,10.221-3.622,6.986-12.939,22.9-18.371,31.7L543.59,127.123c-4.01-6.47-3.493-7.893-1.165-7.893h6.081c.906,0,1.165-.259,1.165-.905,0-.517-.388-.648-1.165-.648H465.785v85.409c0,3.761.129,7.238,1.3,7.238H483.4c1.168,0,1.379-3.477,1.379-7.238V161.081c0-3.759-.129-4.926-1.3-4.926h-5.315c-.778,0-1.039-.129-1.039-.65s.261-.647,1.039-.647h19.189c.907,0,1.036.26,1.036.647v47.582c0,3.761.046,7.238,1.214,7.238h22.481c-6.411-1.818-9.962-7.18-9.962-13.98V157.322c0-.389-.258-.907-1.3-.907h-3.888c-1.038,0-1.3-.26-1.3-.779s.387-.778,1.3-.778h3.888c1.038,0,1.3-.389,1.3-.778V142.153a1.67,1.67,0,0,1,1.039-1.686c4.537-1.557,8.816-4.668,10.63-7.519.39-.39.65-.779,1.168-.779.647,0,.779.389.779,1.036V154.08c0,.389.257.778,1.3.778h9.334c1.036,0,1.3.26,1.3.778s-.39.779-1.3.779h-9.334c-1.039,0-1.3.518-1.3.907v43.821c0,5.316.907,8.038,5.055,8.038,3.76,0,6.482-2.98,6.482-8.3,0-1.3-.128-1.944.908-1.944.649,0,.907.261.907,1.3,0,5.646-2.338,8.815-6.636,10.09h38.689c.906,0,1.165-.129,1.165-.777q0-.775-1.165-.777H565.2c-1.163,0-1.294-1.294-1.294-5.433V165.291a4.036,4.036,0,0,1,.519-2.459c4.4-7.115,13.454-21.865,18.761-30.017,4.916-8.021,8.02-13.585,15.267-13.585h.388c.906,0,1.163-.259,1.163-.905C600,117.808,599.612,117.677,598.837,117.677ZM491.522,143.172a7.887,7.887,0,0,1-8.038-7.909,8,8,0,0,1,8.038-8.037,7.889,7.889,0,0,1,7.911,8.037A7.78,7.78,0,0,1,491.522,143.172Z"/><path class="a" d="M385.535,209.441c8.555,0,10.63-6.223,11.667-16.724a164.164,164.164,0,0,0,0-21.135c-1.037-10.5-3.112-16.724-11.667-16.724-7.911,0-11.8,7.261-11.8,10.5v33.579C373.737,202.18,377.624,209.441,385.535,209.441Z"/><path class="a" d="M373.737,203.608h-.261l-.075,6.718h9.264A15.021,15.021,0,0,1,373.737,203.608Z"/><path class="a" d="M27.041,209.549q0-.775-1.165-.777H23.028c-6.6,0-10.866-6.081-5.044-24.193l2.587-7.892c.129-.648.389-.777,1.035-.777h25.1a.9.9,0,0,1,1.034.777l8.669,25.618c1.811,5.433,1.034,6.467-1.294,6.467H49.94c-1.034,0-1.294.26-1.294.908,0,.517.389.646,1.294.646H93.311c-13.97-2.808-20.582-14.178-20.582-27.982,0-13.613,6.743-29.043,27.486-29.043,9.465,0,19.835,4.929,19.835,13.873a7.182,7.182,0,0,1-7.388,7.52,6.979,6.979,0,0,1-7.261-7.13c0-5.055,3.761-5.576,3.761-8.427s-3.761-4.539-8.687-4.539c-8.687,0-10.373,5.7-11.28,15.041a151.174,151.174,0,0,0,0,24.243c.647,7.39,3.758,15.43,13.224,15.43,8.3,0,16.984-6.872,16.984-19.059,0-1.557.129-2.075,1.168-2.075.647,0,.907.518.907,1.428,0,8.344-4.208,18.115-15.153,20.72h40.5c-13.97-2.808-20.583-14.178-20.583-27.982,0-13.613,6.743-29.043,27.486-29.043,9.466,0,19.836,4.929,19.836,13.873a7.182,7.182,0,0,1-7.388,7.52,6.979,6.979,0,0,1-7.261-7.13c0-5.055,3.761-5.576,3.761-8.427s-3.761-4.539-8.687-4.539c-8.687,0-10.373,5.7-11.28,15.041a150.942,150.942,0,0,0,0,24.243c.647,7.39,3.758,15.43,13.223,15.43,8.3,0,16.985-6.872,16.985-19.059,0-1.557.129-2.075,1.167-2.075.648,0,.908.518.908,1.428,0,8.344-4.208,18.115-15.153,20.72h41.241c-14.349-2.765-21.322-13.871-21.322-27.982,0-14.909,8.04-29.043,26.45-29.043,13.613,0,24.114,7.78,24.114,19.838,0,3.89-1.3,5.055-3.889,5.055h-29.82c-.389,0-.907,0-.907.779a113.694,113.694,0,0,0,.518,14.909c.647,7.522,3.63,15.43,13.873,15.43,10.5,0,18.668-7.132,18.668-19.059,0-1.557.132-2.075,1.168-2.075.647,0,1.036.518,1.036,1.428,0,8.344-4.3,18.115-16.094,20.72h24.338c-.373-.075-.56-.377-.56-1.145V189.734c0-.907.258-1.167.779-1.167s.776.26.776,1.167v1.815c0,11.409,8.687,18.021,16.6,18.021,7.261,0,11.022-3.629,11.022-8.556,0-15.3-29.043-12.058-29.043-31.636,0-6.611,4.926-16.077,18.152-16.077a30.4,30.4,0,0,1,10.631,2.075c1.946.779,3.89,1.557,3.89,0v-.389c0-.776.26-1.036.778-1.036s.647.26.647,1.036v17.5c0,.778-.258,1.038-.647,1.038-.649,0-.778-.26-.778-1.038v-1.3c0-10.63-7-16.464-14.131-16.464-6.354,0-8.687,4.019-8.687,7.78,0,14.909,29.43,12.185,29.43,31.762,0,6.713-4.8,13.873-14.15,16.055h20.544c-.373-.075-.56-.377-.56-1.145V189.734c0-.907.258-1.167.779-1.167s.776.26.776,1.167v1.815c0,11.409,8.687,18.021,16.595,18.021,7.261,0,11.022-3.629,11.022-8.556,0-15.3-29.043-12.058-29.043-31.636,0-6.611,4.926-16.077,18.152-16.077a30.4,30.4,0,0,1,10.631,2.075c1.946.779,3.89,1.557,3.89,0v-.389c0-.776.26-1.036.778-1.036s.647.26.647,1.036v17.5c0,.778-.258,1.038-.647,1.038-.65,0-.778-.26-.778-1.038v-1.3c0-10.63-7-16.464-14.132-16.464-6.353,0-8.686,4.019-8.686,7.78,0,14.909,29.429,12.185,29.429,31.762,0,6.713-4.795,13.873-14.149,16.055h23.047c1.168,0,1.38-3.477,1.38-7.238V161.081c0-3.759-.129-4.926-1.3-4.926h-5.315c-.779,0-1.039-.129-1.039-.65s.26-.647,1.039-.647H346.17c.908,0,1.036.26,1.036.647v47.582c0,3.761.047,7.238,1.214,7.238h10.322c1.168,0,1.379-3.348,1.379-7.107V121.245c0-3.082-.083-3.516-.7-3.564l-216.932,0c-.021-.6-.028-1.3-.028-2.136V83.208h.129c2.333,3.761,6.612,7.261,14,7.261,13.484,0,25.411-10.114,25.411-28.914,0-18.668-12.058-28.782-25.411-28.782-7.261,0-11.669,3.5-14.131,7.39h-.26V34.979c0-.389-.129-.649-1.168-.649h-18.8c-.779,0-1.036.128-1.036.649s.257.647,1.036.647h5.315c1.168,0,1.3,1.168,1.3,4.926v75c0,.834-.007,1.537-.028,2.136l-91.043,0a1.007,1.007,0,0,0-1.163.777L16.041,184.191C9.574,205.15,5.693,208.772,1.551,208.772H1.163c-.906,0-1.163.26-1.163.908,0,.517.386.646,1.163.646H25.876C26.781,210.326,27.041,210.2,27.041,209.549Zm313.293-82.323a7.889,7.889,0,0,1,7.911,8.037,7.78,7.78,0,0,1-7.911,7.909,7.886,7.886,0,0,1-8.037-7.909A8,8,0,0,1,340.334,127.226ZM142.464,44.831c0-3.24,3.887-10.5,11.8-10.5,8.556,0,10.631,6.222,11.667,16.724a162.118,162.118,0,0,1,0,21c-.907,10.762-3.111,16.856-11.667,16.856-7.911,0-11.8-7.262-11.8-10.5ZM21.477,173.441l12.031-39.849h.26l12.808,39.591c.131.517-.258,1.035-1.035,1.035H22.511C21.606,174.218,21.348,173.96,21.477,173.441Z"/><path class="a" d="M416.71,210.325h5.315c1.168,0,1.38-3.477,1.38-7.238V161.081c0-3.759-.129-4.926-1.3-4.926h-5.315c-.779,0-1.039-.129-1.039-.65s.26-.647,1.039-.647h19.188c.908,0,1.036.26,1.036.647v47.582c0,3.761.047,7.238,1.214,7.238h12.644c1.168,0,1.3-3.477,1.3-7.238V121.116c0-2.948-.082-3.385-.678-3.437H373.737v42.754h.129c2.461-3.632,6.612-7.133,14-7.133,13.352,0,25.411,9.984,25.411,28.783,0,15.909-8.662,25.694-19.566,28.242h23Zm13.435-83.1a7.889,7.889,0,0,1,7.911,8.037,7.78,7.78,0,0,1-7.911,7.909,7.886,7.886,0,0,1-8.037-7.909A8,8,0,0,1,430.145,127.226Z"/><path class="a" d="M196.744,176.64h18.021A1.014,1.014,0,0,0,215.8,175.6a70.027,70.027,0,0,0-.907-11.411c-1.039-5.7-3.632-9.594-8.819-9.594-7.259,0-9.205,6.614-9.981,15.041-.131,2.333-.26,4.408-.26,6.222C195.837,176.64,196.355,176.64,196.744,176.64Z"/><path class="a" d="M285.458,208.794v.387c0,.718-.23,1.09-.672,1.145h10.4a30.916,30.916,0,0,1-5.837-1.532C287.533,208.016,285.458,207.5,285.458,208.794Z"/><path class="a" d="M240.21,208.794v.387c0,.718-.23,1.09-.671,1.145h10.4a30.936,30.936,0,0,1-5.837-1.532C242.285,208.016,240.21,207.5,240.21,208.794Z"/></svg>
