<svg xmlns="http://www.w3.org/2000/svg" width="44" height="44" viewBox="0 0 44 44"><g transform="translate(-710 -9226)"><g transform="translate(710 9226)"><rect width="44" height="44" fill="none" opacity="0.15"/></g><g transform="translate(716 9235)"><path d="M85.152,124.42c12.075,0,18.683-10.014,18.683-18.683,0-.282,0-.563-.013-.845a13.377,13.377,0,0,0,3.278-3.406,13.309,13.309,0,0,1-3.777,1.037,6.606,6.606,0,0,0,2.894-3.637,13.061,13.061,0,0,1-4.174,1.588,6.568,6.568,0,0,0-11.358,4.495,7.258,7.258,0,0,0,.166,1.5A18.646,18.646,0,0,1,77.315,99.6a6.593,6.593,0,0,0,2.036,8.772,6.642,6.642,0,0,1-2.971-.82v.09a6.58,6.58,0,0,0,5.263,6.441,6.6,6.6,0,0,1-2.958.115,6.566,6.566,0,0,0,6.134,4.559,13.17,13.17,0,0,1-8.157,2.817,12.639,12.639,0,0,1-1.562-.09,18.678,18.678,0,0,0,10.052,2.932" transform="translate(-75.1 -98.4)" fill="#fff"/></g></g></svg>