<svg xmlns="http://www.w3.org/2000/svg" xmlns:xlink="http://www.w3.org/1999/xlink" width="528" height="219" viewBox="0 0 528 219">
  <title>
    Japan Accessibility Conference
  </title>
  <defs>
    <polygon id="logo-a" points="0 218.242 527.617 218.242 527.617 0 0 0"/>
  </defs>
  <g fill="none" fill-rule="evenodd">
    <path fill="#FFF" d="M274.850722 63.8173246C274.850722 65.3213393 274.593966 66.7480599 274.078039 68.100707 273.562917 69.453354 272.822429 70.6441665 271.856576 71.6755599 270.891527 72.705343 269.721234 73.5217621 268.348112 74.1224018 266.974185 74.7238467 265.407893 75.0241665 263.647624 75.0241665 261.544478 75.0241665 259.794673 74.5636224 258.400624 73.6393136 257.004966 72.7166151 255.900673 71.8043835 255.084527 70.9026187L260.235746 66.7802658C260.707405 67.2536923 261.253917 67.6498246 261.877698 67.9718835 262.499063 68.2939423 263.154234 68.4549717 263.840795 68.4549717 264.227941 68.4549717 264.677868 68.380093 265.19299 68.2287254 265.708917 68.0797732 266.191039 67.8003871 266.641771 67.3921776 267.092502 66.9847732 267.478844 66.4260011 267.800795 65.7174717 268.122746 65.0089423 268.283722 64.0749717 268.283722 62.9163651L268.283722 28.7805452 274.850722 28.7805452 274.850722 63.8173246zM293.07131 60.5975415C292.34048 60.468718 291.740041 60.4043062 291.268383 60.4043062 289.851798 60.4043062 288.638041 60.7376371 287.630334 61.4026886 286.621017 62.0685452 286.117163 63.2810967 286.117163 65.0419533 286.117163 66.2867107 286.416578 67.2955599 287.018627 68.0685011 287.619871 68.8414423 288.456944 69.2279129 289.529846 69.2279129 290.645407 69.2279129 291.514676 68.8639864 292.137651 68.1329129 292.759017 67.4034496 293.07131 66.3728614 293.07131 65.0419533L293.07131 60.5975415zM293.07131 71.2882842L292.942529 71.2882842C292.08292 72.4911739 291.213651 73.4138724 290.334724 74.0587952 289.454188 74.7029129 288.22031 75.0241665 286.632285 75.0241665 285.859602 75.0241665 285.065188 74.9058099 284.249846 74.670707 283.4337 74.4347989 282.67309 74.0048504 281.964798 73.3816665 281.256505 72.7592879 280.676993 71.8800673 280.226261 70.7415893 279.775529 69.6047217 279.550163 68.1329129 279.550163 66.3293835 279.550163 64.4839864 279.700676 62.8624202 280.000895 61.4671004 280.301115 60.0725857 280.847627 58.9123687 281.642846 57.9888651 282.436456 57.0661665 283.49809 56.378571 284.830163 55.9276886 286.159822 55.4776114 287.856505 55.2513651 289.916188 55.2513651 290.387846 55.2513651 290.859505 55.2739092 291.332773 55.3157768 291.804432 55.3592548 292.383944 55.4027327 293.07131 55.4454055L293.07131 52.0307768C293.07131 50.9156482 292.834676 49.9921445 292.362212 49.2618761 291.889749 48.5324129 291.031749 48.1676813 289.787407 48.1676813 288.928602 48.1676813 288.145456 48.4462621 287.437163 49.004229 286.728871 49.5630011 286.267676 50.3794202 286.052773 51.4518761L279.678944 51.4518761C279.893041 48.4889349 280.880627 46.1282437 282.640895 44.3673871 283.49809 43.5082952 284.529139 42.8327768 285.730822 42.3376114 286.932505 41.8448614 288.2847 41.5968761 289.787407 41.5968761 291.160529 41.5968761 292.448334 41.8126555 293.650822 42.2417989 294.8517 42.6709423 295.893212 43.3150599 296.773749 44.1741518 297.651871 45.0332438 298.350505 46.1056996 298.865627 47.3947401 299.380749 48.6821702 299.63831 50.1853798 299.63831 51.9027585L299.63831 74.637696 293.07131 74.637696 293.07131 71.2882842zM318.824268 52.6112879C318.824268 51.2811849 318.566707 50.2071187 318.051585 49.3906996 317.535659 48.5750857 316.720317 48.1668761 315.604756 48.1668761 314.616366 48.1668761 313.822756 48.5428798 313.222317 49.294082 312.621073 50.0452842 312.320854 51.0227327 312.320854 52.2248173L312.320854 64.9123246C312.320854 65.943718 312.632341 66.7907327 313.254512 67.4557842 313.876683 68.1232511 314.659829 68.4549717 315.604756 68.4549717 316.849098 68.4549717 317.697439 68.0685011 318.148171 67.2955599 318.598902 66.5226187 318.824268 65.620854 318.824268 64.5902658L318.824268 52.6112879zM305.753854 41.9841518L312.320854 41.9841518 312.320854 44.9462879C313.136195 44.0026555 313.973268 43.2071702 314.832073 42.5638577 315.690073 41.9197401 316.934415 41.5968761 318.566707 41.5968761 321.270293 41.5968761 323.180268 42.6282695 324.296634 44.6886408 324.682976 45.4189092 324.961463 46.321479 325.133707 47.3947401 325.305146 48.4680011 325.391268 49.9059937 325.391268 51.7095232L325.391268 64.1393835C325.391268 66.5016849 325.326878 68.2408026 325.198098 69.3567364 325.069317 70.4742805 324.78922 71.3752401 324.361024 72.0612254 323.803244 72.9211224 323.083683 73.6288467 322.203951 74.1868136 321.323415 74.7439754 320.089537 75.0241665 318.502317 75.0241665 317.214512 75.0241665 316.065146 74.7351187 315.057439 74.1546077 314.048122 73.5749018 313.178854 72.748821 312.449634 71.6755599L312.320854 71.6755599 312.320854 87.8413026 305.753854 87.8413026 305.753854 41.9841518zM344.513561 60.5975415C343.782732 60.468718 343.182293 60.4043062 342.710634 60.4043062 341.294049 60.4043062 340.080293 60.7376371 339.072585 61.4026886 338.063268 62.0685452 337.559415 63.2810967 337.559415 65.0419533 337.559415 66.2867107 337.858829 67.2955599 338.460878 68.0685011 339.062122 68.8414423 339.899195 69.2279129 340.972098 69.2279129 342.087659 69.2279129 342.956927 68.8639864 343.579902 68.1329129 344.201268 67.4034496 344.513561 66.3728614 344.513561 65.0419533L344.513561 60.5975415zM344.513561 71.2882842L344.38478 71.2882842C343.525171 72.4911739 342.655902 73.4138724 341.776976 74.0587952 340.896439 74.7029129 339.662561 75.0241665 338.074537 75.0241665 337.301854 75.0241665 336.507439 74.9058099 335.692098 74.670707 334.875951 74.4347989 334.115341 74.0048504 333.407049 73.3816665 332.698756 72.7592879 332.119244 71.8800673 331.668512 70.7415893 331.21778 69.6047217 330.992415 68.1329129 330.992415 66.3293835 330.992415 64.4839864 331.142927 62.8624202 331.443146 61.4671004 331.743366 60.0725857 332.289878 58.9123687 333.085098 57.9888651 333.878707 57.0661665 334.940341 56.378571 336.272415 55.9276886 337.602073 55.4776114 339.298756 55.2513651 341.358439 55.2513651 341.830098 55.2513651 342.301756 55.2739092 342.775024 55.3157768 343.246683 55.3592548 343.826195 55.4027327 344.513561 55.4454055L344.513561 52.0307768C344.513561 50.9156482 344.276927 49.9921445 343.804463 49.2618761 343.332 48.5324129 342.474 48.1676813 341.229659 48.1676813 340.370854 48.1676813 339.587707 48.4462621 338.879415 49.004229 338.171122 49.5630011 337.709927 50.3794202 337.495024 51.4518761L331.121195 51.4518761C331.335293 48.4889349 332.322878 46.1282437 334.083146 44.3673871 334.940341 43.5082952 335.97139 42.8327768 337.173073 42.3376114 338.374756 41.8448614 339.726951 41.5968761 341.229659 41.5968761 342.60278 41.5968761 343.890585 41.8126555 345.093073 42.2417989 346.293951 42.6709423 347.335463 43.3150599 348.216 44.1741518 349.094122 45.0332438 349.792756 46.1056996 350.307878 47.3947401 350.823 48.6821702 351.080561 50.1853798 351.080561 51.9027585L351.080561 74.637696 344.513561 74.637696 344.513561 71.2882842zM357.195863 41.9839908L363.762863 41.9839908 363.762863 45.1401673 363.891644 45.1401673C364.578205 44.109579 365.404815 43.2617592 366.370668 42.5959026 367.337327 41.9308511 368.5704 41.5975202 370.073107 41.5975202 370.888449 41.5975202 371.70379 41.7368107 372.519937 42.0161967 373.334473 42.2963879 374.065302 42.756932 374.709205 43.4010496 375.353107 44.0451673 375.867424 44.8720533 376.254571 45.8809026 376.640107 46.8897518 376.833278 48.1248474 376.833278 49.5837739L376.833278 74.6383401 370.266278 74.6383401 370.266278 52.031421C370.266278 50.8293364 369.986985 49.8848989 369.429205 49.1973033 368.87062 48.5105129 368.077815 48.1675202 367.046766 48.1675202 365.800815 48.1675202 364.94362 48.5531857 364.471156 49.3261268 363.998693 50.099068 363.762863 51.2166121 363.762863 52.6747335L363.762863 74.6383401 357.195863 74.6383401 357.195863 41.9839908zM269.635515 102.009073L269.506734 102.009073 266.288027 118.626503 272.855027 118.626503 269.635515 102.009073zM266.867539 88.8062713L272.339905 88.8062713 282.577149 134.663422 276.010149 134.663422 274.078441 124.808422 265.128198 124.808422 263.197295 134.663422 256.630295 134.663422 266.867539 88.8062713zM292.363098 125.26011C292.363098 126.289893 292.652854 127.085378 293.232366 127.643345 293.811878 128.201312 294.59422 128.479893 295.58261 128.479893 296.826951 128.479893 297.652756 128.115966 298.060829 127.385698 298.468902 126.655429 298.715195 125.925966 298.801317 125.195698L305.368317 125.195698C305.368317 126.570084 305.143756 127.858319 304.69222 129.060404 304.242293 130.262488 303.587122 131.293076 302.729122 132.151363 301.870317 133.053128 300.839268 133.761657 299.63839 134.276951 298.436707 134.792246 297.083707 135.049087 295.58261 135.049087 293.563976 135.049087 291.825439 134.620749 290.367805 133.761657 288.907756 132.902565 287.79139 131.764893 287.018707 130.347834 286.546244 129.489547 286.224293 128.502437 286.052854 127.385698 285.881415 126.268959 285.796098 125.045135 285.796098 123.714227L285.796098 112.958268C285.796098 111.62736 285.881415 110.404341 286.052854 109.286797 286.224293 108.170863 286.546244 107.183753 287.018707 106.323856 287.79139 104.907602 288.907756 103.770735 290.367805 102.910837 291.825439 102.052551 293.563976 101.622602 295.58261 101.622602 297.083707 101.622602 298.447976 101.880249 299.670585 102.395543 300.894 102.910837 301.924244 103.630639 302.761317 104.553337 303.59839 105.476841 304.242293 106.582308 304.69222 107.869738 305.143756 109.158779 305.368317 110.554099 305.368317 112.057308L298.801317 112.057308C298.801317 110.7264 298.512366 109.748951 297.932049 109.126573 297.352537 108.504194 296.56939 108.192602 295.58261 108.192602 294.59422 108.192602 293.811878 108.504194 293.232366 109.126573 292.652854 109.748951 292.363098 110.683727 292.363098 111.927679L292.363098 125.26011zM317.472315 125.26011C317.472315 126.289893 317.762071 127.085378 318.341583 127.643345 318.921095 128.201312 319.703437 128.479893 320.691827 128.479893 321.936168 128.479893 322.761973 128.115966 323.170046 127.385698 323.57812 126.655429 323.824412 125.925966 323.910534 125.195698L330.477534 125.195698C330.477534 126.570084 330.252973 127.858319 329.801437 129.060404 329.35151 130.262488 328.696339 131.293076 327.838339 132.151363 326.979534 133.053128 325.948485 133.761657 324.747607 134.276951 323.545924 134.792246 322.192924 135.049087 320.691827 135.049087 318.673193 135.049087 316.934656 134.620749 315.477022 133.761657 314.016973 132.902565 312.900607 131.764893 312.127924 130.347834 311.655461 129.489547 311.33351 128.502437 311.162071 127.385698 310.990632 126.268959 310.905315 125.045135 310.905315 123.714227L310.905315 112.958268C310.905315 111.62736 310.990632 110.404341 311.162071 109.286797 311.33351 108.170863 311.655461 107.183753 312.127924 106.323856 312.900607 104.907602 314.016973 103.770735 315.477022 102.910837 316.934656 102.052551 318.673193 101.622602 320.691827 101.622602 322.192924 101.622602 323.557193 101.880249 324.779802 102.395543 326.003217 102.910837 327.033461 103.630639 327.870534 104.553337 328.707607 105.476841 329.35151 106.582308 329.801437 107.869738 330.252973 109.158779 330.477534 110.554099 330.477534 112.057308L323.910534 112.057308C323.910534 110.7264 323.621583 109.748951 323.041266 109.126573 322.461754 108.504194 321.678607 108.192602 320.691827 108.192602 319.703437 108.192602 318.921095 108.504194 318.341583 109.126573 317.762071 109.748951 317.472315 110.683727 317.472315 111.927679L317.472315 125.26011zM341.616322 115.663562L348.055346 115.663562 348.055346 111.927679C348.055346 110.682922 347.76559 109.748951 347.186078 109.126573 346.605761 108.504194 345.822615 108.192602 344.835834 108.192602 343.847444 108.192602 343.065102 108.504194 342.48559 109.126573 341.906078 109.748951 341.616322 110.682922 341.616322 111.927679L341.616322 115.663562zM341.616322 120.815698L341.616322 125.26011C341.616322 126.289893 341.906078 127.085378 342.48559 127.643345 343.065102 128.201312 343.847444 128.479893 344.835834 128.479893 346.080176 128.479893 346.90598 128.115966 347.314859 127.385698 347.722127 126.655429 347.96842 125.925966 348.055346 125.195698L354.622346 125.195698C354.622346 126.570084 354.39698 127.858319 353.946249 129.060404 353.495517 130.262488 352.840346 131.293076 351.982346 132.151363 351.123541 133.053128 350.093298 133.761657 348.891615 134.276951 347.689932 134.792246 346.337737 135.049087 344.835834 135.049087 342.8172 135.049087 341.079468 134.620749 339.621029 133.761657 338.16098 132.902565 337.044615 131.764893 336.271932 130.347834 335.799468 129.489547 335.477517 128.502437 335.306883 127.385698 335.134639 126.268959 335.049322 125.045135 335.049322 123.714227L335.049322 112.958268C335.049322 111.62736 335.134639 110.404341 335.306883 109.286797 335.477517 108.170863 335.799468 107.183753 336.271932 106.323856 337.044615 104.907602 338.16098 103.770735 339.621029 102.910837 341.079468 102.052551 342.8172 101.622602 344.835834 101.622602 346.337737 101.622602 347.7012 101.880249 348.92381 102.395543 350.148029 102.910837 351.177468 103.630639 352.014541 104.553337 352.851615 105.476841 353.495517 106.560569 353.946249 107.805326 354.39698 109.051694 354.622346 110.381797 354.622346 111.798856L354.622346 120.815698 341.616322 120.815698zM372.648959 111.15506C372.605495 110.038321 372.252154 109.201774 371.587324 108.643001 370.920885 108.085035 370.158666 107.805649 369.301471 107.805649 368.271227 107.805649 367.476007 108.138979 366.919032 108.804031 366.361251 109.469887 366.081959 110.232362 366.081959 111.090649 366.081959 111.692093 366.231666 112.281461 366.531885 112.861972 366.832105 113.441678 367.604788 113.967439 368.849934 114.439255L372.713349 115.985137C375.160178 116.93038 376.843983 118.21781 377.767178 119.849843 378.690373 121.481876 379.151568 123.262862 379.151568 125.195215 379.151568 126.570406 378.904471 127.846564 378.41108 129.027715 377.91769 130.208865 377.241593 131.249921 376.383593 132.15088 375.523983 133.052645 374.494544 133.761174 373.292861 134.277274 372.091178 134.791762 370.782446 135.04941 369.365861 135.04941 368.077251 135.04941 366.854641 134.834435 365.695617 134.405292 364.536593 133.976954 363.516007 133.35377 362.637885 132.538156 361.757349 131.722542 361.037788 130.701615 360.480812 129.478597 359.921422 128.254774 359.621202 126.828053 359.579349 125.195215L365.760007 125.195215C365.888788 126.097785 366.199471 126.934332 366.693666 127.707274 367.186251 128.480215 368.05552 128.866685 369.301471 128.866685 370.244788 128.866685 371.092324 128.555093 371.84408 127.932715 372.595032 127.310336 372.97091 126.440777 372.97091 125.324843 372.97091 124.423079 372.734276 123.650137 372.263422 123.00602 371.790154 122.361902 370.931349 121.80474 369.687007 121.331314L366.531885 120.171902C364.472202 119.398961 362.851178 118.250821 361.671227 116.725873 360.490471 115.202535 359.900495 113.34506 359.900495 111.15506 359.900495 109.781479 360.158056 108.504516 360.673178 107.32256 361.189105 106.14141 361.886129 105.133365 362.766666 104.295207 363.644788 103.457854 364.665373 102.804075 365.824398 102.331454 366.983422 101.858832 368.227763 101.622119 369.558227 101.622119 370.887885 101.622119 372.123373 101.870104 373.260666 102.362854 374.397959 102.857215 375.374276 103.523071 376.189617 104.360424 377.004959 105.197777 377.648861 106.206626 378.122129 107.386972 378.593788 108.568928 378.830422 109.824957 378.830422 111.15506L372.648959 111.15506zM396.598749 111.15506C396.555285 110.038321 396.201944 109.201774 395.537115 108.643001 394.870676 108.085035 394.108456 107.805649 393.251261 107.805649 392.221017 107.805649 391.425798 108.138979 390.868822 108.804031 390.311041 109.469887 390.031749 110.232362 390.031749 111.090649 390.031749 111.692093 390.181456 112.281461 390.481676 112.861972 390.781895 113.441678 391.554578 113.967439 392.799724 114.439255L396.663139 115.985137C399.109968 116.93038 400.793773 118.21781 401.716968 119.849843 402.640163 121.481876 403.101359 123.262862 403.101359 125.195215 403.101359 126.570406 402.854261 127.846564 402.360871 129.027715 401.86748 130.208865 401.191383 131.249921 400.333383 132.15088 399.473773 133.052645 398.444334 133.761174 397.242651 134.277274 396.040968 134.791762 394.732237 135.04941 393.315651 135.04941 392.027041 135.04941 390.804432 134.834435 389.645407 134.405292 388.486383 133.976954 387.465798 133.35377 386.587676 132.538156 385.707139 131.722542 384.987578 130.701615 384.430602 129.478597 383.871212 128.254774 383.570993 126.828053 383.529139 125.195215L389.709798 125.195215C389.838578 126.097785 390.149261 126.934332 390.643456 127.707274 391.136041 128.480215 392.00531 128.866685 393.251261 128.866685 394.194578 128.866685 395.042115 128.555093 395.793871 127.932715 396.544822 127.310336 396.9207 126.440777 396.9207 125.324843 396.9207 124.423079 396.684066 123.650137 396.213212 123.00602 395.739944 122.361902 394.881139 121.80474 393.636798 121.331314L390.481676 120.171902C388.421993 119.398961 386.800968 118.250821 385.621017 116.725873 384.440261 115.202535 383.850285 113.34506 383.850285 111.15506 383.850285 109.781479 384.107846 108.504516 384.622968 107.32256 385.138895 106.14141 385.83592 105.133365 386.716456 104.295207 387.594578 103.457854 388.615163 102.804075 389.774188 102.331454 390.933212 101.858832 392.177554 101.622119 393.508017 101.622119 394.837676 101.622119 396.073163 101.870104 397.210456 102.362854 398.347749 102.857215 399.324066 103.523071 400.139407 104.360424 400.954749 105.197777 401.598651 106.206626 402.07192 107.386972 402.543578 108.568928 402.780212 109.824957 402.780212 111.15506L396.598749 111.15506z"/>
    <mask id="logo-b" fill="#fff">
      <use xlink:href="#logo-a"/>
    </mask>
    <path fill="#FFF" d="M408.63739 134.663261L415.20439 134.663261 415.20439 102.008912 408.63739 102.008912 408.63739 134.663261zM408.63739 95.3753051L415.20439 95.3753051 415.20439 88.8061103 408.63739 88.8061103 408.63739 95.3753051zM434.971149 112.056906C434.971149 111.026317 434.745783 110.124553 434.295051 109.351611 433.84432 108.57867 432.995978 108.1922 431.751637 108.1922 430.80671 108.1922 430.023563 108.524725 429.401393 109.189777 428.779222 109.857244 428.467734 110.703453 428.467734 111.734847L428.467734 124.422354C428.467734 125.625244 428.767954 126.601887 429.369198 127.353089 429.969637 128.105097 430.763246 128.47949 431.751637 128.47949 432.867198 128.47949 433.682539 128.072891 434.198466 127.256472 434.713588 126.440858 434.971149 125.367597 434.971149 124.035883L434.971149 112.056906zM421.900734 88.8058687L428.467734 88.8058687 428.467734 104.971611 428.596515 104.971611C429.325734 103.899156 430.195002 103.072269 431.20432 102.491758 432.212027 101.912053 433.361393 101.6222 434.649198 101.6222 436.236417 101.6222 437.470295 101.902391 438.350832 102.459553 439.230563 103.018325 439.950124 103.726854 440.507905 104.585141 440.9361 105.272736 441.216198 106.173696 441.344978 107.290435 441.473759 108.407979 441.538149 110.146292 441.538149 112.507788L441.538149 124.937648C441.538149 126.741178 441.452027 128.179975 441.280588 129.252431 441.108344 130.326497 440.829856 131.229067 440.443515 131.958531 439.327149 134.018902 437.417173 135.04949 434.713588 135.04949 433.081295 135.04949 431.836954 134.727431 430.978954 134.083314 430.120149 133.440001 429.283076 132.645321 428.467734 131.700078L428.467734 134.663019 421.900734 134.663019 421.900734 88.8058687zM446.945561 134.663261L453.512561 134.663261 453.512561 102.008912 446.945561 102.008912 446.945561 134.663261zM446.945561 95.3753051L453.512561 95.3753051 453.512561 88.8061103 446.945561 88.8061103 446.945561 95.3753051zM459.821759 88.8059493L466.388759 88.8059493 466.388759 125.453023C466.388759 126.698585 466.614124 127.546405 467.064856 127.997287 467.515588 128.447365 468.36232 128.738023 469.608271 128.866846L469.608271 135.049571C468.104759 135.049571 466.742905 134.930409 465.51949 134.695306 464.29688 134.459398 463.265832 134.009321 462.428759 133.342659 461.591685 132.677607 460.947783 131.743637 460.497856 130.541552 460.047124 129.339468 459.821759 127.793585 459.821759 125.903905L459.821759 88.8059493zM474.757317 134.663261L481.324317 134.663261 481.324317 102.008912 474.757317 102.008912 474.757317 134.663261zM474.757317 95.3753051L481.324317 95.3753051 481.324317 88.8061103 474.757317 88.8061103 474.757317 95.3753051zM489.308305 92.0902246L495.875305 92.0902246 495.875305 102.008831 499.93189 102.008831 499.93189 107.161772 495.875305 107.161772 495.875305 125.259868C495.875305 126.032809 495.950159 126.634254 496.100671 127.063397 496.251183 127.493346 496.487817 127.8146 496.808963 128.029574 497.13172 128.244548 497.549451 128.373372 498.064573 128.415239 498.5805 128.458717 499.201866 128.479651 499.93189 128.479651L499.93189 134.663181 497.228305 134.663181C495.724793 134.663181 494.469183 134.428078 493.461476 133.954651 492.452159 133.482835 491.64728 132.882195 491.046841 132.151122 490.445598 131.421658 490.005329 130.595578 489.727646 129.672074 489.447549 128.74857 489.308305 127.858078 489.308305 126.998181L489.308305 107.161772 486.025207 107.161772 486.025207 102.008831 489.308305 102.008831 489.308305 92.0902246zM511.77881 102.009073L516.286127 122.36158 516.414102 122.36158 520.856224 102.009073 527.6172 102.009073 518.217029 140.330852C517.872541 141.789779 517.39042 143.00394 516.768249 143.969312 516.146078 144.935488 515.426517 145.708429 514.61198 146.288135 513.795834 146.867841 512.926566 147.276051 512.003371 147.512764 511.080176 147.747867 510.12559 147.866224 509.13881 147.866224L507.335883 147.866224 507.335883 141.682694 508.816859 141.682694C509.460761 141.682694 510.017737 141.596543 510.4902 141.425852 510.962663 141.253551 511.3812 140.878352 511.746615 140.298646 512.11042 139.71894 512.443639 138.859849 512.743859 137.722176 513.044078 136.583698 513.387761 135.070826 513.774102 133.181951L504.824663 102.009073 511.77881 102.009073zM280.452673 184.447839C280.452673 185.864897 280.183844 187.216739 279.647795 188.504975 279.110137 189.794015 278.369649 190.920416 277.426332 191.886592 276.481405 192.851964 275.375502 193.624905 274.110234 194.205416 272.844161 194.785122 271.481502 195.074169 270.022259 195.074169 268.776307 195.074169 267.511039 194.902673 266.223234 194.559681 264.936234 194.216688 263.776405 193.624905 262.746966 192.788357 261.716722 191.951004 260.86838 190.845537 260.203551 189.471151 259.537917 188.09757 259.205502 186.358453 259.205502 184.254603L259.205502 159.006802C259.205502 157.504397 259.463063 156.109078 259.978185 154.820842 260.493307 153.533412 261.222527 152.416673 262.166649 151.471431 263.110771 150.527798 264.2376 149.787063 265.547137 149.249225 266.855868 148.712997 268.304649 148.444883 269.893478 148.444883 271.39538 148.444883 272.790234 148.712997 274.078039 149.249225 275.365844 149.787063 276.481405 150.538265 277.426332 151.503636 278.369649 152.469813 279.110137 153.63003 279.647795 154.981872 280.183844 156.334519 280.452673 157.805522 280.452673 159.394078L280.452673 161.969743 273.884868 161.969743 273.884868 159.779743C273.884868 158.492313 273.520259 157.376379 272.790234 156.431136 272.06021 155.486699 271.073429 155.014078 269.829088 155.014078 268.196795 155.014078 267.114234 155.518905 266.57738 156.527754 266.040527 157.536603 265.772502 158.814372 265.772502 160.359449L265.772502 183.803721C265.772502 185.135434 266.062259 186.250563 266.641771 187.152328 267.221283 188.054092 268.26199 188.504975 269.764698 188.504975 270.192893 188.504975 270.654893 188.430901 271.148283 188.280339 271.641673 188.129776 272.092405 187.883401 272.500478 187.539603 272.908551 187.195806 273.240966 186.723989 273.498527 186.122544 273.756893 185.521905 273.884868 184.769092 273.884868 183.868133L273.884868 181.613721 280.452673 181.613721 280.452673 184.447839zM292.684646 184.769414C292.684646 186.015782 292.974402 186.949753 293.553915 187.571326 294.133427 188.19451 294.915768 188.505297 295.904159 188.505297 296.890939 188.505297 297.674085 188.19451 298.254402 187.571326 298.833915 186.949753 299.123671 186.015782 299.123671 184.769414L299.123671 171.953083C299.123671 170.708326 298.833915 169.774356 298.254402 169.151977 297.674085 168.529598 296.890939 168.217201 295.904159 168.217201 294.915768 168.217201 294.133427 168.529598 293.553915 169.151977 292.974402 169.774356 292.684646 170.708326 292.684646 171.953083L292.684646 184.769414zM286.117646 172.982867C286.117646 171.652764 286.202963 170.42894 286.375207 169.312201 286.545841 168.196267 286.867793 167.208352 287.340256 166.34926 288.112939 164.932201 289.229305 163.795333 290.689354 162.936242 292.147793 162.07715 293.885524 161.648006 295.904159 161.648006 297.921183 161.648006 299.65972 162.07715 301.118963 162.936242 302.578207 163.795333 303.694573 164.932201 304.467256 166.34926 304.93972 167.208352 305.260866 168.196267 305.43311 169.312201 305.604549 170.42894 305.690671 171.652764 305.690671 172.982867L305.690671 183.739631C305.690671 185.070539 305.604549 186.294363 305.43311 187.410297 305.260866 188.527841 304.93972 189.514951 304.467256 190.373238 303.694573 191.790297 302.578207 192.927969 301.118963 193.786256 299.65972 194.646153 297.921183 195.074492 295.904159 195.074492 293.885524 195.074492 292.147793 194.646153 290.689354 193.786256 289.229305 192.927969 288.112939 191.790297 287.340256 190.373238 286.867793 189.514951 286.545841 188.527841 286.375207 187.410297 286.202963 186.294363 286.117646 185.070539 286.117646 183.739631L286.117646 172.982867zM310.51849 162.034235L317.08549 162.034235 317.08549 165.190412 317.214271 165.190412C317.900832 164.159824 318.727441 163.312809 319.693295 162.646147 320.659954 161.981096 321.893027 161.64857 323.395734 161.64857 324.211076 161.64857 325.026417 161.78786 325.842563 162.066441 326.6571 162.346632 327.387929 162.807176 328.031832 163.451294 328.675734 164.095412 329.190051 164.922298 329.577198 165.931147 329.962734 166.940801 330.155905 168.175092 330.155905 169.634018L330.155905 194.688585 323.588905 194.688585 323.588905 172.081665C323.588905 170.879581 323.309612 169.935143 322.751832 169.247548 322.193246 168.561563 321.400441 168.217765 320.369393 168.217765 319.123441 168.217765 318.266246 168.60343 317.793783 169.376371 317.32132 170.149313 317.08549 171.266857 317.08549 172.725783L317.08549 194.688585 310.51849 194.688585 310.51849 162.034235zM337.688598 167.186693L334.46989 167.186693 334.46989 162.034557 337.688598 162.034557 337.688598 157.590146C337.688598 156.002396 337.924427 154.65941 338.39689 153.565215 338.869354 152.470215 339.501988 151.568451 340.296402 150.859921 341.090817 150.151392 341.991476 149.636098 343.000793 149.314039 344.0085 148.99198 345.050012 148.830951 346.122915 148.830951L349.149256 148.830951 349.149256 155.01448 346.18811 155.01448C344.8995 155.01448 344.255598 155.765682 344.255598 157.268892L344.255598 162.034557 349.149256 162.034557 349.149256 167.186693 344.255598 167.186693 344.255598 194.688101 337.688598 194.688101 337.688598 167.186693zM358.418956 175.688724L364.85798 175.688724 364.85798 171.952842C364.85798 170.708085 364.568224 169.774114 363.988712 169.151735 363.408395 168.529357 362.625249 168.217765 361.638468 168.217765 360.650078 168.217765 359.867737 168.529357 359.288224 169.151735 358.708712 169.774114 358.418956 170.708085 358.418956 171.952842L358.418956 175.688724zM358.418956 180.84086L358.418956 185.285272C358.418956 186.315055 358.708712 187.11054 359.288224 187.668507 359.867737 188.226474 360.650078 188.505055 361.638468 188.505055 362.88281 188.505055 363.708615 188.141129 364.117493 187.41086 364.524761 186.680592 364.771054 185.951129 364.85798 185.22086L371.42498 185.22086C371.42498 186.595246 371.199615 187.883482 370.748883 189.085566 370.298151 190.287651 369.64298 191.318239 368.78498 192.176526 367.926176 193.07829 366.895932 193.78682 365.694249 194.302114 364.492566 194.817408 363.140371 195.07425 361.638468 195.07425 359.619834 195.07425 357.882102 194.645912 356.423663 193.78682 354.963615 192.927728 353.847249 191.790055 353.074566 190.372996 352.602102 189.51471 352.280151 188.527599 352.109517 187.41086 351.937273 186.294121 351.851956 185.070298 351.851956 183.73939L351.851956 172.98343C351.851956 171.652522 351.937273 170.429504 352.109517 169.31196 352.280151 168.196026 352.602102 167.208915 353.074566 166.349018 353.847249 164.932765 354.963615 163.795897 356.423663 162.936 357.882102 162.077713 359.619834 161.64857 361.638468 161.64857 363.140371 161.64857 364.503834 161.905412 365.726444 162.420706 366.950663 162.936 367.980102 163.655801 368.817176 164.5785 369.654249 165.502809 370.298151 166.585732 370.748883 167.830489 371.199615 169.076857 371.42498 170.40696 371.42498 171.824018L371.42498 180.84086 358.418956 180.84086zM377.540283 162.034235L384.107283 162.034235 384.107283 165.511665C385.437746 164.310386 386.747283 163.365143 388.035088 162.678353 389.322893 161.991563 390.910112 161.64857 392.799966 161.64857L392.799966 168.60343C392.156063 168.346588 391.489624 168.217765 390.803868 168.217765 390.116502 168.217765 389.376015 168.336121 388.582405 168.571224 387.787185 168.807938 387.057966 169.20568 386.393137 169.763647 385.727502 170.321614 385.180185 171.051077 384.75199 171.952842 384.322185 172.854607 384.107283 173.971346 384.107283 175.302254L384.107283 194.688585 377.540283 194.688585 377.540283 162.034235zM404.002983 175.688724L410.442007 175.688724 410.442007 171.952842C410.442007 170.708085 410.152251 169.774114 409.572739 169.151735 408.992422 168.529357 408.209276 168.217765 407.222495 168.217765 406.234105 168.217765 405.451763 168.529357 404.872251 169.151735 404.292739 169.774114 404.002983 170.708085 404.002983 171.952842L404.002983 175.688724zM404.002983 180.84086L404.002983 185.285272C404.002983 186.315055 404.292739 187.11054 404.872251 187.668507 405.451763 188.226474 406.234105 188.505055 407.222495 188.505055 408.466837 188.505055 409.292641 188.141129 409.70152 187.41086 410.108788 186.680592 410.35508 185.951129 410.442007 185.22086L417.009007 185.22086C417.009007 186.595246 416.783641 187.883482 416.33291 189.085566 415.882178 190.287651 415.227007 191.318239 414.369007 192.176526 413.509398 193.07829 412.479959 193.78682 411.278276 194.302114 410.076593 194.817408 408.724398 195.07425 407.222495 195.07425 405.203861 195.07425 403.466129 194.645912 402.00769 193.78682 400.547641 192.927728 399.431276 191.790055 398.658593 190.372996 398.186129 189.51471 397.864178 188.527599 397.693544 187.41086 397.5213 186.294121 397.435983 185.070298 397.435983 183.73939L397.435983 172.98343C397.435983 171.652522 397.5213 170.429504 397.693544 169.31196 397.864178 168.196026 398.186129 167.208915 398.658593 166.349018 399.431276 164.932765 400.547641 163.795897 402.00769 162.936 403.466129 162.077713 405.203861 161.64857 407.222495 161.64857 408.724398 161.64857 410.087861 161.905412 411.310471 162.420706 412.53469 162.936 413.564129 163.655801 414.401202 164.5785 415.238276 165.502809 415.882178 166.585732 416.33291 167.830489 416.783641 169.076857 417.009007 170.40696 417.009007 171.824018L417.009007 180.84086 404.002983 180.84086zM423.12439 162.034235L429.69139 162.034235 429.69139 165.190412 429.820171 165.190412C430.506732 164.159824 431.333341 163.312809 432.299195 162.646147 433.265854 161.981096 434.498927 161.64857 436.001634 161.64857 436.816976 161.64857 437.632317 161.78786 438.448463 162.066441 439.263 162.346632 439.993829 162.807176 440.637732 163.451294 441.281634 164.095412 441.795951 164.922298 442.183098 165.931147 442.568634 166.940801 442.761805 168.175092 442.761805 169.634018L442.761805 194.688585 436.194805 194.688585 436.194805 172.081665C436.194805 170.879581 435.915512 169.935143 435.357732 169.247548 434.799146 168.561563 434.006341 168.217765 432.975293 168.217765 431.729341 168.217765 430.872146 168.60343 430.399683 169.376371 429.92722 170.149313 429.69139 171.266857 429.69139 172.725783L429.69139 194.688585 423.12439 194.688585 423.12439 162.034235zM455.122961 185.285192C455.122961 186.314975 455.412717 187.11046 455.992229 187.668427 456.571741 188.226394 457.354083 188.504975 458.342473 188.504975 459.586815 188.504975 460.41262 188.141048 460.820693 187.41078 461.228766 186.680511 461.475059 185.951048 461.56118 185.22078L468.12818 185.22078C468.12818 186.595166 467.90362 187.883401 467.452083 189.085486 467.002156 190.28757 466.346985 191.318158 465.488985 192.176445 464.63018 193.07821 463.599132 193.786739 462.398254 194.302033 461.196571 194.817328 459.843571 195.074169 458.342473 195.074169 456.323839 195.074169 454.585302 194.645831 453.127668 193.786739 451.66762 192.927647 450.551254 191.789975 449.778571 190.372916 449.306107 189.514629 448.984156 188.527519 448.812717 187.41078 448.641278 186.294041 448.555961 185.070217 448.555961 183.739309L448.555961 172.98335C448.555961 171.652442 448.641278 170.429423 448.812717 169.311879 448.984156 168.195945 449.306107 167.208835 449.778571 166.348938 450.551254 164.932684 451.66762 163.795817 453.127668 162.935919 454.585302 162.077633 456.323839 161.648489 458.342473 161.648489 459.843571 161.648489 461.207839 161.905331 462.430449 162.421431 463.653863 162.935919 464.684107 163.655721 465.52118 164.578419 466.358254 165.502728 467.002156 166.60739 467.452083 167.89482 467.90362 169.183861 468.12818 170.579181 468.12818 172.08239L461.56118 172.08239C461.56118 170.751482 461.272229 169.774033 460.691912 169.151655 460.1124 168.529276 459.329254 168.217684 458.342473 168.217684 457.354083 168.217684 456.571741 168.529276 455.992229 169.151655 455.412717 169.774033 455.122961 170.708809 455.122961 171.952761L455.122961 185.285192zM480.553646 175.688724L486.992671 175.688724 486.992671 171.952842C486.992671 170.708085 486.702915 169.774114 486.123402 169.151735 485.543085 168.529357 484.759939 168.217765 483.773159 168.217765 482.784768 168.217765 482.002427 168.529357 481.422915 169.151735 480.843402 169.774114 480.553646 170.708085 480.553646 171.952842L480.553646 175.688724zM480.553646 180.84086L480.553646 185.285272C480.553646 186.315055 480.843402 187.11054 481.422915 187.668507 482.002427 188.226474 482.784768 188.505055 483.773159 188.505055 485.0175 188.505055 485.843305 188.141129 486.252183 187.41086 486.659451 186.680592 486.905744 185.951129 486.992671 185.22086L493.559671 185.22086C493.559671 186.595246 493.334305 187.883482 492.883573 189.085566 492.432841 190.287651 491.777671 191.318239 490.919671 192.176526 490.060866 193.07829 489.030622 193.78682 487.828939 194.302114 486.627256 194.817408 485.275061 195.07425 483.773159 195.07425 481.754524 195.07425 480.016793 194.645912 478.558354 193.78682 477.098305 192.927728 475.981939 191.790055 475.209256 190.372996 474.736793 189.51471 474.414841 188.527599 474.244207 187.41086 474.071963 186.294121 473.986646 185.070298 473.986646 183.73939L473.986646 172.98343C473.986646 171.652522 474.071963 170.429504 474.244207 169.31196 474.414841 168.196026 474.736793 167.208915 475.209256 166.349018 475.981939 164.932765 477.098305 163.795897 478.558354 162.936 480.016793 162.077713 481.754524 161.64857 483.773159 161.64857 485.275061 161.64857 486.638524 161.905412 487.861134 162.420706 489.085354 162.936 490.114793 163.655801 490.951866 164.5785 491.788939 165.502809 492.432841 166.585732 492.883573 167.830489 493.334305 169.076857 493.559671 170.40696 493.559671 171.824018L493.559671 180.84086 480.553646 180.84086zM197.209046.805147059C197.209046.359900735 196.849266 0 196.404168 0L134.209632 0C133.764534 0 133.404754.359900735 133.404754.805147059L133.404754 118.127151C133.404754 177.328809 91.7225341 216.07007 91.3023878 216.45493 91.0689732 216.667489 90.9820463 216.997599 91.0794366 217.297919 91.1768268 217.598239 91.4408268 217.814018 91.7539244 217.849445 94.0502415 218.108702 96.4882171 218.241551 99.0429 218.241551 118.51129 218.241551 144.71168 210.524217 165.426827 192.007445 179.9259 179.045382 197.210656 155.70739 197.210656 118.127151L197.209046.805147059zM84.0860122 127.567017C79.302622 120.955954 72.3798659 117.372245 65.428939 117.219267 52.0945244 116.927804 44.8465976 126.467186 42.3748171 131.923668 40.8318659 127.170079 36.9483293 122.769146 31.7576707 120.049359 25.5359634 116.787708 18.5488171 116.618627 12.5919146 119.588815 6.44506098 122.652399 2.50276829 126.948664.872890244 132.356032-1.57071951 140.467083 1.10308537 151.110322 9.04803659 164.893635 22.4605244 188.159969 37.8135732 201.675973 62.0412073 211.545465 62.1394024 211.585723 62.2424268 211.605046 62.3438415 211.605046 62.6005976 211.605046 62.8485 211.482664 63.0030366 211.262859 63.2187439 210.955293 63.1937927 210.540642 62.9426707 210.261256 62.5458659 209.81923 53.3131098 199.284686 60.8572317 186.25016 63.3032561 182.023138 66.8447195 177.78726 70.5930366 173.303396 76.0122805 166.822767 82.166378 159.482241 86.3010366 150.491164 88.5530854 145.59426 89.7265976 135.362451 84.0860122 127.567017" mask="url(#logo-b)"/>
  </g>
</svg>
