<svg xmlns="http://www.w3.org/2000/svg" width="164" height="45" viewBox="0 0 164 45">
  <title>
    mark
  </title>
  <path fill-rule="evenodd" d="M46.96,26.968 C44.367987,26.968 42.272008,28.1839878 40.672,30.616 C39.2319928,32.7280106 38.512,35.1599862 38.512,37.912 C38.512,40.7600142 39.6959882,44.18398 42.064,48.184 C42.9600045,49.7200077 45.40798,53.287972 49.408,58.888 C52.5120155,63.2720219 54.5759949,66.7279874 55.6,69.256 C56.6240051,66.7279874 58.6879845,63.2720219 61.792,58.888 C65.79202,53.287972 68.2399955,49.7200077 69.136,48.184 C71.5040118,44.18398 72.688,40.7600142 72.688,37.912 C72.688,35.1599862 71.9680072,32.7280106 70.528,30.616 C68.927992,28.1839878 66.832013,26.968 64.24,26.968 C61.6799872,26.968 59.6160078,28.1359883 58.048,30.472 C56.639993,32.5200102 55.936,34.8879866 55.936,37.576 L55.216,37.576 C55.216,34.8879866 54.5280069,32.5200102 53.152,30.472 C51.5839922,28.1359883 49.5200128,26.968 46.96,26.968 Z M96.8,25.816 C96.9280006,26.7440046 98.7679822,29.4479776 102.32,33.928 L109.232,42.472 C110.928008,44.8080117 112.079997,46.7919918 112.688,48.424 C113.392004,50.3120094 113.744,52.5679869 113.744,55.192 C113.744,57.400011 113.104006,59.3359917 111.824,61 C110.415993,62.8240091 108.640011,63.736 106.496,63.736 C104.351989,63.736 102.592007,62.8560088 101.216,61.096 C99.9359936,59.4639918 99.296,57.544011 99.296,55.336 L98.144,55.336 C98.144,57.736012 98.447997,60.1839875 99.056,62.68 C99.7280034,65.4000136 100.639994,67.6879907 101.792,69.544 L91.808,69.544 C94.2400122,65.7039808 95.456,60.9680282 95.456,55.336 L94.304,55.336 C94.304,57.544011 93.6640064,59.4639918 92.384,61.096 C91.0079931,62.8560088 89.2480107,63.736 87.104,63.736 C84.9599893,63.736 83.184007,62.8240091 81.776,61 C80.4959936,59.3359917 79.856,57.400011 79.856,55.192 C79.856,52.5679869 80.2079965,50.3120094 80.912,48.424 C81.520003,46.7919918 82.6719915,44.8080117 84.368,42.472 L91.28,33.928 C94.8320178,29.4479776 96.6719994,26.7440046 96.8,25.816 Z M122.256,48.088 C127.952028,43.0639749 133.199976,36.0080454 138,26.92 C142.800024,36.0080454 148.047972,43.0639749 153.744,48.088 C148.047972,53.1120251 142.800024,60.1679546 138,69.256 C133.199976,60.1679546 127.952028,53.1120251 122.256,48.088 Z M192.72,44.44 C195.184012,44.44 197.295991,45.3279911 199.056,47.104 C200.816009,48.8800089 201.696,50.9999877 201.696,53.464 C201.696,55.9280123 200.816009,58.0399912 199.056,59.8 C197.295991,61.5600088 195.184012,62.44 192.72,62.44 C190.479989,62.44 188.504009,61.6960074 186.792,60.208 C185.079991,58.7199926 184.080001,56.8560112 183.792,54.616 L182.544,54.616 C182.672001,60.2800283 183.887988,64.9519816 186.192,68.632 L176.208,68.632 C178.512012,64.9519816 179.727999,60.2800283 179.856,54.616 L178.608,54.616 C178.319999,56.8560112 177.320009,58.7199926 175.608,60.208 C173.895991,61.6960074 171.920011,62.44 169.68,62.44 C167.215988,62.44 165.104009,61.5600088 163.344,59.8 C161.583991,58.0399912 160.704,55.9280123 160.704,53.464 C160.704,50.9999877 161.583991,48.8800089 163.344,47.104 C165.104009,45.3279911 167.215988,44.44 169.68,44.44 C172.048012,44.44 174.095991,45.2559918 175.824,46.888 L176.688,45.4 C175.183992,44.5679958 173.984004,43.4000075 173.088,41.896 C172.191996,40.3919925 171.744,38.7920085 171.744,37.096 C171.744,34.503987 172.671991,32.2800093 174.528,30.424 C176.384009,28.5679907 178.607987,27.64 181.2,27.64 C183.792013,27.64 186.015991,28.5679907 187.872,30.424 C189.728009,32.2800093 190.656,34.503987 190.656,37.096 C190.656,38.7920085 190.208004,40.3919925 189.312,41.896 C188.415996,43.4000075 187.216008,44.5679958 185.712,45.4 L186.576,46.888 C188.304009,45.2559918 190.351988,44.44 192.72,44.44 Z" transform="translate(-38 -25)"/>
</svg>
