<svg xmlns="http://www.w3.org/2000/svg" width="500" height="500" style="background:#121212" viewBox="0 0 500 500">
  <title>
    Logo
  </title>
  <g fill="#FFF" fill-rule="evenodd" transform="translate(87 73)">
    <path d="M319.997385 1.30599355C319.997385.583779117 319.41292 0 318.689857 0L217.654521 0C216.931457 0 216.346992.583779117 216.346992 1.30599355L216.346992 191.608844C216.346992 287.637244 148.634018 350.477735 147.951488 351.102 147.572305 351.446783 147.431092 351.98224 147.589303 352.469376 147.747514 352.956511 148.176383 353.306517 148.685012 353.363981 152.41539 353.784511 156.375894 354 160.525989 354 192.152486 354 234.715151 341.482052 268.36701 311.446812 291.920827 290.421622 320 252.566093 320 191.608844L319.997385 1.30599355zM136.559769 206.193487C128.791326 195.502709 117.548455 189.707477 106.259834 189.460096 84.6041389 188.98877 72.8331763 204.414946 68.8188925 213.238645 66.3130696 205.551598 60.0060296 198.434829 51.5761642 194.03665 41.4718288 188.76222 30.1243855 188.488799 20.4501052 193.291902 10.4673355 198.246038 4.06487298 205.193546 1.41787695 213.937823-2.55065636 227.054239 1.79172429 244.265466 14.6946862 266.55452 36.477176 304.178609 61.4112251 326.035396 100.758004 341.995395 100.917477 342.060495 101.084794 342.091743 101.249496 342.091743 101.666479 342.091743 102.069084 341.893838 102.320059 341.53839 102.670377 341.041024 102.629855 340.37049 102.222022 339.918694 101.577593 339.203892 86.583177 322.168436 98.8351739 301.090249 102.807629 294.254713 108.559126 287.404856 114.646564 280.15398 123.447662 269.674128 133.442196 257.803732 140.15707 243.264223 143.814499 235.345418 145.720336 218.799516 136.559769 206.193487"/>
  </g>
</svg>
