<svg xmlns="http://www.w3.org/2000/svg" width="164" height="45" viewBox="0 0 164 45"><title>mark</title><path fill-rule="evenodd" d="M8.96 1.968c-2.592 0-4.688 1.216-6.288 3.648-1.44 2.112-2.16 4.544-2.16 7.296 0 2.848 1.184 6.272 3.552 10.272.896 1.536 3.344 5.104 7.344 10.704 3.104 4.384 5.168 7.84 6.192 10.368 1.024-2.528 3.088-5.984 6.192-10.368 4-5.6 6.448-9.168 7.344-10.704 2.368-4 3.552-7.424 3.552-10.272 0-2.752-.72-5.184-2.16-7.296-1.6-2.432-3.696-3.648-6.288-3.648-2.56 0-4.624 1.168-6.192 3.504-1.408 2.048-2.112 4.416-2.112 7.104h-.72c0-2.688-.688-5.056-2.064-7.104-1.568-2.336-3.632-3.504-6.192-3.504zM58.8.816c.128.928 1.968 3.632 5.52 8.112l6.912 8.544c1.696 2.336 2.848 4.32 3.456 5.952.704 1.888 1.056 4.144 1.056 6.768 0 2.208-.64 4.144-1.92 5.808-1.408 1.824-3.184 2.736-5.328 2.736s-3.904-.88-5.28-2.64c-1.28-1.632-1.92-3.552-1.92-5.76h-1.152c0 2.4.304 4.848.912 7.344.672 2.72 1.584 5.008 2.736 6.864h-9.984c2.432-3.84 3.648-8.576 3.648-14.208h-1.152c0 2.208-.64 4.128-1.92 5.76-1.376 1.76-3.136 2.64-5.28 2.64s-3.92-.912-5.328-2.736c-1.28-1.664-1.92-3.6-1.92-5.808 0-2.624.352-4.88 1.056-6.768.608-1.632 1.76-3.616 3.456-5.952l6.912-8.544c3.552-4.48 5.392-7.184 5.52-8.112zm25.456 22.272C89.952 18.064 95.2 11.008 100 1.92c4.8 9.088 10.048 16.144 15.744 21.168-5.696 5.024-10.944 12.08-15.744 21.168-4.8-9.088-10.048-16.144-15.744-21.168zm70.464-3.648c2.464 0 4.576.888 6.336 2.664 1.76 1.776 2.64 3.896 2.64 6.36 0 2.464-.88 4.576-2.64 6.336-1.76 1.76-3.872 2.64-6.336 2.64-2.24 0-4.216-.744-5.928-2.232-1.712-1.488-2.712-3.352-3-5.592h-1.248c.128 5.664 1.344 10.336 3.648 14.016h-9.984c2.304-3.68 3.52-8.352 3.648-14.016h-1.248c-.288 2.24-1.288 4.104-3 5.592-1.712 1.488-3.688 2.232-5.928 2.232-2.464 0-4.576-.88-6.336-2.64-1.76-1.76-2.64-3.872-2.64-6.336 0-2.464.88-4.584 2.64-6.36 1.76-1.776 3.872-2.664 6.336-2.664 2.368 0 4.416.816 6.144 2.448l.864-1.488a9.459 9.459 0 0 1-3.6-3.504c-.896-1.504-1.344-3.104-1.344-4.8 0-2.592.928-4.816 2.784-6.672 1.856-1.856 4.08-2.784 6.672-2.784 2.592 0 4.816.928 6.672 2.784 1.856 1.856 2.784 4.08 2.784 6.672 0 1.696-.448 3.296-1.344 4.8a9.459 9.459 0 0 1-3.6 3.504l.864 1.488c1.728-1.632 3.776-2.448 6.144-2.448z"/></svg>