<svg xmlns="http://www.w3.org/2000/svg" xmlns:xlink="http://www.w3.org/1999/xlink" width="528" height="219" viewBox="0 0 528 219"><title>Japan Accessibility Conference</title><defs><path id="a" d="M0 218.242h527.617V0H0z"/></defs><g fill="none" fill-rule="evenodd"><path fill="#FFF" d="M274.85 63.817c0 1.504-.256 2.931-.772 4.284a10.793 10.793 0 0 1-2.221 3.575c-.965 1.03-2.136 1.846-3.509 2.446-1.374.602-2.94.902-4.7.902-2.104 0-3.853-.46-5.247-1.385-1.396-.922-2.5-1.835-3.316-2.736l5.15-4.123c.472.474 1.019.87 1.643 1.192a4.211 4.211 0 0 0 1.963.483c.387 0 .837-.075 1.352-.226.516-.15.998-.429 1.449-.837.45-.407.837-.966 1.159-1.675.322-.708.483-1.642.483-2.8V28.78h6.567v35.036zm18.221-3.22c-.73-.128-1.331-.193-1.803-.193-1.416 0-2.63.334-3.638.999-1.009.666-1.513 1.878-1.513 3.639 0 1.245.3 2.254.902 3.027.6.772 1.438 1.159 2.51 1.159 1.116 0 1.986-.364 2.609-1.095.621-.73.933-1.76.933-3.091v-4.444zm0 10.691h-.128c-.86 1.203-1.73 2.126-2.608 2.77-.88.645-2.115.966-3.703.966a8.582 8.582 0 0 1-2.382-.353c-.816-.236-1.577-.666-2.285-1.29-.708-.622-1.288-1.5-1.739-2.64-.45-1.136-.676-2.608-.676-4.412 0-1.845.15-3.467.45-4.862.301-1.394.848-2.555 1.643-3.478.793-.923 1.855-1.61 3.187-2.061 1.33-.45 3.027-.677 5.086-.677.472 0 .944.023 1.417.065.471.043 1.05.087 1.738.13V52.03c0-1.115-.236-2.039-.709-2.77-.472-.729-1.33-1.093-2.575-1.093-.858 0-1.642.278-2.35.836-.708.559-1.17 1.375-1.384 2.448h-6.374c.214-2.963 1.202-5.324 2.962-7.085.857-.859 1.888-1.534 3.09-2.03 1.202-.492 2.554-.74 4.056-.74 1.374 0 2.661.216 3.864.645a8.515 8.515 0 0 1 3.123 1.932c.878.86 1.577 1.932 2.092 3.22.515 1.288.772 2.791.772 4.509v22.735h-6.567v-3.35zm25.753-18.677c0-1.33-.257-2.404-.772-3.22-.516-.816-1.332-1.224-2.447-1.224-.989 0-1.782.376-2.383 1.127-.6.751-.901 1.729-.901 2.93v12.688c0 1.032.311 1.879.934 2.544.622.667 1.405.999 2.35.999 1.244 0 2.092-.386 2.543-1.16.45-.772.676-1.674.676-2.705V52.611zm-13.07-10.627h6.567v2.962c.815-.943 1.652-1.739 2.511-2.382.858-.644 2.102-.967 3.735-.967 2.703 0 4.613 1.031 5.73 3.092.386.73.664 1.632.837 2.706.171 1.073.257 2.511.257 4.315v12.43c0 2.362-.064 4.1-.193 5.217s-.409 2.018-.837 2.704a7.014 7.014 0 0 1-2.157 2.126c-.88.557-2.114.837-3.702.837-1.287 0-2.437-.289-3.445-.87-1.009-.58-1.878-1.405-2.607-2.478h-.13V87.84h-6.566V41.984zm38.76 18.614c-.731-.13-1.332-.194-1.803-.194-1.417 0-2.63.334-3.638.999-1.01.666-1.514 1.878-1.514 3.639 0 1.245.3 2.254.902 3.027.601.772 1.438 1.159 2.511 1.159 1.116 0 1.985-.364 2.608-1.095.621-.73.934-1.76.934-3.091v-4.444zm0 10.69h-.13c-.859 1.203-1.728 2.126-2.607 2.77-.88.645-2.114.966-3.702.966a8.582 8.582 0 0 1-2.383-.353c-.816-.236-1.577-.666-2.285-1.29-.708-.622-1.288-1.5-1.738-2.64-.451-1.136-.677-2.608-.677-4.412 0-1.845.15-3.467.451-4.862.3-1.394.847-2.555 1.642-3.478.794-.923 1.855-1.61 3.187-2.061 1.33-.45 3.027-.677 5.086-.677.472 0 .944.023 1.417.065.472.043 1.051.087 1.739.13V52.03c0-1.115-.237-2.039-.71-2.77-.472-.729-1.33-1.093-2.574-1.093-.86 0-1.642.278-2.35.836-.709.559-1.17 1.375-1.385 2.448h-6.374c.214-2.963 1.202-5.324 2.962-7.085.857-.859 1.888-1.534 3.09-2.03 1.202-.492 2.554-.74 4.057-.74 1.373 0 2.66.216 3.863.645a8.515 8.515 0 0 1 3.123 1.932c.878.86 1.577 1.932 2.092 3.22.515 1.288.773 2.791.773 4.509v22.735h-6.567v-3.35zm12.682-29.304h6.567v3.156h.129a9.337 9.337 0 0 1 2.479-2.544c.966-.665 2.2-.998 3.702-.998.815 0 1.63.139 2.447.418.814.28 1.545.74 2.19 1.385.643.644 1.157 1.471 1.545 2.48.385 1.009.578 2.244.578 3.703v25.054h-6.567V52.031c0-1.202-.279-2.146-.837-2.834-.558-.686-1.351-1.03-2.382-1.03-1.246 0-2.103.386-2.576 1.16-.472.772-.708 1.89-.708 3.348v21.963h-6.567V41.984zm-87.56 60.025h-.13l-3.218 16.618h6.567l-3.22-16.618zm-2.768-13.203h5.472l10.237 45.857h-6.567l-1.932-9.855h-8.95l-1.93 9.855h-6.568l10.238-45.857zm25.495 36.454c0 1.03.29 1.825.87 2.383.579.558 1.361.837 2.35.837 1.244 0 2.07-.364 2.478-1.094.408-.73.654-1.46.74-2.19h6.567c0 1.374-.224 2.662-.676 3.864-.45 1.202-1.105 2.233-1.963 3.091a9.25 9.25 0 0 1-3.09 2.126c-1.202.515-2.555.772-4.056.772-2.019 0-3.758-.428-5.215-1.287-1.46-.86-2.577-1.997-3.35-3.414-.472-.858-.794-1.846-.965-2.962a24.274 24.274 0 0 1-.257-3.672v-10.756c0-1.33.085-2.554.257-3.671.171-1.116.493-2.103.966-2.963.772-1.416 1.889-2.553 3.349-3.413 1.457-.858 3.196-1.288 5.215-1.288 1.5 0 2.865.257 4.088.773 1.223.515 2.253 1.235 3.09 2.157.837.924 1.481 2.03 1.931 3.317.452 1.289.676 2.684.676 4.187h-6.567c0-1.33-.289-2.308-.869-2.93-.58-.623-1.363-.934-2.35-.934-.988 0-1.77.311-2.35.934-.58.622-.869 1.557-.869 2.8v13.333zm25.11 0c0 1.03.29 1.825.869 2.383.58.558 1.361.837 2.35.837 1.244 0 2.07-.364 2.478-1.094.408-.73.654-1.46.74-2.19h6.568c0 1.374-.225 2.662-.677 3.864-.45 1.202-1.105 2.233-1.963 3.091a9.25 9.25 0 0 1-3.09 2.126c-1.202.515-2.555.772-4.056.772-2.019 0-3.757-.428-5.215-1.287-1.46-.86-2.576-1.997-3.35-3.414-.472-.858-.793-1.846-.965-2.962a24.274 24.274 0 0 1-.257-3.672v-10.756c0-1.33.086-2.554.257-3.671.172-1.116.493-2.103.966-2.963.773-1.416 1.889-2.553 3.349-3.413 1.458-.858 3.196-1.288 5.215-1.288 1.5 0 2.865.257 4.088.773 1.223.515 2.253 1.235 3.09 2.157.838.924 1.482 2.03 1.931 3.317.452 1.289.677 2.684.677 4.187h-6.567c0-1.33-.29-2.308-.87-2.93-.58-.623-1.362-.934-2.35-.934s-1.77.311-2.35.934c-.579.622-.869 1.557-.869 2.8v13.333zm24.143-9.596h6.44v-3.736c0-1.245-.29-2.179-.87-2.801-.58-.623-1.363-.934-2.35-.934-.989 0-1.77.311-2.35.934-.58.622-.87 1.556-.87 2.8v3.737zm0 5.152v4.444c0 1.03.29 1.825.87 2.383.58.558 1.361.837 2.35.837 1.244 0 2.07-.364 2.479-1.094.407-.73.653-1.46.74-2.19h6.567c0 1.374-.225 2.662-.676 3.864a8.55 8.55 0 0 1-1.964 3.091 9.242 9.242 0 0 1-3.09 2.126c-1.202.515-2.554.772-4.056.772-2.019 0-3.757-.428-5.215-1.287-1.46-.86-2.576-1.997-3.35-3.414-.472-.858-.793-1.846-.964-2.962a24.165 24.165 0 0 1-.258-3.672v-10.756c0-1.33.086-2.554.258-3.671.17-1.116.492-2.103.965-2.963.773-1.416 1.889-2.553 3.349-3.413 1.458-.858 3.196-1.288 5.215-1.288 1.502 0 2.865.257 4.088.773 1.224.515 2.253 1.235 3.09 2.157a9.701 9.701 0 0 1 1.932 3.252c.451 1.247.676 2.577.676 3.994v9.017h-13.006zm31.033-9.66c-.044-1.118-.397-1.954-1.062-2.513a3.461 3.461 0 0 0-2.286-.837c-1.03 0-1.825.333-2.382.998a3.46 3.46 0 0 0-.837 2.287c0 .601.15 1.19.45 1.771.3.58 1.073 1.105 2.318 1.577l3.863 1.546c2.447.945 4.131 2.233 5.054 3.865.923 1.632 1.385 3.413 1.385 5.345 0 1.375-.248 2.652-.74 3.833a10.168 10.168 0 0 1-2.028 3.123 9.264 9.264 0 0 1-3.091 2.126c-1.202.515-2.51.772-3.927.772-1.289 0-2.511-.215-3.67-.644a9.06 9.06 0 0 1-3.058-1.867c-.88-.815-1.6-1.836-2.157-3.06-.56-1.223-.86-2.65-.902-4.283h6.181c.129.903.44 1.74.934 2.512.492.773 1.362 1.16 2.607 1.16.944 0 1.791-.312 2.543-.934.751-.623 1.127-1.492 1.127-2.608 0-.902-.237-1.675-.708-2.319-.473-.644-1.332-1.201-2.576-1.675l-3.155-1.16c-2.06-.772-3.68-1.92-4.86-3.445-1.182-1.523-1.772-3.38-1.772-5.57 0-1.375.258-2.651.773-3.833a9.214 9.214 0 0 1 2.094-3.028 9.682 9.682 0 0 1 3.057-1.964 9.792 9.792 0 0 1 3.734-.709c1.33 0 2.565.248 3.703.74a9.1 9.1 0 0 1 2.929 1.998c.815.838 1.459 1.847 1.932 3.027.472 1.182.708 2.438.708 3.768h-6.181zm23.95 0c-.044-1.118-.397-1.954-1.062-2.513a3.461 3.461 0 0 0-2.286-.837c-1.03 0-1.825.333-2.382.998a3.46 3.46 0 0 0-.837 2.287c0 .601.15 1.19.45 1.771.3.58 1.073 1.105 2.318 1.577l3.863 1.546c2.447.945 4.13 2.233 5.054 3.865.923 1.632 1.384 3.413 1.384 5.345 0 1.375-.247 2.652-.74 3.833a10.168 10.168 0 0 1-2.028 3.123 9.264 9.264 0 0 1-3.09 2.126c-1.202.515-2.51.772-3.927.772-1.289 0-2.512-.215-3.67-.644a9.06 9.06 0 0 1-3.058-1.867c-.88-.815-1.6-1.836-2.157-3.06-.56-1.223-.86-2.65-.902-4.283h6.18c.13.903.44 1.74.934 2.512.493.773 1.362 1.16 2.608 1.16.944 0 1.791-.312 2.543-.934.75-.623 1.127-1.492 1.127-2.608 0-.902-.237-1.675-.708-2.319-.473-.644-1.332-1.201-2.576-1.675l-3.155-1.16c-2.06-.772-3.681-1.92-4.861-3.445-1.18-1.523-1.77-3.38-1.77-5.57 0-1.375.257-2.651.772-3.833a9.214 9.214 0 0 1 2.093-3.028 9.682 9.682 0 0 1 3.058-1.964 9.792 9.792 0 0 1 3.734-.709c1.33 0 2.565.248 3.702.74a9.1 9.1 0 0 1 2.93 1.998c.815.838 1.459 1.847 1.932 3.027.472 1.182.708 2.438.708 3.768h-6.18z"/><mask id="b" fill="#fff"><use xlink:href="#a"/></mask><path fill="#FFF" d="M408.637 134.663h6.567V102.01h-6.567v32.654zm0-39.288h6.567v-6.569h-6.567v6.57zm26.334 16.682c0-1.03-.225-1.932-.676-2.705-.45-.773-1.299-1.16-2.543-1.16-.945 0-1.728.333-2.35.998-.623.667-.934 1.513-.934 2.545v12.687c0 1.203.3 2.18.901 2.931.6.752 1.394 1.126 2.383 1.126 1.115 0 1.93-.406 2.446-1.223.516-.815.773-1.888.773-3.22v-11.98zm-13.07-23.251h6.567v16.166h.129c.729-1.073 1.598-1.9 2.607-2.48 1.008-.58 2.157-.87 3.445-.87 1.587 0 2.821.28 3.702.838a7.04 7.04 0 0 1 2.157 2.125c.428.688.708 1.589.837 2.705.129 1.118.193 2.856.193 5.218v12.43c0 1.803-.086 3.242-.257 4.314-.173 1.074-.451 1.977-.837 2.707-1.117 2.06-3.027 3.09-5.73 3.09-1.633 0-2.877-.322-3.735-.966-.859-.643-1.696-1.438-2.511-2.383v2.963H421.9V88.806zm25.045 45.857h6.567V102.01h-6.567v32.654zm0-39.288h6.567v-6.569h-6.567v6.57zm12.876-6.57h6.567v36.648c0 1.246.225 2.093.676 2.544.45.45 1.297.741 2.543.87v6.183c-1.503 0-2.865-.12-4.089-.355-1.222-.236-2.253-.686-3.09-1.352-.837-.665-1.481-1.6-1.931-2.801-.45-1.203-.676-2.748-.676-4.638V88.806zm14.935 45.858h6.567V102.01h-6.567v32.654zm0-39.288h6.567v-6.569h-6.567v6.57zm14.551-3.285h6.567v9.919h4.057v5.153h-4.057v18.098c0 .773.075 1.374.226 1.803.15.43.387.752.708.967.323.215.74.343 1.256.385.515.044 1.137.065 1.867.065v6.183h-2.704c-1.503 0-2.759-.235-3.767-.708-1.009-.472-1.814-1.073-2.414-1.804a7.047 7.047 0 0 1-1.32-2.479 9.193 9.193 0 0 1-.419-2.674v-19.836h-3.283v-5.153h3.283V92.09zm22.47 9.92l4.508 20.352h.128l4.442-20.353h6.761l-9.4 38.322c-.344 1.459-.827 2.673-1.449 3.638-.622.966-1.341 1.74-2.156 2.32a7.842 7.842 0 0 1-2.609 1.224 11.56 11.56 0 0 1-2.864.353h-1.803v-6.183h1.48c.645 0 1.202-.086 1.674-.257.473-.172.891-.548 1.257-1.127.363-.58.697-1.44.997-2.577.3-1.138.644-2.651 1.03-4.54l-8.95-31.173h6.955zm-231.325 82.438c0 1.417-.27 2.769-.805 4.057a10.665 10.665 0 0 1-2.222 3.382 11.031 11.031 0 0 1-3.316 2.318c-1.266.58-2.628.87-4.088.87-1.246 0-2.511-.172-3.799-.515a9.219 9.219 0 0 1-3.476-1.772c-1.03-.837-1.879-1.942-2.543-3.317-.666-1.373-.998-3.113-.998-5.216v-25.248c0-1.503.257-2.898.772-4.186a9.869 9.869 0 0 1 2.189-3.35c.944-.943 2.07-1.684 3.38-2.222 1.309-.536 2.758-.804 4.346-.804 1.502 0 2.897.268 4.185.804a10.046 10.046 0 0 1 3.348 2.255c.944.966 1.684 2.126 2.222 3.478.536 1.353.805 2.824.805 4.412v2.576h-6.568v-2.19c0-1.288-.365-2.404-1.095-3.349-.73-.944-1.717-1.417-2.96-1.417-1.633 0-2.716.505-3.253 1.514-.536 1.009-.804 2.286-.804 3.831v23.445c0 1.331.29 2.447.869 3.348.58.902 1.62 1.353 3.123 1.353.428 0 .89-.074 1.383-.225a3.8 3.8 0 0 0 1.352-.74c.409-.344.741-.816.999-1.417.258-.601.386-1.354.386-2.255v-2.254h6.568v2.834zm12.232.321c0 1.247.29 2.18.869 2.802.58.624 1.362.934 2.35.934.987 0 1.77-.31 2.35-.934.58-.621.87-1.555.87-2.802v-12.816c0-1.245-.29-2.179-.87-2.801-.58-.622-1.363-.935-2.35-.935-.988 0-1.77.313-2.35.935-.58.622-.87 1.556-.87 2.801v12.816zm-6.567-11.786c0-1.33.085-2.554.257-3.67.17-1.117.493-2.105.965-2.964.773-1.417 1.89-2.554 3.35-3.413 1.458-.859 3.196-1.288 5.214-1.288 2.017 0 3.756.43 5.215 1.288 1.46.86 2.576 1.996 3.348 3.413.473.86.794 1.847.966 2.963.172 1.117.258 2.34.258 3.67v10.758c0 1.33-.086 2.554-.258 3.67-.172 1.118-.493 2.105-.966 2.963-.772 1.417-1.889 2.555-3.348 3.413-1.46.86-3.198 1.288-5.215 1.288-2.018 0-3.756-.428-5.215-1.288-1.46-.858-2.576-1.996-3.349-3.413-.472-.858-.794-1.845-.965-2.963a24.147 24.147 0 0 1-.257-3.67v-10.757zm24.4-10.949h6.567v3.156h.13a9.348 9.348 0 0 1 2.478-2.544c.967-.665 2.2-.997 3.703-.997.815 0 1.63.139 2.447.417.814.28 1.545.741 2.189 1.385.644.644 1.158 1.471 1.545 2.48.386 1.01.579 2.244.579 3.703v25.055h-6.567v-22.607c0-1.202-.28-2.147-.837-2.834-.559-.686-1.352-1.03-2.383-1.03-1.246 0-2.103.385-2.575 1.158-.473.773-.709 1.89-.709 3.35v21.963h-6.567v-32.655zm27.17 5.153h-3.218v-5.152h3.219v-4.445c0-1.588.235-2.93.708-4.025.472-1.095 1.105-1.997 1.9-2.705a7.398 7.398 0 0 1 2.704-1.546 10.197 10.197 0 0 1 3.122-.483h3.026v6.183h-2.96c-1.29 0-1.933.752-1.933 2.255v4.766h4.893v5.152h-4.893v27.501h-6.567v-27.501zm20.731 8.502h6.439v-3.736c0-1.245-.29-2.179-.87-2.801-.58-.623-1.363-.934-2.35-.934-.988 0-1.77.311-2.35.934-.58.622-.869 1.556-.869 2.8v3.737zm0 5.152v4.444c0 1.03.29 1.826.87 2.384.579.557 1.361.836 2.35.836 1.244 0 2.07-.364 2.478-1.094.408-.73.654-1.46.741-2.19h6.567c0 1.374-.225 2.662-.676 3.865a8.547 8.547 0 0 1-1.964 3.09 9.242 9.242 0 0 1-3.09 2.126c-1.202.515-2.555.772-4.057.772-2.018 0-3.756-.428-5.214-1.287-1.46-.86-2.577-1.997-3.35-3.414-.472-.858-.794-1.845-.964-2.962a24.165 24.165 0 0 1-.258-3.672v-10.756c0-1.33.085-2.553.258-3.671.17-1.116.492-2.103.965-2.963.772-1.416 1.889-2.553 3.349-3.413 1.458-.858 3.196-1.287 5.214-1.287 1.502 0 2.866.256 4.088.772 1.225.515 2.254 1.235 3.091 2.157a9.71 9.71 0 0 1 1.932 3.252c.45 1.247.676 2.577.676 3.994v9.017h-13.006zm19.121-18.807h6.567v3.478c1.33-1.202 2.64-2.147 3.928-2.834 1.288-.686 2.875-1.03 4.765-1.03v6.955a5.345 5.345 0 0 0-1.996-.385c-.687 0-1.428.118-2.222.353a6.077 6.077 0 0 0-2.189 1.193c-.665.558-1.213 1.287-1.641 2.189-.43.902-.645 2.018-.645 3.35v19.386h-6.567v-32.655zm26.463 13.655h6.439v-3.736c0-1.245-.29-2.179-.87-2.801-.58-.623-1.363-.934-2.35-.934-.988 0-1.77.311-2.35.934-.58.622-.869 1.556-.869 2.8v3.737zm0 5.152v4.444c0 1.03.29 1.826.87 2.384.579.557 1.361.836 2.35.836 1.244 0 2.07-.364 2.479-1.094.407-.73.653-1.46.74-2.19h6.567c0 1.374-.225 2.662-.676 3.865a8.547 8.547 0 0 1-1.964 3.09 9.25 9.25 0 0 1-3.09 2.126c-1.202.515-2.555.772-4.057.772-2.018 0-3.756-.428-5.214-1.287-1.46-.86-2.577-1.997-3.35-3.414-.472-.858-.794-1.845-.964-2.962a24.165 24.165 0 0 1-.258-3.672v-10.756c0-1.33.085-2.553.258-3.671.17-1.116.492-2.103.965-2.963.772-1.416 1.889-2.553 3.349-3.413 1.458-.858 3.196-1.287 5.214-1.287 1.502 0 2.866.256 4.088.772 1.225.515 2.254 1.235 3.091 2.157a9.71 9.71 0 0 1 1.932 3.252c.45 1.247.676 2.577.676 3.994v9.017h-13.006zm19.121-18.807h6.567v3.156h.13a9.348 9.348 0 0 1 2.478-2.544c.967-.665 2.2-.997 3.703-.997.815 0 1.63.139 2.446.417.815.28 1.546.741 2.19 1.385.644.644 1.158 1.471 1.545 2.48.386 1.01.579 2.244.579 3.703v25.055h-6.567v-22.607c0-1.202-.28-2.147-.837-2.834-.559-.686-1.352-1.03-2.383-1.03-1.246 0-2.103.385-2.575 1.158-.473.773-.709 1.89-.709 3.35v21.963h-6.567v-32.655zm31.999 23.251c0 1.03.29 1.825.87 2.383.579.558 1.361.837 2.35.837 1.244 0 2.07-.364 2.478-1.094.408-.73.654-1.46.74-2.19h6.567c0 1.374-.224 2.662-.676 3.864-.45 1.203-1.105 2.233-1.963 3.091a9.25 9.25 0 0 1-3.09 2.126c-1.202.515-2.555.772-4.057.772-2.018 0-3.757-.428-5.214-1.287-1.46-.86-2.577-1.997-3.35-3.414-.472-.858-.794-1.845-.965-2.962a24.274 24.274 0 0 1-.257-3.672v-10.756c0-1.33.085-2.554.257-3.671.171-1.116.493-2.103.966-2.963.772-1.416 1.889-2.553 3.349-3.413 1.457-.858 3.196-1.288 5.214-1.288 1.502 0 2.866.257 4.088.773 1.224.515 2.254 1.235 3.091 2.157.837.925 1.481 2.03 1.931 3.317.452 1.289.676 2.684.676 4.187h-6.567c0-1.33-.289-2.308-.87-2.93-.579-.623-1.362-.934-2.349-.934-.988 0-1.77.311-2.35.934-.58.622-.869 1.557-.869 2.8v13.333zm25.43-9.596h6.44v-3.736c0-1.245-.29-2.179-.87-2.801-.58-.623-1.363-.934-2.35-.934-.988 0-1.77.311-2.35.934-.58.622-.87 1.556-.87 2.8v3.737zm0 5.152v4.444c0 1.03.29 1.826.87 2.384.58.557 1.362.836 2.35.836 1.244 0 2.07-.364 2.48-1.094.406-.73.653-1.46.74-2.19h6.567a10.94 10.94 0 0 1-.676 3.865c-.451 1.202-1.106 2.232-1.964 3.09a9.242 9.242 0 0 1-3.091 2.126c-1.202.515-2.554.772-4.056.772-2.018 0-3.756-.428-5.215-1.287-1.46-.86-2.576-1.997-3.349-3.414-.472-.858-.794-1.845-.965-2.962a24.165 24.165 0 0 1-.257-3.672v-10.756c0-1.33.085-2.553.257-3.671.17-1.116.493-2.103.965-2.963.773-1.416 1.89-2.553 3.35-3.413 1.458-.858 3.196-1.287 5.214-1.287 1.502 0 2.866.256 4.088.772 1.224.515 2.254 1.235 3.09 2.157a9.71 9.71 0 0 1 1.933 3.252c.45 1.247.676 2.577.676 3.994v9.017h-13.006zM197.21.805a.804.804 0 0 0-.805-.805H134.21a.804.804 0 0 0-.805.805v117.322c0 59.202-41.682 97.943-42.103 98.328a.805.805 0 0 0 .452 1.394c2.296.26 4.734.393 7.289.393 19.468 0 45.669-7.718 66.384-26.235 14.499-12.962 31.784-36.3 31.784-73.88L197.209.805zM84.086 127.567c-4.783-6.611-11.706-10.195-18.657-10.348-13.334-.291-20.582 9.248-23.054 14.705-1.543-4.754-5.427-9.155-10.617-11.875-6.222-3.261-13.21-3.43-19.166-.46-6.147 3.063-10.09 7.36-11.72 12.767-2.443 8.111.231 18.754 8.176 32.538 13.413 23.266 28.766 36.782 52.993 46.651a.805.805 0 0 0 .901-1.284c-.396-.442-9.629-10.976-2.085-24.01 2.446-4.228 5.988-8.464 9.736-12.948 5.42-6.48 11.573-13.82 15.708-22.812 2.252-4.897 3.426-15.129-2.215-22.924" mask="url(#b)"/></g></svg>